M48
; DRILL file {KiCad 5.1.9} date Wed Feb 24 13:07:46 2021
; FORMAT={-:-/ absolute / metric / decimal}
; #@! TF.CreationDate,2021-02-24T13:07:46+00:00
; #@! TF.GenerationSoftware,Kicad,Pcbnew,5.1.9
; #@! TF.FileFunction,Plated,1,2,PTH
FMAT,2
METRIC
T1C0.300
T2C0.600
T3C0.800
T4C0.900
T5C1.000
T6C1.500
T7C2.000
%
G90
G05
T1
X8.255Y-56.388
X10.16Y-15.24
X11.303Y-39.497
X11.938Y-40.259
X12.7Y-25.4
X12.7Y-88.9
X13.97Y-15.24
X14.351Y-61.976
X14.986Y-7.874
X15.24Y-33.02
X15.24Y-57.15
X17.399Y-8.382
X17.399Y-10.414
X17.526Y-38.354
X17.751Y-3.654
X17.78Y-50.8
X18.034Y-11.557
X18.132Y-37.748
X18.317Y-4.22
X18.515Y-8.763
X18.698Y-37.182
X19.304Y-36.576
X19.315Y-8.763
X19.812Y-11.557
X19.812Y-16.256
X19.812Y-10.414
X20.066Y-8.001
X20.32Y-3.81
X20.32Y-71.12
X21.971Y-12.065
X22.225Y-8.128
X22.225Y-22.86
X23.622Y-45.085
X24.765Y-3.048
X24.892Y-9.525
X24.892Y-15.875
X25.654Y-11.303
X25.654Y-12.319
X31.5Y-9.93
X31.8Y-10.73
X33.02Y-3.81
X34.29Y-39.624
X35.56Y-46.99
X35.56Y-88.9
X36.547Y-3.458
X37.1Y-10.43
X37.1Y-11.43
X37.1Y-12.43
X37.113Y-2.892
X38.1Y-10.43
X38.1Y-11.43
X38.1Y-12.43
X38.1Y-33.02
X38.735Y-53.721
X38.735Y-56.007
X39.1Y-10.43
X39.1Y-11.43
X39.1Y-12.43
X39.75Y-8.63
X40.005Y-3.81
X40.005Y-6.985
X40.2Y-9.33
X43.18Y-33.02
X43.815Y-56.896
X44.704Y-49.53
X45.72Y-2.667
X45.72Y-13.97
X45.847Y-49.784
X47.117Y-24.384
X47.117Y-25.146
X48.133Y-24.384
X48.133Y-25.146
X48.26Y-12.7
X48.26Y-71.12
X50.038Y-8.001
X52.705Y-21.59
X55.88Y-6.477
X58.42Y-33.02
X60.96Y-88.9
X62.865Y-58.293
X63.5Y-50.8
X66.04Y-12.7
X66.675Y-26.67
X66.675Y-39.624
X68.58Y-71.12
X69.088Y-83.82
X70.104Y-79.502
X70.612Y-58.674
X71.374Y-49.784
X76.2Y-33.02
X76.2Y-59.309
X76.2Y-64.516
X81.915Y-57.242
X83.82Y-48.26
X86.36Y-12.7
X86.36Y-71.12
X88.9Y-81.28
X88.9Y-83.82
X88.9Y-86.36
X88.9Y-88.9
X91.44Y-81.28
X91.44Y-83.82
X91.44Y-86.36
X91.44Y-88.9
X91.44Y-88.9
X93.98Y-81.28
X93.98Y-83.82
X93.98Y-86.36
X93.98Y-88.9
X95.25Y-7.493
X96.52Y-33.02
X96.52Y-81.28
X96.52Y-83.82
X96.52Y-86.36
X96.52Y-88.9
X96.647Y-57.642
X97.282Y-52.197
X97.917Y-61.341
X99.06Y-81.28
X99.06Y-83.82
X99.06Y-86.36
X99.06Y-88.9
X101.6Y-81.28
X101.6Y-83.82
X101.6Y-86.36
X101.6Y-88.9
X102.87Y-48.26
X104.14Y-12.7
X104.14Y-81.28
X104.14Y-83.82
X104.14Y-86.36
X104.14Y-88.9
X106.68Y-83.82
X106.68Y-86.36
X106.68Y-88.9
X106.934Y-50.927
X107.315Y-74.295
X107.569Y-51.562
X108.204Y-52.197
X108.712Y-74.295
X108.712Y-75.184
X108.966Y-57.785
X109.22Y-88.9
X109.855Y-58.547
X110.355Y-80.91
X110.355Y-82.51
X110.355Y-83.31
X110.355Y-84.11
X110.744Y-58.547
X110.755Y-85.71
X110.755Y-86.51
X110.871Y-50.8
X110.905Y-88.91
X111.633Y-51.435
X111.887Y-49.403
X113.205Y-81.01
X113.205Y-81.86
X113.205Y-82.71
X113.205Y-84.11
X113.205Y-84.91
X113.205Y-87.31
X114.3Y-33.02
X114.3Y-59.02
X114.3Y-64.643
X114.3Y-66.802
X114.3Y-83.185
X114.3Y-85.09
X114.3Y-86.995
X114.505Y-81.36
X114.605Y-78.359
X115.155Y-80.86
X115.255Y-88.11
X115.57Y-70.739
X115.805Y-78.56
X115.805Y-81.36
X116.205Y-83.185
X116.205Y-85.09
X116.205Y-86.995
X116.605Y-77.71
X116.605Y-81.36
X117.155Y-88.11
X117.255Y-80.86
X117.905Y-81.36
X118.11Y-44.45
X118.11Y-83.185
X118.11Y-85.09
X118.11Y-86.995
X118.491Y-59.944
X118.872Y-78.359
X119.205Y-81.01
X119.205Y-81.81
X119.205Y-82.61
X119.205Y-84.11
X119.205Y-84.91
X119.205Y-85.71
X119.805Y-78.36
X120.015Y-36.195
X120.65Y-25.4
X121.412Y-76.327
X121.505Y-88.91
X121.505Y-90.21
X121.505Y-91.51
X121.505Y-92.81
X121.793Y-81.28
X122.047Y-73.406
X122.301Y-76.565
X122.555Y-83.312
X122.682Y-81.28
X122.936Y-39.624
X122.936Y-72.39
X123.542Y-39.018
X123.571Y-73.025
X123.698Y-86.487
X123.825Y-55.245
X124.108Y-38.452
X124.206Y-73.66
X124.396Y-79.438
X124.46Y-12.7
X124.46Y-70.485
X124.714Y-37.846
X125.222Y-80.264
X125.917Y-80.917
X126.483Y-81.483
X127.0Y-39.37
X127.254Y-82.042
X128.905Y-79.375
X130.175Y-62.992
X130.175Y-73.025
X130.81Y-56.515
X131.445Y-57.15
X131.445Y-73.66
X131.572Y-79.016
X132.334Y-57.785
X133.731Y-60.325
X134.62Y-33.02
X134.62Y-60.325
X134.966Y-64.135
X136.144Y-40.894
X136.398Y-51.435
X138.176Y-77.597
X138.176Y-90.551
X138.938Y-83.185
X139.065Y-58.039
X139.065Y-89.951
X140.335Y-72.39
X140.716Y-46.609
X141.605Y-44.577
X141.605Y-81.915
X142.24Y-12.7
X144.145Y-90.551
X145.415Y-25.527
X146.685Y-89.951
X147.32Y-68.58
X147.32Y-87.503
X148.59Y-88.138
X149.733Y-76.581
X149.733Y-89.351
X151.765Y-78.359
X151.765Y-88.751
X152.4Y-33.02
X153.035Y-77.978
X153.67Y-81.915
X154.051Y-76.327
X156.21Y-88.751
X156.845Y-87.503
X157.48Y-89.351
X158.115Y-60.452
X158.75Y-89.951
X159.385Y-88.138
X160.02Y-48.26
X160.02Y-90.551
X162.56Y-12.7
X165.1Y-68.58
X165.1Y-87.503
X166.497Y-88.138
X168.275Y-78.74
X169.545Y-77.216
X170.18Y-33.02
X172.466Y-53.467
X172.847Y-74.803
X172.847Y-85.598
X173.736Y-75.565
X173.736Y-82.042
X175.895Y-71.12
X175.895Y-79.756
X177.8Y-81.915
X177.8Y-85.725
X179.07Y-48.26
X180.34Y-12.7
X180.34Y-71.12
X180.34Y-81.28
X180.34Y-86.36
X190.5Y-33.02
X191.516Y-50.8
X196.215Y-26.035
X198.12Y-50.8
X200.66Y-12.7
X200.66Y-71.12
X200.66Y-88.9
X203.073Y-17.272
X204.978Y-37.084
X206.375Y-34.29
X207.264Y-18.034
X208.28Y-33.02
X208.28Y-58.42
X209.55Y-83.439
X210.566Y-52.105
X215.9Y-50.8
X218.44Y-12.7
X218.44Y-71.12
X218.44Y-88.9
X228.6Y-33.02
X229.616Y-51.435
X233.68Y-50.8
X238.76Y-12.7
X238.76Y-71.12
X238.76Y-88.9
X248.285Y-59.055
X248.92Y-33.02
X251.46Y-50.8
X256.54Y-71.12
X256.54Y-88.9
X260.604Y-52.705
X264.16Y-50.8
X266.7Y-12.7
X271.78Y-33.02
X276.86Y-71.12
X276.86Y-88.9
T2
X15.24Y-11.43
X16.51Y-20.955
X17.78Y-16.256
X17.78Y-20.32
X20.955Y-9.525
X22.225Y-14.605
X23.495Y-14.605
X27.305Y-54.102
X29.21Y-17.145
X29.845Y-30.48
X31.115Y-33.02
X31.115Y-52.705
X32.385Y-17.145
X33.02Y-36.195
X33.02Y-50.8
X33.02Y-55.499
X35.56Y-6.35
X35.941Y-9.271
X36.83Y-14.605
X36.83Y-15.875
X36.83Y-20.32
X38.989Y-22.225
X40.64Y-20.32
X41.4Y-11.23
X41.91Y-20.32
X44.323Y-25.273
X45.72Y-55.245
X45.72Y-51.435
X114.935Y-55.245
X116.84Y-53.34
X117.221Y-73.914
X120.015Y-53.34
X122.555Y-20.32
X122.555Y-21.59
X122.555Y-36.195
X123.825Y-36.195
X141.605Y-71.12
X148.59Y-74.168
X154.94Y-71.12
X166.37Y-74.168
T3
X29.21Y-46.895
X29.21Y-48.895
X29.21Y-50.895
T4
X6.985Y-46.355
X6.985Y-48.895
T5
X141.605Y-92.075
X144.145Y-92.075
X146.685Y-92.075
X149.225Y-92.075
X151.765Y-92.075
X154.305Y-92.075
X156.845Y-92.075
X159.385Y-92.075
X161.925Y-92.075
X164.465Y-92.075
X167.005Y-92.075
X169.545Y-92.075
X172.085Y-92.075
X174.625Y-92.075
T6
X5.715Y-6.985
X8.096Y-83.185
X10.477Y-26.035
X12.065Y-4.445
X12.859Y-45.085
X14.446Y-80.645
X15.24Y-64.135
X16.828Y-23.495
X19.209Y-42.545
X21.59Y-61.595
X24.765Y-6.985
X31.115Y-4.445
X31.909Y-83.185
X34.29Y-26.035
X38.259Y-80.645
X39.052Y-45.085
X40.64Y-23.495
X43.815Y-6.985
X43.815Y-64.135
X45.402Y-42.545
X50.165Y-4.445
X50.165Y-61.595
X53.34Y-26.035
X55.721Y-83.185
X58.102Y-45.085
X59.69Y-23.495
X62.071Y-80.645
X62.865Y-6.985
X62.865Y-64.135
X64.453Y-42.545
X69.215Y-4.445
X69.215Y-61.595
X72.39Y-26.035
X77.153Y-45.085
X78.74Y-23.495
X81.915Y-6.985
X81.915Y-64.135
X83.502Y-42.545
X88.265Y-4.445
X88.265Y-61.595
X91.44Y-26.035
X96.203Y-45.085
X97.79Y-23.495
X100.965Y-6.985
X100.965Y-64.135
X102.552Y-42.545
X107.315Y-4.445
X107.315Y-61.595
X110.49Y-26.035
X115.252Y-45.085
X116.84Y-23.495
X120.015Y-6.985
X120.015Y-64.135
X121.602Y-42.545
X126.365Y-4.445
X126.365Y-61.595
X128.429Y-90.805
X129.54Y-26.035
X134.302Y-45.085
X134.779Y-88.265
X135.89Y-23.495
X139.065Y-6.985
X139.065Y-64.135
X140.653Y-42.545
X145.415Y-4.445
X145.415Y-61.595
X148.59Y-26.035
X153.352Y-45.085
X154.94Y-23.495
X158.115Y-6.985
X158.115Y-64.135
X159.702Y-42.545
X164.465Y-4.445
X164.465Y-61.595
X167.64Y-26.035
X172.403Y-45.085
X173.99Y-23.495
X177.165Y-6.985
X177.165Y-64.135
X178.752Y-42.545
X183.515Y-4.445
X183.515Y-61.595
X186.69Y-26.035
X191.452Y-45.085
X193.04Y-23.495
X196.215Y-6.985
X196.215Y-64.135
X196.215Y-83.185
X197.802Y-42.545
X202.565Y-4.445
X202.565Y-61.595
X202.565Y-80.645
X205.74Y-26.035
X210.502Y-45.085
X212.09Y-23.495
X215.265Y-6.985
X215.265Y-64.135
X215.265Y-83.185
X216.852Y-42.545
X221.615Y-4.445
X221.615Y-61.595
X221.615Y-80.645
X224.79Y-26.035
X229.552Y-45.085
X231.14Y-23.495
X234.315Y-6.985
X234.315Y-64.135
X234.315Y-83.185
X235.903Y-42.545
X240.665Y-4.445
X240.665Y-61.595
X240.665Y-80.645
X243.84Y-26.035
X250.19Y-23.495
X253.365Y-64.135
X253.365Y-83.185
X259.715Y-61.595
X259.715Y-80.645
X260.509Y-45.085
X262.89Y-6.985
X266.859Y-42.545
X267.652Y-26.035
X269.24Y-4.445
X272.415Y-64.135
X272.415Y-83.185
X274.002Y-23.495
X278.765Y-61.595
X278.765Y-80.645
T7
X25.4Y-28.575
T2
G00X14.095Y-1.19
M15
G01X14.095Y-1.79
M16
G05
G00X14.095Y-5.12
M15
G01X14.095Y-6.22
M16
G05
G00X22.735Y-1.19
M15
G01X22.735Y-1.79
M16
G05
G00X22.735Y-5.12
M15
G01X22.735Y-6.22
M16
G05
T7
G00X-1.865Y-57.15
M15
G01X3.135Y-57.15
M16
G05
G00X127.087Y-47.625
M15
G01X130.088Y-47.625
M16
G05
G00X189.0Y-85.725
M15
G01X192.0Y-85.725
M16
G05
G00X258.85Y-28.575
M15
G01X261.85Y-28.575
M16
G05
G00X281.345Y-57.15
M15
G01X286.345Y-57.15
M16
G05
T0
M30
