%TF.GenerationSoftware,KiCad,Pcbnew,5.1.9*%
%TF.CreationDate,2021-02-05T17:27:01+00:00*%
%TF.ProjectId,keyboard,6b657962-6f61-4726-942e-6b696361645f,A*%
%TF.SameCoordinates,PX3072580PY3072580*%
%TF.FileFunction,Soldermask,Bot*%
%TF.FilePolarity,Negative*%
%FSLAX46Y46*%
G04 Gerber Fmt 4.6, Leading zero omitted, Abs format (unit mm)*
G04 Created by KiCad (PCBNEW 5.1.9) date 2021-02-05 17:27:01*
%MOMM*%
%LPD*%
G01*
G04 APERTURE LIST*
%ADD10C,1.800000*%
%ADD11R,1.800000X1.800000*%
%ADD12R,0.900000X1.200000*%
%ADD13C,1.700000*%
%ADD14C,4.000000*%
%ADD15C,2.200000*%
%ADD16O,1.700000X1.700000*%
%ADD17R,1.700000X1.700000*%
%ADD18C,3.050000*%
%ADD19R,1.700000X1.400000*%
%ADD20R,2.650000X2.650000*%
%ADD21R,1.308000X1.308000*%
%ADD22C,1.308000*%
%ADD23C,1.500000*%
%ADD24R,1.000000X0.700000*%
%ADD25R,3.600000X1.500000*%
%ADD26R,3.810000X4.240000*%
%ADD27R,1.200000X0.900000*%
%ADD28R,0.800000X0.900000*%
%ADD29R,0.600000X1.450000*%
%ADD30R,0.300000X1.450000*%
%ADD31O,1.000000X2.100000*%
%ADD32C,0.650000*%
%ADD33O,1.000000X1.600000*%
%ADD34R,1.000000X1.800000*%
%ADD35C,7.000000*%
%ADD36O,10.000000X7.000000*%
%ADD37R,0.500000X0.500000*%
G04 APERTURE END LIST*
D10*
%TO.C,LED3*%
X6985000Y-46355000D03*
D11*
X6985000Y-48895000D03*
%TD*%
%TO.C,R15*%
G36*
G01*
X25165000Y-48710001D02*
X25165000Y-47809999D01*
G75*
G02*
X25414999Y-47560000I249999J0D01*
G01*
X25940001Y-47560000D01*
G75*
G02*
X26190000Y-47809999I0J-249999D01*
G01*
X26190000Y-48710001D01*
G75*
G02*
X25940001Y-48960000I-249999J0D01*
G01*
X25414999Y-48960000D01*
G75*
G02*
X25165000Y-48710001I0J249999D01*
G01*
G37*
G36*
G01*
X23340000Y-48710001D02*
X23340000Y-47809999D01*
G75*
G02*
X23589999Y-47560000I249999J0D01*
G01*
X24115001Y-47560000D01*
G75*
G02*
X24365000Y-47809999I0J-249999D01*
G01*
X24365000Y-48710001D01*
G75*
G02*
X24115001Y-48960000I-249999J0D01*
G01*
X23589999Y-48960000D01*
G75*
G02*
X23340000Y-48710001I0J249999D01*
G01*
G37*
%TD*%
%TO.C,R16*%
G36*
G01*
X25165000Y-51250001D02*
X25165000Y-50349999D01*
G75*
G02*
X25414999Y-50100000I249999J0D01*
G01*
X25940001Y-50100000D01*
G75*
G02*
X26190000Y-50349999I0J-249999D01*
G01*
X26190000Y-51250001D01*
G75*
G02*
X25940001Y-51500000I-249999J0D01*
G01*
X25414999Y-51500000D01*
G75*
G02*
X25165000Y-51250001I0J249999D01*
G01*
G37*
G36*
G01*
X23340000Y-51250001D02*
X23340000Y-50349999D01*
G75*
G02*
X23589999Y-50100000I249999J0D01*
G01*
X24115001Y-50100000D01*
G75*
G02*
X24365000Y-50349999I0J-249999D01*
G01*
X24365000Y-51250001D01*
G75*
G02*
X24115001Y-51500000I-249999J0D01*
G01*
X23589999Y-51500000D01*
G75*
G02*
X23340000Y-51250001I0J249999D01*
G01*
G37*
%TD*%
D12*
%TO.C,D36*%
X22480000Y-45085000D03*
X25780000Y-45085000D03*
%TD*%
%TO.C,D35*%
X22480000Y-42545000D03*
X25780000Y-42545000D03*
%TD*%
%TO.C,C16*%
G36*
G01*
X33470000Y-47465000D02*
X33470000Y-46515000D01*
G75*
G02*
X33720000Y-46265000I250000J0D01*
G01*
X34220000Y-46265000D01*
G75*
G02*
X34470000Y-46515000I0J-250000D01*
G01*
X34470000Y-47465000D01*
G75*
G02*
X34220000Y-47715000I-250000J0D01*
G01*
X33720000Y-47715000D01*
G75*
G02*
X33470000Y-47465000I0J250000D01*
G01*
G37*
G36*
G01*
X31570000Y-47465000D02*
X31570000Y-46515000D01*
G75*
G02*
X31820000Y-46265000I250000J0D01*
G01*
X32320000Y-46265000D01*
G75*
G02*
X32570000Y-46515000I0J-250000D01*
G01*
X32570000Y-47465000D01*
G75*
G02*
X32320000Y-47715000I-250000J0D01*
G01*
X31820000Y-47715000D01*
G75*
G02*
X31570000Y-47465000I0J250000D01*
G01*
G37*
%TD*%
D13*
%TO.C,S5*%
X90805000Y-9525000D03*
X80645000Y-9525000D03*
D14*
X85725000Y-9525000D03*
D15*
X81915000Y-6985000D03*
X88265000Y-4445000D03*
%TD*%
%TO.C,J9*%
G36*
G01*
X3695000Y-26255000D02*
X6195000Y-26255000D01*
G75*
G02*
X6445000Y-26505000I0J-250000D01*
G01*
X6445000Y-28105000D01*
G75*
G02*
X6195000Y-28355000I-250000J0D01*
G01*
X3695000Y-28355000D01*
G75*
G02*
X3445000Y-28105000I0J250000D01*
G01*
X3445000Y-26505000D01*
G75*
G02*
X3695000Y-26255000I250000J0D01*
G01*
G37*
G36*
G01*
X3695000Y-19905000D02*
X6195000Y-19905000D01*
G75*
G02*
X6445000Y-20155000I0J-250000D01*
G01*
X6445000Y-21755000D01*
G75*
G02*
X6195000Y-22005000I-250000J0D01*
G01*
X3695000Y-22005000D01*
G75*
G02*
X3445000Y-21755000I0J250000D01*
G01*
X3445000Y-20155000D01*
G75*
G02*
X3695000Y-19905000I250000J0D01*
G01*
G37*
G36*
G01*
X1445000Y-24355000D02*
X2645000Y-24355000D01*
G75*
G02*
X2845000Y-24555000I0J-200000D01*
G01*
X2845000Y-24955000D01*
G75*
G02*
X2645000Y-25155000I-200000J0D01*
G01*
X1445000Y-25155000D01*
G75*
G02*
X1245000Y-24955000I0J200000D01*
G01*
X1245000Y-24555000D01*
G75*
G02*
X1445000Y-24355000I200000J0D01*
G01*
G37*
G36*
G01*
X1445000Y-23105000D02*
X2645000Y-23105000D01*
G75*
G02*
X2845000Y-23305000I0J-200000D01*
G01*
X2845000Y-23705000D01*
G75*
G02*
X2645000Y-23905000I-200000J0D01*
G01*
X1445000Y-23905000D01*
G75*
G02*
X1245000Y-23705000I0J200000D01*
G01*
X1245000Y-23305000D01*
G75*
G02*
X1445000Y-23105000I200000J0D01*
G01*
G37*
%TD*%
%TO.C,R14*%
G36*
G01*
X3625001Y-47225000D02*
X2724999Y-47225000D01*
G75*
G02*
X2475000Y-46975001I0J249999D01*
G01*
X2475000Y-46449999D01*
G75*
G02*
X2724999Y-46200000I249999J0D01*
G01*
X3625001Y-46200000D01*
G75*
G02*
X3875000Y-46449999I0J-249999D01*
G01*
X3875000Y-46975001D01*
G75*
G02*
X3625001Y-47225000I-249999J0D01*
G01*
G37*
G36*
G01*
X3625001Y-49050000D02*
X2724999Y-49050000D01*
G75*
G02*
X2475000Y-48800001I0J249999D01*
G01*
X2475000Y-48274999D01*
G75*
G02*
X2724999Y-48025000I249999J0D01*
G01*
X3625001Y-48025000D01*
G75*
G02*
X3875000Y-48274999I0J-249999D01*
G01*
X3875000Y-48800001D01*
G75*
G02*
X3625001Y-49050000I-249999J0D01*
G01*
G37*
%TD*%
%TO.C,C10*%
G36*
G01*
X45245000Y-28390000D02*
X46195000Y-28390000D01*
G75*
G02*
X46445000Y-28640000I0J-250000D01*
G01*
X46445000Y-29140000D01*
G75*
G02*
X46195000Y-29390000I-250000J0D01*
G01*
X45245000Y-29390000D01*
G75*
G02*
X44995000Y-29140000I0J250000D01*
G01*
X44995000Y-28640000D01*
G75*
G02*
X45245000Y-28390000I250000J0D01*
G01*
G37*
G36*
G01*
X45245000Y-26490000D02*
X46195000Y-26490000D01*
G75*
G02*
X46445000Y-26740000I0J-250000D01*
G01*
X46445000Y-27240000D01*
G75*
G02*
X46195000Y-27490000I-250000J0D01*
G01*
X45245000Y-27490000D01*
G75*
G02*
X44995000Y-27240000I0J250000D01*
G01*
X44995000Y-26740000D01*
G75*
G02*
X45245000Y-26490000I250000J0D01*
G01*
G37*
%TD*%
%TO.C,C15*%
G36*
G01*
X175420000Y-82360000D02*
X176370000Y-82360000D01*
G75*
G02*
X176620000Y-82610000I0J-250000D01*
G01*
X176620000Y-83110000D01*
G75*
G02*
X176370000Y-83360000I-250000J0D01*
G01*
X175420000Y-83360000D01*
G75*
G02*
X175170000Y-83110000I0J250000D01*
G01*
X175170000Y-82610000D01*
G75*
G02*
X175420000Y-82360000I250000J0D01*
G01*
G37*
G36*
G01*
X175420000Y-80460000D02*
X176370000Y-80460000D01*
G75*
G02*
X176620000Y-80710000I0J-250000D01*
G01*
X176620000Y-81210000D01*
G75*
G02*
X176370000Y-81460000I-250000J0D01*
G01*
X175420000Y-81460000D01*
G75*
G02*
X175170000Y-81210000I0J250000D01*
G01*
X175170000Y-80710000D01*
G75*
G02*
X175420000Y-80460000I250000J0D01*
G01*
G37*
%TD*%
%TO.C,C14*%
G36*
G01*
X175420000Y-86175000D02*
X176370000Y-86175000D01*
G75*
G02*
X176620000Y-86425000I0J-250000D01*
G01*
X176620000Y-86925000D01*
G75*
G02*
X176370000Y-87175000I-250000J0D01*
G01*
X175420000Y-87175000D01*
G75*
G02*
X175170000Y-86925000I0J250000D01*
G01*
X175170000Y-86425000D01*
G75*
G02*
X175420000Y-86175000I250000J0D01*
G01*
G37*
G36*
G01*
X175420000Y-84275000D02*
X176370000Y-84275000D01*
G75*
G02*
X176620000Y-84525000I0J-250000D01*
G01*
X176620000Y-85025000D01*
G75*
G02*
X176370000Y-85275000I-250000J0D01*
G01*
X175420000Y-85275000D01*
G75*
G02*
X175170000Y-85025000I0J250000D01*
G01*
X175170000Y-84525000D01*
G75*
G02*
X175420000Y-84275000I250000J0D01*
G01*
G37*
%TD*%
%TO.C,J8*%
G36*
G01*
X171565000Y-81695000D02*
X169065000Y-81695000D01*
G75*
G02*
X168815000Y-81445000I0J250000D01*
G01*
X168815000Y-79845000D01*
G75*
G02*
X169065000Y-79595000I250000J0D01*
G01*
X171565000Y-79595000D01*
G75*
G02*
X171815000Y-79845000I0J-250000D01*
G01*
X171815000Y-81445000D01*
G75*
G02*
X171565000Y-81695000I-250000J0D01*
G01*
G37*
G36*
G01*
X171565000Y-88045000D02*
X169065000Y-88045000D01*
G75*
G02*
X168815000Y-87795000I0J250000D01*
G01*
X168815000Y-86195000D01*
G75*
G02*
X169065000Y-85945000I250000J0D01*
G01*
X171565000Y-85945000D01*
G75*
G02*
X171815000Y-86195000I0J-250000D01*
G01*
X171815000Y-87795000D01*
G75*
G02*
X171565000Y-88045000I-250000J0D01*
G01*
G37*
G36*
G01*
X173815000Y-83595000D02*
X172615000Y-83595000D01*
G75*
G02*
X172415000Y-83395000I0J200000D01*
G01*
X172415000Y-82995000D01*
G75*
G02*
X172615000Y-82795000I200000J0D01*
G01*
X173815000Y-82795000D01*
G75*
G02*
X174015000Y-82995000I0J-200000D01*
G01*
X174015000Y-83395000D01*
G75*
G02*
X173815000Y-83595000I-200000J0D01*
G01*
G37*
G36*
G01*
X173815000Y-84845000D02*
X172615000Y-84845000D01*
G75*
G02*
X172415000Y-84645000I0J200000D01*
G01*
X172415000Y-84245000D01*
G75*
G02*
X172615000Y-84045000I200000J0D01*
G01*
X173815000Y-84045000D01*
G75*
G02*
X174015000Y-84245000I0J-200000D01*
G01*
X174015000Y-84645000D01*
G75*
G02*
X173815000Y-84845000I-200000J0D01*
G01*
G37*
%TD*%
D16*
%TO.C,J7*%
X174625000Y-92075000D03*
X172085000Y-92075000D03*
X169545000Y-92075000D03*
X167005000Y-92075000D03*
X164465000Y-92075000D03*
X161925000Y-92075000D03*
X159385000Y-92075000D03*
X156845000Y-92075000D03*
X154305000Y-92075000D03*
X151765000Y-92075000D03*
X149225000Y-92075000D03*
X146685000Y-92075000D03*
X144145000Y-92075000D03*
D17*
X141605000Y-92075000D03*
%TD*%
D13*
%TO.C,S15*%
X19367500Y-28575000D03*
X9207500Y-28575000D03*
D14*
X14287500Y-28575000D03*
D15*
X10477500Y-26035000D03*
X16827500Y-23495000D03*
%TD*%
D18*
%TO.C,S59*%
X80968750Y-92725000D03*
X180968750Y-92725000D03*
D14*
X180968750Y-77485000D03*
X80968750Y-77485000D03*
D13*
X125888750Y-85725000D03*
X136048750Y-85725000D03*
D14*
X130968750Y-85725000D03*
D15*
X134778750Y-88265000D03*
X128428750Y-90805000D03*
%TD*%
%TO.C,R13*%
G36*
G01*
X53790001Y-50400000D02*
X52889999Y-50400000D01*
G75*
G02*
X52640000Y-50150001I0J249999D01*
G01*
X52640000Y-49624999D01*
G75*
G02*
X52889999Y-49375000I249999J0D01*
G01*
X53790001Y-49375000D01*
G75*
G02*
X54040000Y-49624999I0J-249999D01*
G01*
X54040000Y-50150001D01*
G75*
G02*
X53790001Y-50400000I-249999J0D01*
G01*
G37*
G36*
G01*
X53790001Y-52225000D02*
X52889999Y-52225000D01*
G75*
G02*
X52640000Y-51975001I0J249999D01*
G01*
X52640000Y-51449999D01*
G75*
G02*
X52889999Y-51200000I249999J0D01*
G01*
X53790001Y-51200000D01*
G75*
G02*
X54040000Y-51449999I0J-249999D01*
G01*
X54040000Y-51975001D01*
G75*
G02*
X53790001Y-52225000I-249999J0D01*
G01*
G37*
%TD*%
%TO.C,R12*%
G36*
G01*
X51885001Y-50400000D02*
X50984999Y-50400000D01*
G75*
G02*
X50735000Y-50150001I0J249999D01*
G01*
X50735000Y-49624999D01*
G75*
G02*
X50984999Y-49375000I249999J0D01*
G01*
X51885001Y-49375000D01*
G75*
G02*
X52135000Y-49624999I0J-249999D01*
G01*
X52135000Y-50150001D01*
G75*
G02*
X51885001Y-50400000I-249999J0D01*
G01*
G37*
G36*
G01*
X51885001Y-52225000D02*
X50984999Y-52225000D01*
G75*
G02*
X50735000Y-51975001I0J249999D01*
G01*
X50735000Y-51449999D01*
G75*
G02*
X50984999Y-51200000I249999J0D01*
G01*
X51885001Y-51200000D01*
G75*
G02*
X52135000Y-51449999I0J-249999D01*
G01*
X52135000Y-51975001D01*
G75*
G02*
X51885001Y-52225000I-249999J0D01*
G01*
G37*
%TD*%
%TO.C,R10*%
G36*
G01*
X28175000Y-33839999D02*
X28175000Y-34740001D01*
G75*
G02*
X27925001Y-34990000I-249999J0D01*
G01*
X27399999Y-34990000D01*
G75*
G02*
X27150000Y-34740001I0J249999D01*
G01*
X27150000Y-33839999D01*
G75*
G02*
X27399999Y-33590000I249999J0D01*
G01*
X27925001Y-33590000D01*
G75*
G02*
X28175000Y-33839999I0J-249999D01*
G01*
G37*
G36*
G01*
X30000000Y-33839999D02*
X30000000Y-34740001D01*
G75*
G02*
X29750001Y-34990000I-249999J0D01*
G01*
X29224999Y-34990000D01*
G75*
G02*
X28975000Y-34740001I0J249999D01*
G01*
X28975000Y-33839999D01*
G75*
G02*
X29224999Y-33590000I249999J0D01*
G01*
X29750001Y-33590000D01*
G75*
G02*
X30000000Y-33839999I0J-249999D01*
G01*
G37*
%TD*%
%TO.C,C9*%
G36*
G01*
X37730000Y-20970001D02*
X37730000Y-19669999D01*
G75*
G02*
X37979999Y-19420000I249999J0D01*
G01*
X38630001Y-19420000D01*
G75*
G02*
X38880000Y-19669999I0J-249999D01*
G01*
X38880000Y-20970001D01*
G75*
G02*
X38630001Y-21220000I-249999J0D01*
G01*
X37979999Y-21220000D01*
G75*
G02*
X37730000Y-20970001I0J249999D01*
G01*
G37*
G36*
G01*
X34780000Y-20970001D02*
X34780000Y-19669999D01*
G75*
G02*
X35029999Y-19420000I249999J0D01*
G01*
X35680001Y-19420000D01*
G75*
G02*
X35930000Y-19669999I0J-249999D01*
G01*
X35930000Y-20970001D01*
G75*
G02*
X35680001Y-21220000I-249999J0D01*
G01*
X35029999Y-21220000D01*
G75*
G02*
X34780000Y-20970001I0J249999D01*
G01*
G37*
%TD*%
%TO.C,C6*%
G36*
G01*
X36210001Y-5450000D02*
X34909999Y-5450000D01*
G75*
G02*
X34660000Y-5200001I0J249999D01*
G01*
X34660000Y-4549999D01*
G75*
G02*
X34909999Y-4300000I249999J0D01*
G01*
X36210001Y-4300000D01*
G75*
G02*
X36460000Y-4549999I0J-249999D01*
G01*
X36460000Y-5200001D01*
G75*
G02*
X36210001Y-5450000I-249999J0D01*
G01*
G37*
G36*
G01*
X36210001Y-8400000D02*
X34909999Y-8400000D01*
G75*
G02*
X34660000Y-8150001I0J249999D01*
G01*
X34660000Y-7499999D01*
G75*
G02*
X34909999Y-7250000I249999J0D01*
G01*
X36210001Y-7250000D01*
G75*
G02*
X36460000Y-7499999I0J-249999D01*
G01*
X36460000Y-8150001D01*
G75*
G02*
X36210001Y-8400000I-249999J0D01*
G01*
G37*
%TD*%
%TO.C,U4*%
G36*
G01*
X39210000Y-53170000D02*
X39210000Y-52870000D01*
G75*
G02*
X39360000Y-52720000I150000J0D01*
G01*
X40385000Y-52720000D01*
G75*
G02*
X40535000Y-52870000I0J-150000D01*
G01*
X40535000Y-53170000D01*
G75*
G02*
X40385000Y-53320000I-150000J0D01*
G01*
X39360000Y-53320000D01*
G75*
G02*
X39210000Y-53170000I0J150000D01*
G01*
G37*
G36*
G01*
X39210000Y-51270000D02*
X39210000Y-50970000D01*
G75*
G02*
X39360000Y-50820000I150000J0D01*
G01*
X40385000Y-50820000D01*
G75*
G02*
X40535000Y-50970000I0J-150000D01*
G01*
X40535000Y-51270000D01*
G75*
G02*
X40385000Y-51420000I-150000J0D01*
G01*
X39360000Y-51420000D01*
G75*
G02*
X39210000Y-51270000I0J150000D01*
G01*
G37*
G36*
G01*
X36935000Y-51270000D02*
X36935000Y-50970000D01*
G75*
G02*
X37085000Y-50820000I150000J0D01*
G01*
X38110000Y-50820000D01*
G75*
G02*
X38260000Y-50970000I0J-150000D01*
G01*
X38260000Y-51270000D01*
G75*
G02*
X38110000Y-51420000I-150000J0D01*
G01*
X37085000Y-51420000D01*
G75*
G02*
X36935000Y-51270000I0J150000D01*
G01*
G37*
G36*
G01*
X36935000Y-52220000D02*
X36935000Y-51920000D01*
G75*
G02*
X37085000Y-51770000I150000J0D01*
G01*
X38110000Y-51770000D01*
G75*
G02*
X38260000Y-51920000I0J-150000D01*
G01*
X38260000Y-52220000D01*
G75*
G02*
X38110000Y-52370000I-150000J0D01*
G01*
X37085000Y-52370000D01*
G75*
G02*
X36935000Y-52220000I0J150000D01*
G01*
G37*
G36*
G01*
X36935000Y-53170000D02*
X36935000Y-52870000D01*
G75*
G02*
X37085000Y-52720000I150000J0D01*
G01*
X38110000Y-52720000D01*
G75*
G02*
X38260000Y-52870000I0J-150000D01*
G01*
X38260000Y-53170000D01*
G75*
G02*
X38110000Y-53320000I-150000J0D01*
G01*
X37085000Y-53320000D01*
G75*
G02*
X36935000Y-53170000I0J150000D01*
G01*
G37*
%TD*%
D19*
%TO.C,U3*%
X47625000Y-24765000D03*
G36*
G01*
X48675000Y-25577500D02*
X48675000Y-25452500D01*
G75*
G02*
X48737500Y-25390000I62500J0D01*
G01*
X49412500Y-25390000D01*
G75*
G02*
X49475000Y-25452500I0J-62500D01*
G01*
X49475000Y-25577500D01*
G75*
G02*
X49412500Y-25640000I-62500J0D01*
G01*
X48737500Y-25640000D01*
G75*
G02*
X48675000Y-25577500I0J62500D01*
G01*
G37*
G36*
G01*
X48675000Y-25077500D02*
X48675000Y-24952500D01*
G75*
G02*
X48737500Y-24890000I62500J0D01*
G01*
X49412500Y-24890000D01*
G75*
G02*
X49475000Y-24952500I0J-62500D01*
G01*
X49475000Y-25077500D01*
G75*
G02*
X49412500Y-25140000I-62500J0D01*
G01*
X48737500Y-25140000D01*
G75*
G02*
X48675000Y-25077500I0J62500D01*
G01*
G37*
G36*
G01*
X48675000Y-24577500D02*
X48675000Y-24452500D01*
G75*
G02*
X48737500Y-24390000I62500J0D01*
G01*
X49412500Y-24390000D01*
G75*
G02*
X49475000Y-24452500I0J-62500D01*
G01*
X49475000Y-24577500D01*
G75*
G02*
X49412500Y-24640000I-62500J0D01*
G01*
X48737500Y-24640000D01*
G75*
G02*
X48675000Y-24577500I0J62500D01*
G01*
G37*
G36*
G01*
X48675000Y-24077500D02*
X48675000Y-23952500D01*
G75*
G02*
X48737500Y-23890000I62500J0D01*
G01*
X49412500Y-23890000D01*
G75*
G02*
X49475000Y-23952500I0J-62500D01*
G01*
X49475000Y-24077500D01*
G75*
G02*
X49412500Y-24140000I-62500J0D01*
G01*
X48737500Y-24140000D01*
G75*
G02*
X48675000Y-24077500I0J62500D01*
G01*
G37*
G36*
G01*
X45775000Y-24077500D02*
X45775000Y-23952500D01*
G75*
G02*
X45837500Y-23890000I62500J0D01*
G01*
X46512500Y-23890000D01*
G75*
G02*
X46575000Y-23952500I0J-62500D01*
G01*
X46575000Y-24077500D01*
G75*
G02*
X46512500Y-24140000I-62500J0D01*
G01*
X45837500Y-24140000D01*
G75*
G02*
X45775000Y-24077500I0J62500D01*
G01*
G37*
G36*
G01*
X45775000Y-24577500D02*
X45775000Y-24452500D01*
G75*
G02*
X45837500Y-24390000I62500J0D01*
G01*
X46512500Y-24390000D01*
G75*
G02*
X46575000Y-24452500I0J-62500D01*
G01*
X46575000Y-24577500D01*
G75*
G02*
X46512500Y-24640000I-62500J0D01*
G01*
X45837500Y-24640000D01*
G75*
G02*
X45775000Y-24577500I0J62500D01*
G01*
G37*
G36*
G01*
X45775000Y-25077500D02*
X45775000Y-24952500D01*
G75*
G02*
X45837500Y-24890000I62500J0D01*
G01*
X46512500Y-24890000D01*
G75*
G02*
X46575000Y-24952500I0J-62500D01*
G01*
X46575000Y-25077500D01*
G75*
G02*
X46512500Y-25140000I-62500J0D01*
G01*
X45837500Y-25140000D01*
G75*
G02*
X45775000Y-25077500I0J62500D01*
G01*
G37*
G36*
G01*
X45775000Y-25577500D02*
X45775000Y-25452500D01*
G75*
G02*
X45837500Y-25390000I62500J0D01*
G01*
X46512500Y-25390000D01*
G75*
G02*
X46575000Y-25452500I0J-62500D01*
G01*
X46575000Y-25577500D01*
G75*
G02*
X46512500Y-25640000I-62500J0D01*
G01*
X45837500Y-25640000D01*
G75*
G02*
X45775000Y-25577500I0J62500D01*
G01*
G37*
%TD*%
D20*
%TO.C,U2*%
X38100000Y-11430000D03*
G36*
G01*
X35800000Y-10030000D02*
X36500000Y-10030000D01*
G75*
G02*
X36575000Y-10105000I0J-75000D01*
G01*
X36575000Y-10255000D01*
G75*
G02*
X36500000Y-10330000I-75000J0D01*
G01*
X35800000Y-10330000D01*
G75*
G02*
X35725000Y-10255000I0J75000D01*
G01*
X35725000Y-10105000D01*
G75*
G02*
X35800000Y-10030000I75000J0D01*
G01*
G37*
G36*
G01*
X35800000Y-10530000D02*
X36500000Y-10530000D01*
G75*
G02*
X36575000Y-10605000I0J-75000D01*
G01*
X36575000Y-10755000D01*
G75*
G02*
X36500000Y-10830000I-75000J0D01*
G01*
X35800000Y-10830000D01*
G75*
G02*
X35725000Y-10755000I0J75000D01*
G01*
X35725000Y-10605000D01*
G75*
G02*
X35800000Y-10530000I75000J0D01*
G01*
G37*
G36*
G01*
X35800000Y-11030000D02*
X36500000Y-11030000D01*
G75*
G02*
X36575000Y-11105000I0J-75000D01*
G01*
X36575000Y-11255000D01*
G75*
G02*
X36500000Y-11330000I-75000J0D01*
G01*
X35800000Y-11330000D01*
G75*
G02*
X35725000Y-11255000I0J75000D01*
G01*
X35725000Y-11105000D01*
G75*
G02*
X35800000Y-11030000I75000J0D01*
G01*
G37*
G36*
G01*
X35800000Y-11530000D02*
X36500000Y-11530000D01*
G75*
G02*
X36575000Y-11605000I0J-75000D01*
G01*
X36575000Y-11755000D01*
G75*
G02*
X36500000Y-11830000I-75000J0D01*
G01*
X35800000Y-11830000D01*
G75*
G02*
X35725000Y-11755000I0J75000D01*
G01*
X35725000Y-11605000D01*
G75*
G02*
X35800000Y-11530000I75000J0D01*
G01*
G37*
G36*
G01*
X35800000Y-12030000D02*
X36500000Y-12030000D01*
G75*
G02*
X36575000Y-12105000I0J-75000D01*
G01*
X36575000Y-12255000D01*
G75*
G02*
X36500000Y-12330000I-75000J0D01*
G01*
X35800000Y-12330000D01*
G75*
G02*
X35725000Y-12255000I0J75000D01*
G01*
X35725000Y-12105000D01*
G75*
G02*
X35800000Y-12030000I75000J0D01*
G01*
G37*
G36*
G01*
X35800000Y-12530000D02*
X36500000Y-12530000D01*
G75*
G02*
X36575000Y-12605000I0J-75000D01*
G01*
X36575000Y-12755000D01*
G75*
G02*
X36500000Y-12830000I-75000J0D01*
G01*
X35800000Y-12830000D01*
G75*
G02*
X35725000Y-12755000I0J75000D01*
G01*
X35725000Y-12605000D01*
G75*
G02*
X35800000Y-12530000I75000J0D01*
G01*
G37*
G36*
G01*
X36775000Y-12955000D02*
X36925000Y-12955000D01*
G75*
G02*
X37000000Y-13030000I0J-75000D01*
G01*
X37000000Y-13730000D01*
G75*
G02*
X36925000Y-13805000I-75000J0D01*
G01*
X36775000Y-13805000D01*
G75*
G02*
X36700000Y-13730000I0J75000D01*
G01*
X36700000Y-13030000D01*
G75*
G02*
X36775000Y-12955000I75000J0D01*
G01*
G37*
G36*
G01*
X37275000Y-12955000D02*
X37425000Y-12955000D01*
G75*
G02*
X37500000Y-13030000I0J-75000D01*
G01*
X37500000Y-13730000D01*
G75*
G02*
X37425000Y-13805000I-75000J0D01*
G01*
X37275000Y-13805000D01*
G75*
G02*
X37200000Y-13730000I0J75000D01*
G01*
X37200000Y-13030000D01*
G75*
G02*
X37275000Y-12955000I75000J0D01*
G01*
G37*
G36*
G01*
X37775000Y-12955000D02*
X37925000Y-12955000D01*
G75*
G02*
X38000000Y-13030000I0J-75000D01*
G01*
X38000000Y-13730000D01*
G75*
G02*
X37925000Y-13805000I-75000J0D01*
G01*
X37775000Y-13805000D01*
G75*
G02*
X37700000Y-13730000I0J75000D01*
G01*
X37700000Y-13030000D01*
G75*
G02*
X37775000Y-12955000I75000J0D01*
G01*
G37*
G36*
G01*
X38275000Y-12955000D02*
X38425000Y-12955000D01*
G75*
G02*
X38500000Y-13030000I0J-75000D01*
G01*
X38500000Y-13730000D01*
G75*
G02*
X38425000Y-13805000I-75000J0D01*
G01*
X38275000Y-13805000D01*
G75*
G02*
X38200000Y-13730000I0J75000D01*
G01*
X38200000Y-13030000D01*
G75*
G02*
X38275000Y-12955000I75000J0D01*
G01*
G37*
G36*
G01*
X38775000Y-12955000D02*
X38925000Y-12955000D01*
G75*
G02*
X39000000Y-13030000I0J-75000D01*
G01*
X39000000Y-13730000D01*
G75*
G02*
X38925000Y-13805000I-75000J0D01*
G01*
X38775000Y-13805000D01*
G75*
G02*
X38700000Y-13730000I0J75000D01*
G01*
X38700000Y-13030000D01*
G75*
G02*
X38775000Y-12955000I75000J0D01*
G01*
G37*
G36*
G01*
X39275000Y-12955000D02*
X39425000Y-12955000D01*
G75*
G02*
X39500000Y-13030000I0J-75000D01*
G01*
X39500000Y-13730000D01*
G75*
G02*
X39425000Y-13805000I-75000J0D01*
G01*
X39275000Y-13805000D01*
G75*
G02*
X39200000Y-13730000I0J75000D01*
G01*
X39200000Y-13030000D01*
G75*
G02*
X39275000Y-12955000I75000J0D01*
G01*
G37*
G36*
G01*
X39700000Y-12530000D02*
X40400000Y-12530000D01*
G75*
G02*
X40475000Y-12605000I0J-75000D01*
G01*
X40475000Y-12755000D01*
G75*
G02*
X40400000Y-12830000I-75000J0D01*
G01*
X39700000Y-12830000D01*
G75*
G02*
X39625000Y-12755000I0J75000D01*
G01*
X39625000Y-12605000D01*
G75*
G02*
X39700000Y-12530000I75000J0D01*
G01*
G37*
G36*
G01*
X39700000Y-12030000D02*
X40400000Y-12030000D01*
G75*
G02*
X40475000Y-12105000I0J-75000D01*
G01*
X40475000Y-12255000D01*
G75*
G02*
X40400000Y-12330000I-75000J0D01*
G01*
X39700000Y-12330000D01*
G75*
G02*
X39625000Y-12255000I0J75000D01*
G01*
X39625000Y-12105000D01*
G75*
G02*
X39700000Y-12030000I75000J0D01*
G01*
G37*
G36*
G01*
X39700000Y-11530000D02*
X40400000Y-11530000D01*
G75*
G02*
X40475000Y-11605000I0J-75000D01*
G01*
X40475000Y-11755000D01*
G75*
G02*
X40400000Y-11830000I-75000J0D01*
G01*
X39700000Y-11830000D01*
G75*
G02*
X39625000Y-11755000I0J75000D01*
G01*
X39625000Y-11605000D01*
G75*
G02*
X39700000Y-11530000I75000J0D01*
G01*
G37*
G36*
G01*
X39700000Y-11030000D02*
X40400000Y-11030000D01*
G75*
G02*
X40475000Y-11105000I0J-75000D01*
G01*
X40475000Y-11255000D01*
G75*
G02*
X40400000Y-11330000I-75000J0D01*
G01*
X39700000Y-11330000D01*
G75*
G02*
X39625000Y-11255000I0J75000D01*
G01*
X39625000Y-11105000D01*
G75*
G02*
X39700000Y-11030000I75000J0D01*
G01*
G37*
G36*
G01*
X39700000Y-10530000D02*
X40400000Y-10530000D01*
G75*
G02*
X40475000Y-10605000I0J-75000D01*
G01*
X40475000Y-10755000D01*
G75*
G02*
X40400000Y-10830000I-75000J0D01*
G01*
X39700000Y-10830000D01*
G75*
G02*
X39625000Y-10755000I0J75000D01*
G01*
X39625000Y-10605000D01*
G75*
G02*
X39700000Y-10530000I75000J0D01*
G01*
G37*
G36*
G01*
X39700000Y-10030000D02*
X40400000Y-10030000D01*
G75*
G02*
X40475000Y-10105000I0J-75000D01*
G01*
X40475000Y-10255000D01*
G75*
G02*
X40400000Y-10330000I-75000J0D01*
G01*
X39700000Y-10330000D01*
G75*
G02*
X39625000Y-10255000I0J75000D01*
G01*
X39625000Y-10105000D01*
G75*
G02*
X39700000Y-10030000I75000J0D01*
G01*
G37*
G36*
G01*
X39275000Y-9055000D02*
X39425000Y-9055000D01*
G75*
G02*
X39500000Y-9130000I0J-75000D01*
G01*
X39500000Y-9830000D01*
G75*
G02*
X39425000Y-9905000I-75000J0D01*
G01*
X39275000Y-9905000D01*
G75*
G02*
X39200000Y-9830000I0J75000D01*
G01*
X39200000Y-9130000D01*
G75*
G02*
X39275000Y-9055000I75000J0D01*
G01*
G37*
G36*
G01*
X38775000Y-9055000D02*
X38925000Y-9055000D01*
G75*
G02*
X39000000Y-9130000I0J-75000D01*
G01*
X39000000Y-9830000D01*
G75*
G02*
X38925000Y-9905000I-75000J0D01*
G01*
X38775000Y-9905000D01*
G75*
G02*
X38700000Y-9830000I0J75000D01*
G01*
X38700000Y-9130000D01*
G75*
G02*
X38775000Y-9055000I75000J0D01*
G01*
G37*
G36*
G01*
X38275000Y-9055000D02*
X38425000Y-9055000D01*
G75*
G02*
X38500000Y-9130000I0J-75000D01*
G01*
X38500000Y-9830000D01*
G75*
G02*
X38425000Y-9905000I-75000J0D01*
G01*
X38275000Y-9905000D01*
G75*
G02*
X38200000Y-9830000I0J75000D01*
G01*
X38200000Y-9130000D01*
G75*
G02*
X38275000Y-9055000I75000J0D01*
G01*
G37*
G36*
G01*
X37775000Y-9055000D02*
X37925000Y-9055000D01*
G75*
G02*
X38000000Y-9130000I0J-75000D01*
G01*
X38000000Y-9830000D01*
G75*
G02*
X37925000Y-9905000I-75000J0D01*
G01*
X37775000Y-9905000D01*
G75*
G02*
X37700000Y-9830000I0J75000D01*
G01*
X37700000Y-9130000D01*
G75*
G02*
X37775000Y-9055000I75000J0D01*
G01*
G37*
G36*
G01*
X37275000Y-9055000D02*
X37425000Y-9055000D01*
G75*
G02*
X37500000Y-9130000I0J-75000D01*
G01*
X37500000Y-9830000D01*
G75*
G02*
X37425000Y-9905000I-75000J0D01*
G01*
X37275000Y-9905000D01*
G75*
G02*
X37200000Y-9830000I0J75000D01*
G01*
X37200000Y-9130000D01*
G75*
G02*
X37275000Y-9055000I75000J0D01*
G01*
G37*
G36*
G01*
X36775000Y-9055000D02*
X36925000Y-9055000D01*
G75*
G02*
X37000000Y-9130000I0J-75000D01*
G01*
X37000000Y-9830000D01*
G75*
G02*
X36925000Y-9905000I-75000J0D01*
G01*
X36775000Y-9905000D01*
G75*
G02*
X36700000Y-9830000I0J75000D01*
G01*
X36700000Y-9130000D01*
G75*
G02*
X36775000Y-9055000I75000J0D01*
G01*
G37*
%TD*%
%TO.C,TH1*%
G36*
G01*
X205924999Y-36595000D02*
X206825001Y-36595000D01*
G75*
G02*
X207075000Y-36844999I0J-249999D01*
G01*
X207075000Y-37370001D01*
G75*
G02*
X206825001Y-37620000I-249999J0D01*
G01*
X205924999Y-37620000D01*
G75*
G02*
X205675000Y-37370001I0J249999D01*
G01*
X205675000Y-36844999D01*
G75*
G02*
X205924999Y-36595000I249999J0D01*
G01*
G37*
G36*
G01*
X205924999Y-34770000D02*
X206825001Y-34770000D01*
G75*
G02*
X207075000Y-35019999I0J-249999D01*
G01*
X207075000Y-35545001D01*
G75*
G02*
X206825001Y-35795000I-249999J0D01*
G01*
X205924999Y-35795000D01*
G75*
G02*
X205675000Y-35545001I0J249999D01*
G01*
X205675000Y-35019999D01*
G75*
G02*
X205924999Y-34770000I249999J0D01*
G01*
G37*
%TD*%
D21*
%TO.C,SW1*%
X29210000Y-46895000D03*
D22*
X29210000Y-48895000D03*
X29210000Y-50895000D03*
D23*
X29210000Y-44795000D03*
X29210000Y-52995000D03*
%TD*%
%TO.C,R9*%
G36*
G01*
X51250001Y-24365000D02*
X50349999Y-24365000D01*
G75*
G02*
X50100000Y-24115001I0J249999D01*
G01*
X50100000Y-23589999D01*
G75*
G02*
X50349999Y-23340000I249999J0D01*
G01*
X51250001Y-23340000D01*
G75*
G02*
X51500000Y-23589999I0J-249999D01*
G01*
X51500000Y-24115001D01*
G75*
G02*
X51250001Y-24365000I-249999J0D01*
G01*
G37*
G36*
G01*
X51250001Y-26190000D02*
X50349999Y-26190000D01*
G75*
G02*
X50100000Y-25940001I0J249999D01*
G01*
X50100000Y-25414999D01*
G75*
G02*
X50349999Y-25165000I249999J0D01*
G01*
X51250001Y-25165000D01*
G75*
G02*
X51500000Y-25414999I0J-249999D01*
G01*
X51500000Y-25940001D01*
G75*
G02*
X51250001Y-26190000I-249999J0D01*
G01*
G37*
%TD*%
%TO.C,R8*%
G36*
G01*
X44215000Y-14420001D02*
X44215000Y-13519999D01*
G75*
G02*
X44464999Y-13270000I249999J0D01*
G01*
X44990001Y-13270000D01*
G75*
G02*
X45240000Y-13519999I0J-249999D01*
G01*
X45240000Y-14420001D01*
G75*
G02*
X44990001Y-14670000I-249999J0D01*
G01*
X44464999Y-14670000D01*
G75*
G02*
X44215000Y-14420001I0J249999D01*
G01*
G37*
G36*
G01*
X42390000Y-14420001D02*
X42390000Y-13519999D01*
G75*
G02*
X42639999Y-13270000I249999J0D01*
G01*
X43165001Y-13270000D01*
G75*
G02*
X43415000Y-13519999I0J-249999D01*
G01*
X43415000Y-14420001D01*
G75*
G02*
X43165001Y-14670000I-249999J0D01*
G01*
X42639999Y-14670000D01*
G75*
G02*
X42390000Y-14420001I0J249999D01*
G01*
G37*
%TD*%
%TO.C,R7*%
G36*
G01*
X43415000Y-11614999D02*
X43415000Y-12515001D01*
G75*
G02*
X43165001Y-12765000I-249999J0D01*
G01*
X42639999Y-12765000D01*
G75*
G02*
X42390000Y-12515001I0J249999D01*
G01*
X42390000Y-11614999D01*
G75*
G02*
X42639999Y-11365000I249999J0D01*
G01*
X43165001Y-11365000D01*
G75*
G02*
X43415000Y-11614999I0J-249999D01*
G01*
G37*
G36*
G01*
X45240000Y-11614999D02*
X45240000Y-12515001D01*
G75*
G02*
X44990001Y-12765000I-249999J0D01*
G01*
X44464999Y-12765000D01*
G75*
G02*
X44215000Y-12515001I0J249999D01*
G01*
X44215000Y-11614999D01*
G75*
G02*
X44464999Y-11365000I249999J0D01*
G01*
X44990001Y-11365000D01*
G75*
G02*
X45240000Y-11614999I0J-249999D01*
G01*
G37*
%TD*%
%TO.C,R6*%
G36*
G01*
X29445000Y-1454999D02*
X29445000Y-2355001D01*
G75*
G02*
X29195001Y-2605000I-249999J0D01*
G01*
X28669999Y-2605000D01*
G75*
G02*
X28420000Y-2355001I0J249999D01*
G01*
X28420000Y-1454999D01*
G75*
G02*
X28669999Y-1205000I249999J0D01*
G01*
X29195001Y-1205000D01*
G75*
G02*
X29445000Y-1454999I0J-249999D01*
G01*
G37*
G36*
G01*
X31270000Y-1454999D02*
X31270000Y-2355001D01*
G75*
G02*
X31020001Y-2605000I-249999J0D01*
G01*
X30494999Y-2605000D01*
G75*
G02*
X30245000Y-2355001I0J249999D01*
G01*
X30245000Y-1454999D01*
G75*
G02*
X30494999Y-1205000I249999J0D01*
G01*
X31020001Y-1205000D01*
G75*
G02*
X31270000Y-1454999I0J-249999D01*
G01*
G37*
%TD*%
%TO.C,R5*%
G36*
G01*
X14370000Y-13785001D02*
X14370000Y-12884999D01*
G75*
G02*
X14619999Y-12635000I249999J0D01*
G01*
X15145001Y-12635000D01*
G75*
G02*
X15395000Y-12884999I0J-249999D01*
G01*
X15395000Y-13785001D01*
G75*
G02*
X15145001Y-14035000I-249999J0D01*
G01*
X14619999Y-14035000D01*
G75*
G02*
X14370000Y-13785001I0J249999D01*
G01*
G37*
G36*
G01*
X12545000Y-13785001D02*
X12545000Y-12884999D01*
G75*
G02*
X12794999Y-12635000I249999J0D01*
G01*
X13320001Y-12635000D01*
G75*
G02*
X13570000Y-12884999I0J-249999D01*
G01*
X13570000Y-13785001D01*
G75*
G02*
X13320001Y-14035000I-249999J0D01*
G01*
X12794999Y-14035000D01*
G75*
G02*
X12545000Y-13785001I0J249999D01*
G01*
G37*
%TD*%
%TO.C,R3*%
G36*
G01*
X94850000Y-68764999D02*
X94850000Y-69665001D01*
G75*
G02*
X94600001Y-69915000I-249999J0D01*
G01*
X94074999Y-69915000D01*
G75*
G02*
X93825000Y-69665001I0J249999D01*
G01*
X93825000Y-68764999D01*
G75*
G02*
X94074999Y-68515000I249999J0D01*
G01*
X94600001Y-68515000D01*
G75*
G02*
X94850000Y-68764999I0J-249999D01*
G01*
G37*
G36*
G01*
X96675000Y-68764999D02*
X96675000Y-69665001D01*
G75*
G02*
X96425001Y-69915000I-249999J0D01*
G01*
X95899999Y-69915000D01*
G75*
G02*
X95650000Y-69665001I0J249999D01*
G01*
X95650000Y-68764999D01*
G75*
G02*
X95899999Y-68515000I249999J0D01*
G01*
X96425001Y-68515000D01*
G75*
G02*
X96675000Y-68764999I0J-249999D01*
G01*
G37*
%TD*%
D24*
%TO.C,Q2*%
X36860000Y-33020000D03*
X36860000Y-33970000D03*
X36860000Y-32070000D03*
X34260000Y-32070000D03*
X34260000Y-33020000D03*
X34260000Y-33970000D03*
%TD*%
%TO.C,LED1*%
G36*
G01*
X25585000Y-1448750D02*
X25585000Y-2361250D01*
G75*
G02*
X25341250Y-2605000I-243750J0D01*
G01*
X24853750Y-2605000D01*
G75*
G02*
X24610000Y-2361250I0J243750D01*
G01*
X24610000Y-1448750D01*
G75*
G02*
X24853750Y-1205000I243750J0D01*
G01*
X25341250Y-1205000D01*
G75*
G02*
X25585000Y-1448750I0J-243750D01*
G01*
G37*
G36*
G01*
X27460000Y-1448750D02*
X27460000Y-2361250D01*
G75*
G02*
X27216250Y-2605000I-243750J0D01*
G01*
X26728750Y-2605000D01*
G75*
G02*
X26485000Y-2361250I0J243750D01*
G01*
X26485000Y-1448750D01*
G75*
G02*
X26728750Y-1205000I243750J0D01*
G01*
X27216250Y-1205000D01*
G75*
G02*
X27460000Y-1448750I0J-243750D01*
G01*
G37*
%TD*%
D25*
%TO.C,L1*%
X32385000Y-15495000D03*
X32385000Y-12445000D03*
%TD*%
%TO.C,J6*%
G36*
G01*
X210705000Y-38320000D02*
X213205000Y-38320000D01*
G75*
G02*
X213455000Y-38570000I0J-250000D01*
G01*
X213455000Y-40170000D01*
G75*
G02*
X213205000Y-40420000I-250000J0D01*
G01*
X210705000Y-40420000D01*
G75*
G02*
X210455000Y-40170000I0J250000D01*
G01*
X210455000Y-38570000D01*
G75*
G02*
X210705000Y-38320000I250000J0D01*
G01*
G37*
G36*
G01*
X210705000Y-31970000D02*
X213205000Y-31970000D01*
G75*
G02*
X213455000Y-32220000I0J-250000D01*
G01*
X213455000Y-33820000D01*
G75*
G02*
X213205000Y-34070000I-250000J0D01*
G01*
X210705000Y-34070000D01*
G75*
G02*
X210455000Y-33820000I0J250000D01*
G01*
X210455000Y-32220000D01*
G75*
G02*
X210705000Y-31970000I250000J0D01*
G01*
G37*
G36*
G01*
X208455000Y-36420000D02*
X209655000Y-36420000D01*
G75*
G02*
X209855000Y-36620000I0J-200000D01*
G01*
X209855000Y-37020000D01*
G75*
G02*
X209655000Y-37220000I-200000J0D01*
G01*
X208455000Y-37220000D01*
G75*
G02*
X208255000Y-37020000I0J200000D01*
G01*
X208255000Y-36620000D01*
G75*
G02*
X208455000Y-36420000I200000J0D01*
G01*
G37*
G36*
G01*
X208455000Y-35170000D02*
X209655000Y-35170000D01*
G75*
G02*
X209855000Y-35370000I0J-200000D01*
G01*
X209855000Y-35770000D01*
G75*
G02*
X209655000Y-35970000I-200000J0D01*
G01*
X208455000Y-35970000D01*
G75*
G02*
X208255000Y-35770000I0J200000D01*
G01*
X208255000Y-35370000D01*
G75*
G02*
X208455000Y-35170000I200000J0D01*
G01*
G37*
%TD*%
D26*
%TO.C,F1*%
X123825000Y-31760000D03*
X123825000Y-25390000D03*
%TD*%
D27*
%TO.C,D34*%
X31750000Y-31370000D03*
X31750000Y-34670000D03*
%TD*%
D28*
%TO.C,D31*%
X209550000Y-82280000D03*
X210500000Y-80280000D03*
X208600000Y-80280000D03*
%TD*%
%TO.C,C13*%
G36*
G01*
X43020000Y-51620000D02*
X42070000Y-51620000D01*
G75*
G02*
X41820000Y-51370000I0J250000D01*
G01*
X41820000Y-50870000D01*
G75*
G02*
X42070000Y-50620000I250000J0D01*
G01*
X43020000Y-50620000D01*
G75*
G02*
X43270000Y-50870000I0J-250000D01*
G01*
X43270000Y-51370000D01*
G75*
G02*
X43020000Y-51620000I-250000J0D01*
G01*
G37*
G36*
G01*
X43020000Y-53520000D02*
X42070000Y-53520000D01*
G75*
G02*
X41820000Y-53270000I0J250000D01*
G01*
X41820000Y-52770000D01*
G75*
G02*
X42070000Y-52520000I250000J0D01*
G01*
X43020000Y-52520000D01*
G75*
G02*
X43270000Y-52770000I0J-250000D01*
G01*
X43270000Y-53270000D01*
G75*
G02*
X43020000Y-53520000I-250000J0D01*
G01*
G37*
%TD*%
%TO.C,C12*%
G36*
G01*
X35400000Y-53520000D02*
X34450000Y-53520000D01*
G75*
G02*
X34200000Y-53270000I0J250000D01*
G01*
X34200000Y-52770000D01*
G75*
G02*
X34450000Y-52520000I250000J0D01*
G01*
X35400000Y-52520000D01*
G75*
G02*
X35650000Y-52770000I0J-250000D01*
G01*
X35650000Y-53270000D01*
G75*
G02*
X35400000Y-53520000I-250000J0D01*
G01*
G37*
G36*
G01*
X35400000Y-51620000D02*
X34450000Y-51620000D01*
G75*
G02*
X34200000Y-51370000I0J250000D01*
G01*
X34200000Y-50870000D01*
G75*
G02*
X34450000Y-50620000I250000J0D01*
G01*
X35400000Y-50620000D01*
G75*
G02*
X35650000Y-50870000I0J-250000D01*
G01*
X35650000Y-51370000D01*
G75*
G02*
X35400000Y-51620000I-250000J0D01*
G01*
G37*
%TD*%
%TO.C,C11*%
G36*
G01*
X43340000Y-23310000D02*
X44290000Y-23310000D01*
G75*
G02*
X44540000Y-23560000I0J-250000D01*
G01*
X44540000Y-24060000D01*
G75*
G02*
X44290000Y-24310000I-250000J0D01*
G01*
X43340000Y-24310000D01*
G75*
G02*
X43090000Y-24060000I0J250000D01*
G01*
X43090000Y-23560000D01*
G75*
G02*
X43340000Y-23310000I250000J0D01*
G01*
G37*
G36*
G01*
X43340000Y-21410000D02*
X44290000Y-21410000D01*
G75*
G02*
X44540000Y-21660000I0J-250000D01*
G01*
X44540000Y-22160000D01*
G75*
G02*
X44290000Y-22410000I-250000J0D01*
G01*
X43340000Y-22410000D01*
G75*
G02*
X43090000Y-22160000I0J250000D01*
G01*
X43090000Y-21660000D01*
G75*
G02*
X43340000Y-21410000I250000J0D01*
G01*
G37*
%TD*%
%TO.C,C8*%
G36*
G01*
X23970000Y-11742000D02*
X23020000Y-11742000D01*
G75*
G02*
X22770000Y-11492000I0J250000D01*
G01*
X22770000Y-10992000D01*
G75*
G02*
X23020000Y-10742000I250000J0D01*
G01*
X23970000Y-10742000D01*
G75*
G02*
X24220000Y-10992000I0J-250000D01*
G01*
X24220000Y-11492000D01*
G75*
G02*
X23970000Y-11742000I-250000J0D01*
G01*
G37*
G36*
G01*
X23970000Y-13642000D02*
X23020000Y-13642000D01*
G75*
G02*
X22770000Y-13392000I0J250000D01*
G01*
X22770000Y-12892000D01*
G75*
G02*
X23020000Y-12642000I250000J0D01*
G01*
X23970000Y-12642000D01*
G75*
G02*
X24220000Y-12892000I0J-250000D01*
G01*
X24220000Y-13392000D01*
G75*
G02*
X23970000Y-13642000I-250000J0D01*
G01*
G37*
%TD*%
%TO.C,C7*%
G36*
G01*
X27490000Y-12225000D02*
X27490000Y-13175000D01*
G75*
G02*
X27240000Y-13425000I-250000J0D01*
G01*
X26740000Y-13425000D01*
G75*
G02*
X26490000Y-13175000I0J250000D01*
G01*
X26490000Y-12225000D01*
G75*
G02*
X26740000Y-11975000I250000J0D01*
G01*
X27240000Y-11975000D01*
G75*
G02*
X27490000Y-12225000I0J-250000D01*
G01*
G37*
G36*
G01*
X29390000Y-12225000D02*
X29390000Y-13175000D01*
G75*
G02*
X29140000Y-13425000I-250000J0D01*
G01*
X28640000Y-13425000D01*
G75*
G02*
X28390000Y-13175000I0J250000D01*
G01*
X28390000Y-12225000D01*
G75*
G02*
X28640000Y-11975000I250000J0D01*
G01*
X29140000Y-11975000D01*
G75*
G02*
X29390000Y-12225000I0J-250000D01*
G01*
G37*
%TD*%
%TO.C,C5*%
G36*
G01*
X28390000Y-15715000D02*
X28390000Y-14765000D01*
G75*
G02*
X28640000Y-14515000I250000J0D01*
G01*
X29140000Y-14515000D01*
G75*
G02*
X29390000Y-14765000I0J-250000D01*
G01*
X29390000Y-15715000D01*
G75*
G02*
X29140000Y-15965000I-250000J0D01*
G01*
X28640000Y-15965000D01*
G75*
G02*
X28390000Y-15715000I0J250000D01*
G01*
G37*
G36*
G01*
X26490000Y-15715000D02*
X26490000Y-14765000D01*
G75*
G02*
X26740000Y-14515000I250000J0D01*
G01*
X27240000Y-14515000D01*
G75*
G02*
X27490000Y-14765000I0J-250000D01*
G01*
X27490000Y-15715000D01*
G75*
G02*
X27240000Y-15965000I-250000J0D01*
G01*
X26740000Y-15965000D01*
G75*
G02*
X26490000Y-15715000I0J250000D01*
G01*
G37*
%TD*%
D29*
%TO.C,J3*%
X21665000Y-6585000D03*
X20865000Y-6585000D03*
X15965000Y-6585000D03*
X15165000Y-6585000D03*
X15165000Y-6585000D03*
X15965000Y-6585000D03*
X20865000Y-6585000D03*
X21665000Y-6585000D03*
D30*
X16665000Y-6585000D03*
X17165000Y-6585000D03*
X17665000Y-6585000D03*
X18665000Y-6585000D03*
X19165000Y-6585000D03*
X19665000Y-6585000D03*
X20165000Y-6585000D03*
X18165000Y-6585000D03*
D31*
X22735000Y-5670000D03*
X14095000Y-5670000D03*
D32*
X15525000Y-5140000D03*
D33*
X14095000Y-1490000D03*
D32*
X21305000Y-5140000D03*
D33*
X22735000Y-1490000D03*
%TD*%
D28*
%TO.C,Q1*%
X95250000Y-65040000D03*
X94300000Y-67040000D03*
X96200000Y-67040000D03*
%TD*%
%TO.C,J5*%
G36*
G01*
X172605000Y-38320000D02*
X175105000Y-38320000D01*
G75*
G02*
X175355000Y-38570000I0J-250000D01*
G01*
X175355000Y-40170000D01*
G75*
G02*
X175105000Y-40420000I-250000J0D01*
G01*
X172605000Y-40420000D01*
G75*
G02*
X172355000Y-40170000I0J250000D01*
G01*
X172355000Y-38570000D01*
G75*
G02*
X172605000Y-38320000I250000J0D01*
G01*
G37*
G36*
G01*
X172605000Y-31970000D02*
X175105000Y-31970000D01*
G75*
G02*
X175355000Y-32220000I0J-250000D01*
G01*
X175355000Y-33820000D01*
G75*
G02*
X175105000Y-34070000I-250000J0D01*
G01*
X172605000Y-34070000D01*
G75*
G02*
X172355000Y-33820000I0J250000D01*
G01*
X172355000Y-32220000D01*
G75*
G02*
X172605000Y-31970000I250000J0D01*
G01*
G37*
G36*
G01*
X170355000Y-36420000D02*
X171555000Y-36420000D01*
G75*
G02*
X171755000Y-36620000I0J-200000D01*
G01*
X171755000Y-37020000D01*
G75*
G02*
X171555000Y-37220000I-200000J0D01*
G01*
X170355000Y-37220000D01*
G75*
G02*
X170155000Y-37020000I0J200000D01*
G01*
X170155000Y-36620000D01*
G75*
G02*
X170355000Y-36420000I200000J0D01*
G01*
G37*
G36*
G01*
X170355000Y-35170000D02*
X171555000Y-35170000D01*
G75*
G02*
X171755000Y-35370000I0J-200000D01*
G01*
X171755000Y-35770000D01*
G75*
G02*
X171555000Y-35970000I-200000J0D01*
G01*
X170355000Y-35970000D01*
G75*
G02*
X170155000Y-35770000I0J200000D01*
G01*
X170155000Y-35370000D01*
G75*
G02*
X170355000Y-35170000I200000J0D01*
G01*
G37*
%TD*%
%TO.C,J4*%
G36*
G01*
X137975000Y-38795000D02*
X140875000Y-38795000D01*
G75*
G02*
X141125000Y-39045000I0J-250000D01*
G01*
X141125000Y-40045000D01*
G75*
G02*
X140875000Y-40295000I-250000J0D01*
G01*
X137975000Y-40295000D01*
G75*
G02*
X137725000Y-40045000I0J250000D01*
G01*
X137725000Y-39045000D01*
G75*
G02*
X137975000Y-38795000I250000J0D01*
G01*
G37*
G36*
G01*
X137975000Y-32095000D02*
X140875000Y-32095000D01*
G75*
G02*
X141125000Y-32345000I0J-250000D01*
G01*
X141125000Y-33345000D01*
G75*
G02*
X140875000Y-33595000I-250000J0D01*
G01*
X137975000Y-33595000D01*
G75*
G02*
X137725000Y-33345000I0J250000D01*
G01*
X137725000Y-32345000D01*
G75*
G02*
X137975000Y-32095000I250000J0D01*
G01*
G37*
G36*
G01*
X132175000Y-36695000D02*
X135175000Y-36695000D01*
G75*
G02*
X135425000Y-36945000I0J-250000D01*
G01*
X135425000Y-37445000D01*
G75*
G02*
X135175000Y-37695000I-250000J0D01*
G01*
X132175000Y-37695000D01*
G75*
G02*
X131925000Y-37445000I0J250000D01*
G01*
X131925000Y-36945000D01*
G75*
G02*
X132175000Y-36695000I250000J0D01*
G01*
G37*
G36*
G01*
X132175000Y-34695000D02*
X135175000Y-34695000D01*
G75*
G02*
X135425000Y-34945000I0J-250000D01*
G01*
X135425000Y-35445000D01*
G75*
G02*
X135175000Y-35695000I-250000J0D01*
G01*
X132175000Y-35695000D01*
G75*
G02*
X131925000Y-35445000I0J250000D01*
G01*
X131925000Y-34945000D01*
G75*
G02*
X132175000Y-34695000I250000J0D01*
G01*
G37*
%TD*%
D34*
%TO.C,Y1*%
X107930000Y-71120000D03*
X105430000Y-71120000D03*
%TD*%
%TO.C,R2*%
G36*
G01*
X93529999Y-62630000D02*
X94430001Y-62630000D01*
G75*
G02*
X94680000Y-62879999I0J-249999D01*
G01*
X94680000Y-63405001D01*
G75*
G02*
X94430001Y-63655000I-249999J0D01*
G01*
X93529999Y-63655000D01*
G75*
G02*
X93280000Y-63405001I0J249999D01*
G01*
X93280000Y-62879999D01*
G75*
G02*
X93529999Y-62630000I249999J0D01*
G01*
G37*
G36*
G01*
X93529999Y-60805000D02*
X94430001Y-60805000D01*
G75*
G02*
X94680000Y-61054999I0J-249999D01*
G01*
X94680000Y-61580001D01*
G75*
G02*
X94430001Y-61830000I-249999J0D01*
G01*
X93529999Y-61830000D01*
G75*
G02*
X93280000Y-61580001I0J249999D01*
G01*
X93280000Y-61054999D01*
G75*
G02*
X93529999Y-60805000I249999J0D01*
G01*
G37*
%TD*%
%TO.C,R1*%
G36*
G01*
X96970001Y-61830000D02*
X96069999Y-61830000D01*
G75*
G02*
X95820000Y-61580001I0J249999D01*
G01*
X95820000Y-61054999D01*
G75*
G02*
X96069999Y-60805000I249999J0D01*
G01*
X96970001Y-60805000D01*
G75*
G02*
X97220000Y-61054999I0J-249999D01*
G01*
X97220000Y-61580001D01*
G75*
G02*
X96970001Y-61830000I-249999J0D01*
G01*
G37*
G36*
G01*
X96970001Y-63655000D02*
X96069999Y-63655000D01*
G75*
G02*
X95820000Y-63405001I0J249999D01*
G01*
X95820000Y-62879999D01*
G75*
G02*
X96069999Y-62630000I249999J0D01*
G01*
X96970001Y-62630000D01*
G75*
G02*
X97220000Y-62879999I0J-249999D01*
G01*
X97220000Y-63405001D01*
G75*
G02*
X96970001Y-63655000I-249999J0D01*
G01*
G37*
%TD*%
%TO.C,R4*%
G36*
G01*
X9760000Y-12884999D02*
X9760000Y-13785001D01*
G75*
G02*
X9510001Y-14035000I-249999J0D01*
G01*
X8984999Y-14035000D01*
G75*
G02*
X8735000Y-13785001I0J249999D01*
G01*
X8735000Y-12884999D01*
G75*
G02*
X8984999Y-12635000I249999J0D01*
G01*
X9510001Y-12635000D01*
G75*
G02*
X9760000Y-12884999I0J-249999D01*
G01*
G37*
G36*
G01*
X11585000Y-12884999D02*
X11585000Y-13785001D01*
G75*
G02*
X11335001Y-14035000I-249999J0D01*
G01*
X10809999Y-14035000D01*
G75*
G02*
X10560000Y-13785001I0J249999D01*
G01*
X10560000Y-12884999D01*
G75*
G02*
X10809999Y-12635000I249999J0D01*
G01*
X11335001Y-12635000D01*
G75*
G02*
X11585000Y-12884999I0J-249999D01*
G01*
G37*
%TD*%
%TO.C,C4*%
G36*
G01*
X118585000Y-71305000D02*
X117635000Y-71305000D01*
G75*
G02*
X117385000Y-71055000I0J250000D01*
G01*
X117385000Y-70555000D01*
G75*
G02*
X117635000Y-70305000I250000J0D01*
G01*
X118585000Y-70305000D01*
G75*
G02*
X118835000Y-70555000I0J-250000D01*
G01*
X118835000Y-71055000D01*
G75*
G02*
X118585000Y-71305000I-250000J0D01*
G01*
G37*
G36*
G01*
X118585000Y-73205000D02*
X117635000Y-73205000D01*
G75*
G02*
X117385000Y-72955000I0J250000D01*
G01*
X117385000Y-72455000D01*
G75*
G02*
X117635000Y-72205000I250000J0D01*
G01*
X118585000Y-72205000D01*
G75*
G02*
X118835000Y-72455000I0J-250000D01*
G01*
X118835000Y-72955000D01*
G75*
G02*
X118585000Y-73205000I-250000J0D01*
G01*
G37*
%TD*%
%TO.C,C3*%
G36*
G01*
X121125000Y-71305000D02*
X120175000Y-71305000D01*
G75*
G02*
X119925000Y-71055000I0J250000D01*
G01*
X119925000Y-70555000D01*
G75*
G02*
X120175000Y-70305000I250000J0D01*
G01*
X121125000Y-70305000D01*
G75*
G02*
X121375000Y-70555000I0J-250000D01*
G01*
X121375000Y-71055000D01*
G75*
G02*
X121125000Y-71305000I-250000J0D01*
G01*
G37*
G36*
G01*
X121125000Y-73205000D02*
X120175000Y-73205000D01*
G75*
G02*
X119925000Y-72955000I0J250000D01*
G01*
X119925000Y-72455000D01*
G75*
G02*
X120175000Y-72205000I250000J0D01*
G01*
X121125000Y-72205000D01*
G75*
G02*
X121375000Y-72455000I0J-250000D01*
G01*
X121375000Y-72955000D01*
G75*
G02*
X121125000Y-73205000I-250000J0D01*
G01*
G37*
%TD*%
%TO.C,C2*%
G36*
G01*
X109380000Y-71570000D02*
X110330000Y-71570000D01*
G75*
G02*
X110580000Y-71820000I0J-250000D01*
G01*
X110580000Y-72320000D01*
G75*
G02*
X110330000Y-72570000I-250000J0D01*
G01*
X109380000Y-72570000D01*
G75*
G02*
X109130000Y-72320000I0J250000D01*
G01*
X109130000Y-71820000D01*
G75*
G02*
X109380000Y-71570000I250000J0D01*
G01*
G37*
G36*
G01*
X109380000Y-69670000D02*
X110330000Y-69670000D01*
G75*
G02*
X110580000Y-69920000I0J-250000D01*
G01*
X110580000Y-70420000D01*
G75*
G02*
X110330000Y-70670000I-250000J0D01*
G01*
X109380000Y-70670000D01*
G75*
G02*
X109130000Y-70420000I0J250000D01*
G01*
X109130000Y-69920000D01*
G75*
G02*
X109380000Y-69670000I250000J0D01*
G01*
G37*
%TD*%
%TO.C,C1*%
G36*
G01*
X103980000Y-70670000D02*
X103030000Y-70670000D01*
G75*
G02*
X102780000Y-70420000I0J250000D01*
G01*
X102780000Y-69920000D01*
G75*
G02*
X103030000Y-69670000I250000J0D01*
G01*
X103980000Y-69670000D01*
G75*
G02*
X104230000Y-69920000I0J-250000D01*
G01*
X104230000Y-70420000D01*
G75*
G02*
X103980000Y-70670000I-250000J0D01*
G01*
G37*
G36*
G01*
X103980000Y-72570000D02*
X103030000Y-72570000D01*
G75*
G02*
X102780000Y-72320000I0J250000D01*
G01*
X102780000Y-71820000D01*
G75*
G02*
X103030000Y-71570000I250000J0D01*
G01*
X103980000Y-71570000D01*
G75*
G02*
X104230000Y-71820000I0J-250000D01*
G01*
X104230000Y-72320000D01*
G75*
G02*
X103980000Y-72570000I-250000J0D01*
G01*
G37*
%TD*%
D35*
%TO.C,MK6*%
X190500000Y-85725000D03*
%TD*%
D36*
%TO.C,MK5*%
X283845000Y-57150000D03*
%TD*%
D35*
%TO.C,MK2*%
X260350000Y-28575000D03*
%TD*%
%TO.C,MK3*%
X128587500Y-47625000D03*
%TD*%
D36*
%TO.C,MK4*%
X635000Y-57150000D03*
%TD*%
D35*
%TO.C,MK1*%
X25400000Y-28575000D03*
%TD*%
D28*
%TO.C,D1*%
X27940000Y-6080000D03*
X28890000Y-4080000D03*
X26990000Y-4080000D03*
%TD*%
D37*
%TO.C,U1*%
X120755000Y-88910000D03*
X120755000Y-88110000D03*
X119955000Y-88110000D03*
X120755000Y-87310000D03*
X119955000Y-87310000D03*
X120755000Y-86510000D03*
X119955000Y-86510000D03*
X120755000Y-85710000D03*
X119955000Y-85710000D03*
X120755000Y-84910000D03*
X119955000Y-84910000D03*
X120755000Y-84110000D03*
X119955000Y-84110000D03*
X120755000Y-83310000D03*
X119955000Y-83310000D03*
X120755000Y-82510000D03*
X119955000Y-82510000D03*
X120755000Y-81710000D03*
X119955000Y-81710000D03*
X120755000Y-80910000D03*
X119955000Y-80910000D03*
X120755000Y-80110000D03*
X119955000Y-80110000D03*
X120605000Y-79310000D03*
X119805000Y-79310000D03*
X119005000Y-79310000D03*
X119005000Y-80110000D03*
X118205000Y-79310000D03*
X118205000Y-80110000D03*
X117405000Y-79310000D03*
X117405000Y-80110000D03*
X116605000Y-79310000D03*
X116605000Y-80110000D03*
X115805000Y-79310000D03*
X115805000Y-80110000D03*
X115005000Y-79310000D03*
X115005000Y-80110000D03*
X114205000Y-79310000D03*
X114205000Y-80110000D03*
X113405000Y-79310000D03*
X113405000Y-80110000D03*
X112605000Y-79310000D03*
X111805000Y-79310000D03*
X111655000Y-80110000D03*
X112455000Y-80110000D03*
X111655000Y-80910000D03*
X112455000Y-80910000D03*
X111655000Y-81710000D03*
X112455000Y-81710000D03*
X111655000Y-82510000D03*
X112455000Y-82510000D03*
X111655000Y-83310000D03*
X112455000Y-83310000D03*
X111655000Y-84110000D03*
X112455000Y-84110000D03*
X111655000Y-84910000D03*
X112455000Y-84910000D03*
X111655000Y-85710000D03*
X112455000Y-85710000D03*
X111655000Y-86510000D03*
X112455000Y-86510000D03*
X111655000Y-87310000D03*
X112455000Y-87310000D03*
X111655000Y-88110000D03*
X112455000Y-88110000D03*
X111655000Y-88910000D03*
X120755000Y-90210000D03*
X120755000Y-91510000D03*
X120755000Y-92810000D03*
X114330000Y-88110000D03*
X116205000Y-88110000D03*
X118080000Y-88110000D03*
X119955000Y-89560000D03*
%TD*%
D13*
%TO.C,S58*%
X64611250Y-85725000D03*
X54451250Y-85725000D03*
D14*
X59531250Y-85725000D03*
D15*
X55721250Y-83185000D03*
X62071250Y-80645000D03*
%TD*%
D13*
%TO.C,S57*%
X40798750Y-85725000D03*
X30638750Y-85725000D03*
D14*
X35718750Y-85725000D03*
D15*
X31908750Y-83185000D03*
X38258750Y-80645000D03*
%TD*%
D13*
%TO.C,S56*%
X16986250Y-85725000D03*
X6826250Y-85725000D03*
D14*
X11906250Y-85725000D03*
D15*
X8096250Y-83185000D03*
X14446250Y-80645000D03*
%TD*%
D18*
%TO.C,S41*%
X276218750Y-40625000D03*
X252418750Y-40625000D03*
D14*
X252418750Y-55865000D03*
X276218750Y-55865000D03*
D13*
X269398750Y-47625000D03*
X259238750Y-47625000D03*
D14*
X264318750Y-47625000D03*
D15*
X260508750Y-45085000D03*
X266858750Y-42545000D03*
%TD*%
D18*
%TO.C,S42*%
X30950000Y-59675000D03*
X7150000Y-59675000D03*
D14*
X7150000Y-74915000D03*
X30950000Y-74915000D03*
D13*
X24130000Y-66675000D03*
X13970000Y-66675000D03*
D14*
X19050000Y-66675000D03*
D15*
X15240000Y-64135000D03*
X21590000Y-61595000D03*
%TD*%
D13*
%TO.C,S29*%
X21748750Y-47625000D03*
X11588750Y-47625000D03*
D14*
X16668750Y-47625000D03*
D15*
X12858750Y-45085000D03*
X19208750Y-42545000D03*
%TD*%
D13*
%TO.C,S28*%
X276542500Y-28575000D03*
X266382500Y-28575000D03*
D14*
X271462500Y-28575000D03*
D15*
X267652500Y-26035000D03*
X274002500Y-23495000D03*
%TD*%
D18*
%TO.C,S14*%
X278600000Y-2525000D03*
X254800000Y-2525000D03*
D14*
X254800000Y-17765000D03*
X278600000Y-17765000D03*
D13*
X271780000Y-9525000D03*
X261620000Y-9525000D03*
D14*
X266700000Y-9525000D03*
D15*
X262890000Y-6985000D03*
X269240000Y-4445000D03*
%TD*%
D13*
%TO.C,S64*%
X281305000Y-85725000D03*
X271145000Y-85725000D03*
D14*
X276225000Y-85725000D03*
D15*
X272415000Y-83185000D03*
X278765000Y-80645000D03*
%TD*%
D13*
%TO.C,S63*%
X262255000Y-85725000D03*
X252095000Y-85725000D03*
D14*
X257175000Y-85725000D03*
D15*
X253365000Y-83185000D03*
X259715000Y-80645000D03*
%TD*%
D13*
%TO.C,S62*%
X243205000Y-85725000D03*
X233045000Y-85725000D03*
D14*
X238125000Y-85725000D03*
D15*
X234315000Y-83185000D03*
X240665000Y-80645000D03*
%TD*%
D13*
%TO.C,S61*%
X224155000Y-85725000D03*
X213995000Y-85725000D03*
D14*
X219075000Y-85725000D03*
D15*
X215265000Y-83185000D03*
X221615000Y-80645000D03*
%TD*%
D13*
%TO.C,S60*%
X205105000Y-85725000D03*
X194945000Y-85725000D03*
D14*
X200025000Y-85725000D03*
D15*
X196215000Y-83185000D03*
X202565000Y-80645000D03*
%TD*%
D13*
%TO.C,S55*%
X281305000Y-66675000D03*
X271145000Y-66675000D03*
D14*
X276225000Y-66675000D03*
D15*
X272415000Y-64135000D03*
X278765000Y-61595000D03*
%TD*%
D13*
%TO.C,S54*%
X262255000Y-66675000D03*
X252095000Y-66675000D03*
D14*
X257175000Y-66675000D03*
D15*
X253365000Y-64135000D03*
X259715000Y-61595000D03*
%TD*%
D13*
%TO.C,S53*%
X243205000Y-66675000D03*
X233045000Y-66675000D03*
D14*
X238125000Y-66675000D03*
D15*
X234315000Y-64135000D03*
X240665000Y-61595000D03*
%TD*%
D13*
%TO.C,S52*%
X224155000Y-66675000D03*
X213995000Y-66675000D03*
D14*
X219075000Y-66675000D03*
D15*
X215265000Y-64135000D03*
X221615000Y-61595000D03*
%TD*%
D13*
%TO.C,S51*%
X205105000Y-66675000D03*
X194945000Y-66675000D03*
D14*
X200025000Y-66675000D03*
D15*
X196215000Y-64135000D03*
X202565000Y-61595000D03*
%TD*%
D13*
%TO.C,S50*%
X186055000Y-66675000D03*
X175895000Y-66675000D03*
D14*
X180975000Y-66675000D03*
D15*
X177165000Y-64135000D03*
X183515000Y-61595000D03*
%TD*%
D13*
%TO.C,S49*%
X167005000Y-66675000D03*
X156845000Y-66675000D03*
D14*
X161925000Y-66675000D03*
D15*
X158115000Y-64135000D03*
X164465000Y-61595000D03*
%TD*%
D13*
%TO.C,S48*%
X147955000Y-66675000D03*
X137795000Y-66675000D03*
D14*
X142875000Y-66675000D03*
D15*
X139065000Y-64135000D03*
X145415000Y-61595000D03*
%TD*%
D13*
%TO.C,S47*%
X128905000Y-66675000D03*
X118745000Y-66675000D03*
D14*
X123825000Y-66675000D03*
D15*
X120015000Y-64135000D03*
X126365000Y-61595000D03*
%TD*%
D13*
%TO.C,S46*%
X109855000Y-66675000D03*
X99695000Y-66675000D03*
D14*
X104775000Y-66675000D03*
D15*
X100965000Y-64135000D03*
X107315000Y-61595000D03*
%TD*%
D13*
%TO.C,S45*%
X90805000Y-66675000D03*
X80645000Y-66675000D03*
D14*
X85725000Y-66675000D03*
D15*
X81915000Y-64135000D03*
X88265000Y-61595000D03*
%TD*%
D13*
%TO.C,S44*%
X71755000Y-66675000D03*
X61595000Y-66675000D03*
D14*
X66675000Y-66675000D03*
D15*
X62865000Y-64135000D03*
X69215000Y-61595000D03*
%TD*%
D13*
%TO.C,S43*%
X52705000Y-66675000D03*
X42545000Y-66675000D03*
D14*
X47625000Y-66675000D03*
D15*
X43815000Y-64135000D03*
X50165000Y-61595000D03*
%TD*%
D13*
%TO.C,S40*%
X238442500Y-47625000D03*
X228282500Y-47625000D03*
D14*
X233362500Y-47625000D03*
D15*
X229552500Y-45085000D03*
X235902500Y-42545000D03*
%TD*%
D13*
%TO.C,S39*%
X219392500Y-47625000D03*
X209232500Y-47625000D03*
D14*
X214312500Y-47625000D03*
D15*
X210502500Y-45085000D03*
X216852500Y-42545000D03*
%TD*%
D13*
%TO.C,S38*%
X200342500Y-47625000D03*
X190182500Y-47625000D03*
D14*
X195262500Y-47625000D03*
D15*
X191452500Y-45085000D03*
X197802500Y-42545000D03*
%TD*%
D13*
%TO.C,S37*%
X181292500Y-47625000D03*
X171132500Y-47625000D03*
D14*
X176212500Y-47625000D03*
D15*
X172402500Y-45085000D03*
X178752500Y-42545000D03*
%TD*%
D13*
%TO.C,S36*%
X162242500Y-47625000D03*
X152082500Y-47625000D03*
D14*
X157162500Y-47625000D03*
D15*
X153352500Y-45085000D03*
X159702500Y-42545000D03*
%TD*%
D13*
%TO.C,S35*%
X143192500Y-47625000D03*
X133032500Y-47625000D03*
D14*
X138112500Y-47625000D03*
D15*
X134302500Y-45085000D03*
X140652500Y-42545000D03*
%TD*%
D13*
%TO.C,S34*%
X124142500Y-47625000D03*
X113982500Y-47625000D03*
D14*
X119062500Y-47625000D03*
D15*
X115252500Y-45085000D03*
X121602500Y-42545000D03*
%TD*%
D13*
%TO.C,S33*%
X105092500Y-47625000D03*
X94932500Y-47625000D03*
D14*
X100012500Y-47625000D03*
D15*
X96202500Y-45085000D03*
X102552500Y-42545000D03*
%TD*%
D13*
%TO.C,S32*%
X86042500Y-47625000D03*
X75882500Y-47625000D03*
D14*
X80962500Y-47625000D03*
D15*
X77152500Y-45085000D03*
X83502500Y-42545000D03*
%TD*%
D13*
%TO.C,S31*%
X66992500Y-47625000D03*
X56832500Y-47625000D03*
D14*
X61912500Y-47625000D03*
D15*
X58102500Y-45085000D03*
X64452500Y-42545000D03*
%TD*%
D13*
%TO.C,S30*%
X47942500Y-47625000D03*
X37782500Y-47625000D03*
D14*
X42862500Y-47625000D03*
D15*
X39052500Y-45085000D03*
X45402500Y-42545000D03*
%TD*%
D13*
%TO.C,S27*%
X252730000Y-28575000D03*
X242570000Y-28575000D03*
D14*
X247650000Y-28575000D03*
D15*
X243840000Y-26035000D03*
X250190000Y-23495000D03*
%TD*%
D13*
%TO.C,S26*%
X233680000Y-28575000D03*
X223520000Y-28575000D03*
D14*
X228600000Y-28575000D03*
D15*
X224790000Y-26035000D03*
X231140000Y-23495000D03*
%TD*%
D13*
%TO.C,S25*%
X214630000Y-28575000D03*
X204470000Y-28575000D03*
D14*
X209550000Y-28575000D03*
D15*
X205740000Y-26035000D03*
X212090000Y-23495000D03*
%TD*%
D13*
%TO.C,S24*%
X195580000Y-28575000D03*
X185420000Y-28575000D03*
D14*
X190500000Y-28575000D03*
D15*
X186690000Y-26035000D03*
X193040000Y-23495000D03*
%TD*%
D13*
%TO.C,S23*%
X176530000Y-28575000D03*
X166370000Y-28575000D03*
D14*
X171450000Y-28575000D03*
D15*
X167640000Y-26035000D03*
X173990000Y-23495000D03*
%TD*%
D13*
%TO.C,S22*%
X157480000Y-28575000D03*
X147320000Y-28575000D03*
D14*
X152400000Y-28575000D03*
D15*
X148590000Y-26035000D03*
X154940000Y-23495000D03*
%TD*%
D13*
%TO.C,S21*%
X138430000Y-28575000D03*
X128270000Y-28575000D03*
D14*
X133350000Y-28575000D03*
D15*
X129540000Y-26035000D03*
X135890000Y-23495000D03*
%TD*%
D13*
%TO.C,S20*%
X119380000Y-28575000D03*
X109220000Y-28575000D03*
D14*
X114300000Y-28575000D03*
D15*
X110490000Y-26035000D03*
X116840000Y-23495000D03*
%TD*%
D13*
%TO.C,S19*%
X100330000Y-28575000D03*
X90170000Y-28575000D03*
D14*
X95250000Y-28575000D03*
D15*
X91440000Y-26035000D03*
X97790000Y-23495000D03*
%TD*%
D13*
%TO.C,S18*%
X81280000Y-28575000D03*
X71120000Y-28575000D03*
D14*
X76200000Y-28575000D03*
D15*
X72390000Y-26035000D03*
X78740000Y-23495000D03*
%TD*%
D13*
%TO.C,S17*%
X62230000Y-28575000D03*
X52070000Y-28575000D03*
D14*
X57150000Y-28575000D03*
D15*
X53340000Y-26035000D03*
X59690000Y-23495000D03*
%TD*%
D13*
%TO.C,S16*%
X43180000Y-28575000D03*
X33020000Y-28575000D03*
D14*
X38100000Y-28575000D03*
D15*
X34290000Y-26035000D03*
X40640000Y-23495000D03*
%TD*%
D13*
%TO.C,S13*%
X243205000Y-9525000D03*
X233045000Y-9525000D03*
D14*
X238125000Y-9525000D03*
D15*
X234315000Y-6985000D03*
X240665000Y-4445000D03*
%TD*%
D13*
%TO.C,S12*%
X224155000Y-9525000D03*
X213995000Y-9525000D03*
D14*
X219075000Y-9525000D03*
D15*
X215265000Y-6985000D03*
X221615000Y-4445000D03*
%TD*%
D13*
%TO.C,S11*%
X205105000Y-9525000D03*
X194945000Y-9525000D03*
D14*
X200025000Y-9525000D03*
D15*
X196215000Y-6985000D03*
X202565000Y-4445000D03*
%TD*%
D13*
%TO.C,S10*%
X186055000Y-9525000D03*
X175895000Y-9525000D03*
D14*
X180975000Y-9525000D03*
D15*
X177165000Y-6985000D03*
X183515000Y-4445000D03*
%TD*%
D13*
%TO.C,S9*%
X167005000Y-9525000D03*
X156845000Y-9525000D03*
D14*
X161925000Y-9525000D03*
D15*
X158115000Y-6985000D03*
X164465000Y-4445000D03*
%TD*%
D13*
%TO.C,S8*%
X147955000Y-9525000D03*
X137795000Y-9525000D03*
D14*
X142875000Y-9525000D03*
D15*
X139065000Y-6985000D03*
X145415000Y-4445000D03*
%TD*%
D13*
%TO.C,S7*%
X128905000Y-9525000D03*
X118745000Y-9525000D03*
D14*
X123825000Y-9525000D03*
D15*
X120015000Y-6985000D03*
X126365000Y-4445000D03*
%TD*%
D13*
%TO.C,S6*%
X109855000Y-9525000D03*
X99695000Y-9525000D03*
D14*
X104775000Y-9525000D03*
D15*
X100965000Y-6985000D03*
X107315000Y-4445000D03*
%TD*%
D13*
%TO.C,S4*%
X71755000Y-9525000D03*
X61595000Y-9525000D03*
D14*
X66675000Y-9525000D03*
D15*
X62865000Y-6985000D03*
X69215000Y-4445000D03*
%TD*%
D13*
%TO.C,S3*%
X52705000Y-9525000D03*
X42545000Y-9525000D03*
D14*
X47625000Y-9525000D03*
D15*
X43815000Y-6985000D03*
X50165000Y-4445000D03*
%TD*%
D13*
%TO.C,S2*%
X33655000Y-9525000D03*
X23495000Y-9525000D03*
D14*
X28575000Y-9525000D03*
D15*
X24765000Y-6985000D03*
X31115000Y-4445000D03*
%TD*%
D13*
%TO.C,S1*%
X14605000Y-9525000D03*
X4445000Y-9525000D03*
D14*
X9525000Y-9525000D03*
D15*
X5715000Y-6985000D03*
X12065000Y-4445000D03*
%TD*%
D28*
%TO.C,D33*%
X266715000Y-82645000D03*
X267665000Y-80645000D03*
X265765000Y-80645000D03*
%TD*%
%TO.C,D32*%
X228615000Y-82645000D03*
X229565000Y-80645000D03*
X227665000Y-80645000D03*
%TD*%
%TO.C,D30*%
X69071250Y-82645000D03*
X70021250Y-80645000D03*
X68121250Y-80645000D03*
%TD*%
%TO.C,D29*%
X21446250Y-82645000D03*
X22396250Y-80645000D03*
X20496250Y-80645000D03*
%TD*%
%TO.C,D28*%
X266715000Y-63595000D03*
X267665000Y-61595000D03*
X265765000Y-61595000D03*
%TD*%
%TO.C,D27*%
X228615000Y-63595000D03*
X229565000Y-61595000D03*
X227665000Y-61595000D03*
%TD*%
%TO.C,D26*%
X190515000Y-63595000D03*
X191465000Y-61595000D03*
X189565000Y-61595000D03*
%TD*%
%TO.C,D25*%
X152415000Y-63595000D03*
X153365000Y-61595000D03*
X151465000Y-61595000D03*
%TD*%
%TO.C,D24*%
X114315000Y-63595000D03*
X115265000Y-61595000D03*
X113365000Y-61595000D03*
%TD*%
%TO.C,D23*%
X76215000Y-63595000D03*
X77165000Y-61595000D03*
X75265000Y-61595000D03*
%TD*%
%TO.C,D22*%
X38100000Y-63595000D03*
X39050000Y-61595000D03*
X37150000Y-61595000D03*
%TD*%
%TO.C,D21*%
X245110000Y-44545000D03*
X246060000Y-42545000D03*
X244160000Y-42545000D03*
%TD*%
%TO.C,D20*%
X223852500Y-44545000D03*
X224802500Y-42545000D03*
X222902500Y-42545000D03*
%TD*%
%TO.C,D19*%
X185752500Y-44545000D03*
X186702500Y-42545000D03*
X184802500Y-42545000D03*
%TD*%
%TO.C,D18*%
X147652500Y-44545000D03*
X148602500Y-42545000D03*
X146702500Y-42545000D03*
%TD*%
%TO.C,D17*%
X109552500Y-44545000D03*
X110502500Y-42545000D03*
X108602500Y-42545000D03*
%TD*%
%TO.C,D16*%
X71452500Y-44545000D03*
X72402500Y-42545000D03*
X70502500Y-42545000D03*
%TD*%
%TO.C,D15*%
X34290000Y-44545000D03*
X35240000Y-42545000D03*
X33340000Y-42545000D03*
%TD*%
%TO.C,D14*%
X254000000Y-25495000D03*
X254950000Y-23495000D03*
X253050000Y-23495000D03*
%TD*%
%TO.C,D13*%
X219090000Y-25495000D03*
X220040000Y-23495000D03*
X218140000Y-23495000D03*
%TD*%
%TO.C,D12*%
X180990000Y-25495000D03*
X181940000Y-23495000D03*
X180040000Y-23495000D03*
%TD*%
%TO.C,D11*%
X142890000Y-25495000D03*
X143840000Y-23495000D03*
X141940000Y-23495000D03*
%TD*%
%TO.C,D10*%
X104790000Y-25495000D03*
X105740000Y-23495000D03*
X103840000Y-23495000D03*
%TD*%
%TO.C,D9*%
X66690000Y-25495000D03*
X67640000Y-23495000D03*
X65740000Y-23495000D03*
%TD*%
%TO.C,D8*%
X30480000Y-25495000D03*
X31430000Y-23495000D03*
X29530000Y-23495000D03*
%TD*%
%TO.C,D7*%
X247665000Y-6445000D03*
X248615000Y-4445000D03*
X246715000Y-4445000D03*
%TD*%
%TO.C,D6*%
X209565000Y-6445000D03*
X210515000Y-4445000D03*
X208615000Y-4445000D03*
%TD*%
%TO.C,D5*%
X171465000Y-6445000D03*
X172415000Y-4445000D03*
X170515000Y-4445000D03*
%TD*%
%TO.C,D4*%
X133365000Y-6445000D03*
X134315000Y-4445000D03*
X132415000Y-4445000D03*
%TD*%
%TO.C,D3*%
X95265000Y-6445000D03*
X96215000Y-4445000D03*
X94315000Y-4445000D03*
%TD*%
%TO.C,D2*%
X57165000Y-6445000D03*
X58115000Y-4445000D03*
X56215000Y-4445000D03*
%TD*%
M02*
