%TF.GenerationSoftware,KiCad,Pcbnew,5.1.9*%
%TF.CreationDate,2021-02-24T13:07:44+00:00*%
%TF.ProjectId,keyboard,6b657962-6f61-4726-942e-6b696361645f,A*%
%TF.SameCoordinates,PX3072580PY3072580*%
%TF.FileFunction,Paste,Bot*%
%TF.FilePolarity,Positive*%
%FSLAX46Y46*%
G04 Gerber Fmt 4.6, Leading zero omitted, Abs format (unit mm)*
G04 Created by KiCad (PCBNEW 5.1.9) date 2021-02-24 13:07:44*
%MOMM*%
%LPD*%
G01*
G04 APERTURE LIST*
%ADD10R,0.900000X1.200000*%
%ADD11R,1.000000X0.700000*%
%ADD12R,3.600000X1.500000*%
%ADD13R,3.810000X4.240000*%
%ADD14R,1.200000X0.900000*%
%ADD15R,0.800000X0.900000*%
%ADD16R,0.600000X1.450000*%
%ADD17R,0.300000X1.450000*%
%ADD18R,1.000000X1.800000*%
%ADD19R,0.500000X0.500000*%
G04 APERTURE END LIST*
%TO.C,R15*%
G36*
G01*
X25165000Y-48710002D02*
X25165000Y-47809998D01*
G75*
G02*
X25414998Y-47560000I249998J0D01*
G01*
X25940002Y-47560000D01*
G75*
G02*
X26190000Y-47809998I0J-249998D01*
G01*
X26190000Y-48710002D01*
G75*
G02*
X25940002Y-48960000I-249998J0D01*
G01*
X25414998Y-48960000D01*
G75*
G02*
X25165000Y-48710002I0J249998D01*
G01*
G37*
G36*
G01*
X23340000Y-48710002D02*
X23340000Y-47809998D01*
G75*
G02*
X23589998Y-47560000I249998J0D01*
G01*
X24115002Y-47560000D01*
G75*
G02*
X24365000Y-47809998I0J-249998D01*
G01*
X24365000Y-48710002D01*
G75*
G02*
X24115002Y-48960000I-249998J0D01*
G01*
X23589998Y-48960000D01*
G75*
G02*
X23340000Y-48710002I0J249998D01*
G01*
G37*
%TD*%
%TO.C,R16*%
G36*
G01*
X25165000Y-51250002D02*
X25165000Y-50349998D01*
G75*
G02*
X25414998Y-50100000I249998J0D01*
G01*
X25940002Y-50100000D01*
G75*
G02*
X26190000Y-50349998I0J-249998D01*
G01*
X26190000Y-51250002D01*
G75*
G02*
X25940002Y-51500000I-249998J0D01*
G01*
X25414998Y-51500000D01*
G75*
G02*
X25165000Y-51250002I0J249998D01*
G01*
G37*
G36*
G01*
X23340000Y-51250002D02*
X23340000Y-50349998D01*
G75*
G02*
X23589998Y-50100000I249998J0D01*
G01*
X24115002Y-50100000D01*
G75*
G02*
X24365000Y-50349998I0J-249998D01*
G01*
X24365000Y-51250002D01*
G75*
G02*
X24115002Y-51500000I-249998J0D01*
G01*
X23589998Y-51500000D01*
G75*
G02*
X23340000Y-51250002I0J249998D01*
G01*
G37*
%TD*%
D10*
%TO.C,D36*%
X22480000Y-45085000D03*
X25780000Y-45085000D03*
%TD*%
%TO.C,D35*%
X22480000Y-42545000D03*
X25780000Y-42545000D03*
%TD*%
%TO.C,C16*%
G36*
G01*
X33470000Y-47465000D02*
X33470000Y-46515000D01*
G75*
G02*
X33720000Y-46265000I250000J0D01*
G01*
X34220000Y-46265000D01*
G75*
G02*
X34470000Y-46515000I0J-250000D01*
G01*
X34470000Y-47465000D01*
G75*
G02*
X34220000Y-47715000I-250000J0D01*
G01*
X33720000Y-47715000D01*
G75*
G02*
X33470000Y-47465000I0J250000D01*
G01*
G37*
G36*
G01*
X31570000Y-47465000D02*
X31570000Y-46515000D01*
G75*
G02*
X31820000Y-46265000I250000J0D01*
G01*
X32320000Y-46265000D01*
G75*
G02*
X32570000Y-46515000I0J-250000D01*
G01*
X32570000Y-47465000D01*
G75*
G02*
X32320000Y-47715000I-250000J0D01*
G01*
X31820000Y-47715000D01*
G75*
G02*
X31570000Y-47465000I0J250000D01*
G01*
G37*
%TD*%
%TO.C,J9*%
G36*
G01*
X3694999Y-26255000D02*
X6195001Y-26255000D01*
G75*
G02*
X6445000Y-26504999I0J-249999D01*
G01*
X6445000Y-28105001D01*
G75*
G02*
X6195001Y-28355000I-249999J0D01*
G01*
X3694999Y-28355000D01*
G75*
G02*
X3445000Y-28105001I0J249999D01*
G01*
X3445000Y-26504999D01*
G75*
G02*
X3694999Y-26255000I249999J0D01*
G01*
G37*
G36*
G01*
X3694999Y-19905000D02*
X6195001Y-19905000D01*
G75*
G02*
X6445000Y-20154999I0J-249999D01*
G01*
X6445000Y-21755001D01*
G75*
G02*
X6195001Y-22005000I-249999J0D01*
G01*
X3694999Y-22005000D01*
G75*
G02*
X3445000Y-21755001I0J249999D01*
G01*
X3445000Y-20154999D01*
G75*
G02*
X3694999Y-19905000I249999J0D01*
G01*
G37*
G36*
G01*
X1445000Y-24355000D02*
X2645000Y-24355000D01*
G75*
G02*
X2845000Y-24555000I0J-200000D01*
G01*
X2845000Y-24955000D01*
G75*
G02*
X2645000Y-25155000I-200000J0D01*
G01*
X1445000Y-25155000D01*
G75*
G02*
X1245000Y-24955000I0J200000D01*
G01*
X1245000Y-24555000D01*
G75*
G02*
X1445000Y-24355000I200000J0D01*
G01*
G37*
G36*
G01*
X1445000Y-23105000D02*
X2645000Y-23105000D01*
G75*
G02*
X2845000Y-23305000I0J-200000D01*
G01*
X2845000Y-23705000D01*
G75*
G02*
X2645000Y-23905000I-200000J0D01*
G01*
X1445000Y-23905000D01*
G75*
G02*
X1245000Y-23705000I0J200000D01*
G01*
X1245000Y-23305000D01*
G75*
G02*
X1445000Y-23105000I200000J0D01*
G01*
G37*
%TD*%
%TO.C,R14*%
G36*
G01*
X3625002Y-47225000D02*
X2724998Y-47225000D01*
G75*
G02*
X2475000Y-46975002I0J249998D01*
G01*
X2475000Y-46449998D01*
G75*
G02*
X2724998Y-46200000I249998J0D01*
G01*
X3625002Y-46200000D01*
G75*
G02*
X3875000Y-46449998I0J-249998D01*
G01*
X3875000Y-46975002D01*
G75*
G02*
X3625002Y-47225000I-249998J0D01*
G01*
G37*
G36*
G01*
X3625002Y-49050000D02*
X2724998Y-49050000D01*
G75*
G02*
X2475000Y-48800002I0J249998D01*
G01*
X2475000Y-48274998D01*
G75*
G02*
X2724998Y-48025000I249998J0D01*
G01*
X3625002Y-48025000D01*
G75*
G02*
X3875000Y-48274998I0J-249998D01*
G01*
X3875000Y-48800002D01*
G75*
G02*
X3625002Y-49050000I-249998J0D01*
G01*
G37*
%TD*%
%TO.C,C10*%
G36*
G01*
X45245000Y-28390000D02*
X46195000Y-28390000D01*
G75*
G02*
X46445000Y-28640000I0J-250000D01*
G01*
X46445000Y-29140000D01*
G75*
G02*
X46195000Y-29390000I-250000J0D01*
G01*
X45245000Y-29390000D01*
G75*
G02*
X44995000Y-29140000I0J250000D01*
G01*
X44995000Y-28640000D01*
G75*
G02*
X45245000Y-28390000I250000J0D01*
G01*
G37*
G36*
G01*
X45245000Y-26490000D02*
X46195000Y-26490000D01*
G75*
G02*
X46445000Y-26740000I0J-250000D01*
G01*
X46445000Y-27240000D01*
G75*
G02*
X46195000Y-27490000I-250000J0D01*
G01*
X45245000Y-27490000D01*
G75*
G02*
X44995000Y-27240000I0J250000D01*
G01*
X44995000Y-26740000D01*
G75*
G02*
X45245000Y-26490000I250000J0D01*
G01*
G37*
%TD*%
%TO.C,C15*%
G36*
G01*
X175420000Y-82360000D02*
X176370000Y-82360000D01*
G75*
G02*
X176620000Y-82610000I0J-250000D01*
G01*
X176620000Y-83110000D01*
G75*
G02*
X176370000Y-83360000I-250000J0D01*
G01*
X175420000Y-83360000D01*
G75*
G02*
X175170000Y-83110000I0J250000D01*
G01*
X175170000Y-82610000D01*
G75*
G02*
X175420000Y-82360000I250000J0D01*
G01*
G37*
G36*
G01*
X175420000Y-80460000D02*
X176370000Y-80460000D01*
G75*
G02*
X176620000Y-80710000I0J-250000D01*
G01*
X176620000Y-81210000D01*
G75*
G02*
X176370000Y-81460000I-250000J0D01*
G01*
X175420000Y-81460000D01*
G75*
G02*
X175170000Y-81210000I0J250000D01*
G01*
X175170000Y-80710000D01*
G75*
G02*
X175420000Y-80460000I250000J0D01*
G01*
G37*
%TD*%
%TO.C,C14*%
G36*
G01*
X175420000Y-86175000D02*
X176370000Y-86175000D01*
G75*
G02*
X176620000Y-86425000I0J-250000D01*
G01*
X176620000Y-86925000D01*
G75*
G02*
X176370000Y-87175000I-250000J0D01*
G01*
X175420000Y-87175000D01*
G75*
G02*
X175170000Y-86925000I0J250000D01*
G01*
X175170000Y-86425000D01*
G75*
G02*
X175420000Y-86175000I250000J0D01*
G01*
G37*
G36*
G01*
X175420000Y-84275000D02*
X176370000Y-84275000D01*
G75*
G02*
X176620000Y-84525000I0J-250000D01*
G01*
X176620000Y-85025000D01*
G75*
G02*
X176370000Y-85275000I-250000J0D01*
G01*
X175420000Y-85275000D01*
G75*
G02*
X175170000Y-85025000I0J250000D01*
G01*
X175170000Y-84525000D01*
G75*
G02*
X175420000Y-84275000I250000J0D01*
G01*
G37*
%TD*%
%TO.C,J8*%
G36*
G01*
X171565001Y-81695000D02*
X169064999Y-81695000D01*
G75*
G02*
X168815000Y-81445001I0J249999D01*
G01*
X168815000Y-79844999D01*
G75*
G02*
X169064999Y-79595000I249999J0D01*
G01*
X171565001Y-79595000D01*
G75*
G02*
X171815000Y-79844999I0J-249999D01*
G01*
X171815000Y-81445001D01*
G75*
G02*
X171565001Y-81695000I-249999J0D01*
G01*
G37*
G36*
G01*
X171565001Y-88045000D02*
X169064999Y-88045000D01*
G75*
G02*
X168815000Y-87795001I0J249999D01*
G01*
X168815000Y-86194999D01*
G75*
G02*
X169064999Y-85945000I249999J0D01*
G01*
X171565001Y-85945000D01*
G75*
G02*
X171815000Y-86194999I0J-249999D01*
G01*
X171815000Y-87795001D01*
G75*
G02*
X171565001Y-88045000I-249999J0D01*
G01*
G37*
G36*
G01*
X173815000Y-83595000D02*
X172615000Y-83595000D01*
G75*
G02*
X172415000Y-83395000I0J200000D01*
G01*
X172415000Y-82995000D01*
G75*
G02*
X172615000Y-82795000I200000J0D01*
G01*
X173815000Y-82795000D01*
G75*
G02*
X174015000Y-82995000I0J-200000D01*
G01*
X174015000Y-83395000D01*
G75*
G02*
X173815000Y-83595000I-200000J0D01*
G01*
G37*
G36*
G01*
X173815000Y-84845000D02*
X172615000Y-84845000D01*
G75*
G02*
X172415000Y-84645000I0J200000D01*
G01*
X172415000Y-84245000D01*
G75*
G02*
X172615000Y-84045000I200000J0D01*
G01*
X173815000Y-84045000D01*
G75*
G02*
X174015000Y-84245000I0J-200000D01*
G01*
X174015000Y-84645000D01*
G75*
G02*
X173815000Y-84845000I-200000J0D01*
G01*
G37*
%TD*%
%TO.C,R13*%
G36*
G01*
X53790002Y-50400000D02*
X52889998Y-50400000D01*
G75*
G02*
X52640000Y-50150002I0J249998D01*
G01*
X52640000Y-49624998D01*
G75*
G02*
X52889998Y-49375000I249998J0D01*
G01*
X53790002Y-49375000D01*
G75*
G02*
X54040000Y-49624998I0J-249998D01*
G01*
X54040000Y-50150002D01*
G75*
G02*
X53790002Y-50400000I-249998J0D01*
G01*
G37*
G36*
G01*
X53790002Y-52225000D02*
X52889998Y-52225000D01*
G75*
G02*
X52640000Y-51975002I0J249998D01*
G01*
X52640000Y-51449998D01*
G75*
G02*
X52889998Y-51200000I249998J0D01*
G01*
X53790002Y-51200000D01*
G75*
G02*
X54040000Y-51449998I0J-249998D01*
G01*
X54040000Y-51975002D01*
G75*
G02*
X53790002Y-52225000I-249998J0D01*
G01*
G37*
%TD*%
%TO.C,R12*%
G36*
G01*
X51885002Y-50400000D02*
X50984998Y-50400000D01*
G75*
G02*
X50735000Y-50150002I0J249998D01*
G01*
X50735000Y-49624998D01*
G75*
G02*
X50984998Y-49375000I249998J0D01*
G01*
X51885002Y-49375000D01*
G75*
G02*
X52135000Y-49624998I0J-249998D01*
G01*
X52135000Y-50150002D01*
G75*
G02*
X51885002Y-50400000I-249998J0D01*
G01*
G37*
G36*
G01*
X51885002Y-52225000D02*
X50984998Y-52225000D01*
G75*
G02*
X50735000Y-51975002I0J249998D01*
G01*
X50735000Y-51449998D01*
G75*
G02*
X50984998Y-51200000I249998J0D01*
G01*
X51885002Y-51200000D01*
G75*
G02*
X52135000Y-51449998I0J-249998D01*
G01*
X52135000Y-51975002D01*
G75*
G02*
X51885002Y-52225000I-249998J0D01*
G01*
G37*
%TD*%
%TO.C,R10*%
G36*
G01*
X28175000Y-33839998D02*
X28175000Y-34740002D01*
G75*
G02*
X27925002Y-34990000I-249998J0D01*
G01*
X27399998Y-34990000D01*
G75*
G02*
X27150000Y-34740002I0J249998D01*
G01*
X27150000Y-33839998D01*
G75*
G02*
X27399998Y-33590000I249998J0D01*
G01*
X27925002Y-33590000D01*
G75*
G02*
X28175000Y-33839998I0J-249998D01*
G01*
G37*
G36*
G01*
X30000000Y-33839998D02*
X30000000Y-34740002D01*
G75*
G02*
X29750002Y-34990000I-249998J0D01*
G01*
X29224998Y-34990000D01*
G75*
G02*
X28975000Y-34740002I0J249998D01*
G01*
X28975000Y-33839998D01*
G75*
G02*
X29224998Y-33590000I249998J0D01*
G01*
X29750002Y-33590000D01*
G75*
G02*
X30000000Y-33839998I0J-249998D01*
G01*
G37*
%TD*%
%TO.C,C9*%
G36*
G01*
X37730000Y-20970001D02*
X37730000Y-19669999D01*
G75*
G02*
X37979999Y-19420000I249999J0D01*
G01*
X38630001Y-19420000D01*
G75*
G02*
X38880000Y-19669999I0J-249999D01*
G01*
X38880000Y-20970001D01*
G75*
G02*
X38630001Y-21220000I-249999J0D01*
G01*
X37979999Y-21220000D01*
G75*
G02*
X37730000Y-20970001I0J249999D01*
G01*
G37*
G36*
G01*
X34780000Y-20970001D02*
X34780000Y-19669999D01*
G75*
G02*
X35029999Y-19420000I249999J0D01*
G01*
X35680001Y-19420000D01*
G75*
G02*
X35930000Y-19669999I0J-249999D01*
G01*
X35930000Y-20970001D01*
G75*
G02*
X35680001Y-21220000I-249999J0D01*
G01*
X35029999Y-21220000D01*
G75*
G02*
X34780000Y-20970001I0J249999D01*
G01*
G37*
%TD*%
%TO.C,C6*%
G36*
G01*
X36210001Y-5450000D02*
X34909999Y-5450000D01*
G75*
G02*
X34660000Y-5200001I0J249999D01*
G01*
X34660000Y-4549999D01*
G75*
G02*
X34909999Y-4300000I249999J0D01*
G01*
X36210001Y-4300000D01*
G75*
G02*
X36460000Y-4549999I0J-249999D01*
G01*
X36460000Y-5200001D01*
G75*
G02*
X36210001Y-5450000I-249999J0D01*
G01*
G37*
G36*
G01*
X36210001Y-8400000D02*
X34909999Y-8400000D01*
G75*
G02*
X34660000Y-8150001I0J249999D01*
G01*
X34660000Y-7499999D01*
G75*
G02*
X34909999Y-7250000I249999J0D01*
G01*
X36210001Y-7250000D01*
G75*
G02*
X36460000Y-7499999I0J-249999D01*
G01*
X36460000Y-8150001D01*
G75*
G02*
X36210001Y-8400000I-249999J0D01*
G01*
G37*
%TD*%
%TO.C,U4*%
G36*
G01*
X39210000Y-53170000D02*
X39210000Y-52870000D01*
G75*
G02*
X39360000Y-52720000I150000J0D01*
G01*
X40385000Y-52720000D01*
G75*
G02*
X40535000Y-52870000I0J-150000D01*
G01*
X40535000Y-53170000D01*
G75*
G02*
X40385000Y-53320000I-150000J0D01*
G01*
X39360000Y-53320000D01*
G75*
G02*
X39210000Y-53170000I0J150000D01*
G01*
G37*
G36*
G01*
X39210000Y-51270000D02*
X39210000Y-50970000D01*
G75*
G02*
X39360000Y-50820000I150000J0D01*
G01*
X40385000Y-50820000D01*
G75*
G02*
X40535000Y-50970000I0J-150000D01*
G01*
X40535000Y-51270000D01*
G75*
G02*
X40385000Y-51420000I-150000J0D01*
G01*
X39360000Y-51420000D01*
G75*
G02*
X39210000Y-51270000I0J150000D01*
G01*
G37*
G36*
G01*
X36935000Y-51270000D02*
X36935000Y-50970000D01*
G75*
G02*
X37085000Y-50820000I150000J0D01*
G01*
X38110000Y-50820000D01*
G75*
G02*
X38260000Y-50970000I0J-150000D01*
G01*
X38260000Y-51270000D01*
G75*
G02*
X38110000Y-51420000I-150000J0D01*
G01*
X37085000Y-51420000D01*
G75*
G02*
X36935000Y-51270000I0J150000D01*
G01*
G37*
G36*
G01*
X36935000Y-52220000D02*
X36935000Y-51920000D01*
G75*
G02*
X37085000Y-51770000I150000J0D01*
G01*
X38110000Y-51770000D01*
G75*
G02*
X38260000Y-51920000I0J-150000D01*
G01*
X38260000Y-52220000D01*
G75*
G02*
X38110000Y-52370000I-150000J0D01*
G01*
X37085000Y-52370000D01*
G75*
G02*
X36935000Y-52220000I0J150000D01*
G01*
G37*
G36*
G01*
X36935000Y-53170000D02*
X36935000Y-52870000D01*
G75*
G02*
X37085000Y-52720000I150000J0D01*
G01*
X38110000Y-52720000D01*
G75*
G02*
X38260000Y-52870000I0J-150000D01*
G01*
X38260000Y-53170000D01*
G75*
G02*
X38110000Y-53320000I-150000J0D01*
G01*
X37085000Y-53320000D01*
G75*
G02*
X36935000Y-53170000I0J150000D01*
G01*
G37*
%TD*%
%TO.C,U3*%
G36*
G01*
X47705000Y-24555000D02*
X47705000Y-24275000D01*
G75*
G02*
X47845000Y-24135000I140000J0D01*
G01*
X48255000Y-24135000D01*
G75*
G02*
X48395000Y-24275000I0J-140000D01*
G01*
X48395000Y-24555000D01*
G75*
G02*
X48255000Y-24695000I-140000J0D01*
G01*
X47845000Y-24695000D01*
G75*
G02*
X47705000Y-24555000I0J140000D01*
G01*
G37*
G36*
G01*
X47705000Y-25255000D02*
X47705000Y-24975000D01*
G75*
G02*
X47845000Y-24835000I140000J0D01*
G01*
X48255000Y-24835000D01*
G75*
G02*
X48395000Y-24975000I0J-140000D01*
G01*
X48395000Y-25255000D01*
G75*
G02*
X48255000Y-25395000I-140000J0D01*
G01*
X47845000Y-25395000D01*
G75*
G02*
X47705000Y-25255000I0J140000D01*
G01*
G37*
G36*
G01*
X46855000Y-24555000D02*
X46855000Y-24275000D01*
G75*
G02*
X46995000Y-24135000I140000J0D01*
G01*
X47405000Y-24135000D01*
G75*
G02*
X47545000Y-24275000I0J-140000D01*
G01*
X47545000Y-24555000D01*
G75*
G02*
X47405000Y-24695000I-140000J0D01*
G01*
X46995000Y-24695000D01*
G75*
G02*
X46855000Y-24555000I0J140000D01*
G01*
G37*
G36*
G01*
X46855000Y-25255000D02*
X46855000Y-24975000D01*
G75*
G02*
X46995000Y-24835000I140000J0D01*
G01*
X47405000Y-24835000D01*
G75*
G02*
X47545000Y-24975000I0J-140000D01*
G01*
X47545000Y-25255000D01*
G75*
G02*
X47405000Y-25395000I-140000J0D01*
G01*
X46995000Y-25395000D01*
G75*
G02*
X46855000Y-25255000I0J140000D01*
G01*
G37*
G36*
G01*
X48675000Y-25577500D02*
X48675000Y-25452500D01*
G75*
G02*
X48737500Y-25390000I62500J0D01*
G01*
X49412500Y-25390000D01*
G75*
G02*
X49475000Y-25452500I0J-62500D01*
G01*
X49475000Y-25577500D01*
G75*
G02*
X49412500Y-25640000I-62500J0D01*
G01*
X48737500Y-25640000D01*
G75*
G02*
X48675000Y-25577500I0J62500D01*
G01*
G37*
G36*
G01*
X48675000Y-25077500D02*
X48675000Y-24952500D01*
G75*
G02*
X48737500Y-24890000I62500J0D01*
G01*
X49412500Y-24890000D01*
G75*
G02*
X49475000Y-24952500I0J-62500D01*
G01*
X49475000Y-25077500D01*
G75*
G02*
X49412500Y-25140000I-62500J0D01*
G01*
X48737500Y-25140000D01*
G75*
G02*
X48675000Y-25077500I0J62500D01*
G01*
G37*
G36*
G01*
X48675000Y-24577500D02*
X48675000Y-24452500D01*
G75*
G02*
X48737500Y-24390000I62500J0D01*
G01*
X49412500Y-24390000D01*
G75*
G02*
X49475000Y-24452500I0J-62500D01*
G01*
X49475000Y-24577500D01*
G75*
G02*
X49412500Y-24640000I-62500J0D01*
G01*
X48737500Y-24640000D01*
G75*
G02*
X48675000Y-24577500I0J62500D01*
G01*
G37*
G36*
G01*
X48675000Y-24077500D02*
X48675000Y-23952500D01*
G75*
G02*
X48737500Y-23890000I62500J0D01*
G01*
X49412500Y-23890000D01*
G75*
G02*
X49475000Y-23952500I0J-62500D01*
G01*
X49475000Y-24077500D01*
G75*
G02*
X49412500Y-24140000I-62500J0D01*
G01*
X48737500Y-24140000D01*
G75*
G02*
X48675000Y-24077500I0J62500D01*
G01*
G37*
G36*
G01*
X45775000Y-24077500D02*
X45775000Y-23952500D01*
G75*
G02*
X45837500Y-23890000I62500J0D01*
G01*
X46512500Y-23890000D01*
G75*
G02*
X46575000Y-23952500I0J-62500D01*
G01*
X46575000Y-24077500D01*
G75*
G02*
X46512500Y-24140000I-62500J0D01*
G01*
X45837500Y-24140000D01*
G75*
G02*
X45775000Y-24077500I0J62500D01*
G01*
G37*
G36*
G01*
X45775000Y-24577500D02*
X45775000Y-24452500D01*
G75*
G02*
X45837500Y-24390000I62500J0D01*
G01*
X46512500Y-24390000D01*
G75*
G02*
X46575000Y-24452500I0J-62500D01*
G01*
X46575000Y-24577500D01*
G75*
G02*
X46512500Y-24640000I-62500J0D01*
G01*
X45837500Y-24640000D01*
G75*
G02*
X45775000Y-24577500I0J62500D01*
G01*
G37*
G36*
G01*
X45775000Y-25077500D02*
X45775000Y-24952500D01*
G75*
G02*
X45837500Y-24890000I62500J0D01*
G01*
X46512500Y-24890000D01*
G75*
G02*
X46575000Y-24952500I0J-62500D01*
G01*
X46575000Y-25077500D01*
G75*
G02*
X46512500Y-25140000I-62500J0D01*
G01*
X45837500Y-25140000D01*
G75*
G02*
X45775000Y-25077500I0J62500D01*
G01*
G37*
G36*
G01*
X45775000Y-25577500D02*
X45775000Y-25452500D01*
G75*
G02*
X45837500Y-25390000I62500J0D01*
G01*
X46512500Y-25390000D01*
G75*
G02*
X46575000Y-25452500I0J-62500D01*
G01*
X46575000Y-25577500D01*
G75*
G02*
X46512500Y-25640000I-62500J0D01*
G01*
X45837500Y-25640000D01*
G75*
G02*
X45775000Y-25577500I0J62500D01*
G01*
G37*
%TD*%
%TO.C,U2*%
G36*
G01*
X38475000Y-11555000D02*
X39045000Y-11555000D01*
G75*
G02*
X39295000Y-11805000I0J-250000D01*
G01*
X39295000Y-12375000D01*
G75*
G02*
X39045000Y-12625000I-250000J0D01*
G01*
X38475000Y-12625000D01*
G75*
G02*
X38225000Y-12375000I0J250000D01*
G01*
X38225000Y-11805000D01*
G75*
G02*
X38475000Y-11555000I250000J0D01*
G01*
G37*
G36*
G01*
X37155000Y-11555000D02*
X37725000Y-11555000D01*
G75*
G02*
X37975000Y-11805000I0J-250000D01*
G01*
X37975000Y-12375000D01*
G75*
G02*
X37725000Y-12625000I-250000J0D01*
G01*
X37155000Y-12625000D01*
G75*
G02*
X36905000Y-12375000I0J250000D01*
G01*
X36905000Y-11805000D01*
G75*
G02*
X37155000Y-11555000I250000J0D01*
G01*
G37*
G36*
G01*
X38475000Y-10235000D02*
X39045000Y-10235000D01*
G75*
G02*
X39295000Y-10485000I0J-250000D01*
G01*
X39295000Y-11055000D01*
G75*
G02*
X39045000Y-11305000I-250000J0D01*
G01*
X38475000Y-11305000D01*
G75*
G02*
X38225000Y-11055000I0J250000D01*
G01*
X38225000Y-10485000D01*
G75*
G02*
X38475000Y-10235000I250000J0D01*
G01*
G37*
G36*
G01*
X37155000Y-10235000D02*
X37725000Y-10235000D01*
G75*
G02*
X37975000Y-10485000I0J-250000D01*
G01*
X37975000Y-11055000D01*
G75*
G02*
X37725000Y-11305000I-250000J0D01*
G01*
X37155000Y-11305000D01*
G75*
G02*
X36905000Y-11055000I0J250000D01*
G01*
X36905000Y-10485000D01*
G75*
G02*
X37155000Y-10235000I250000J0D01*
G01*
G37*
G36*
G01*
X35800000Y-10030000D02*
X36500000Y-10030000D01*
G75*
G02*
X36575000Y-10105000I0J-75000D01*
G01*
X36575000Y-10255000D01*
G75*
G02*
X36500000Y-10330000I-75000J0D01*
G01*
X35800000Y-10330000D01*
G75*
G02*
X35725000Y-10255000I0J75000D01*
G01*
X35725000Y-10105000D01*
G75*
G02*
X35800000Y-10030000I75000J0D01*
G01*
G37*
G36*
G01*
X35800000Y-10530000D02*
X36500000Y-10530000D01*
G75*
G02*
X36575000Y-10605000I0J-75000D01*
G01*
X36575000Y-10755000D01*
G75*
G02*
X36500000Y-10830000I-75000J0D01*
G01*
X35800000Y-10830000D01*
G75*
G02*
X35725000Y-10755000I0J75000D01*
G01*
X35725000Y-10605000D01*
G75*
G02*
X35800000Y-10530000I75000J0D01*
G01*
G37*
G36*
G01*
X35800000Y-11030000D02*
X36500000Y-11030000D01*
G75*
G02*
X36575000Y-11105000I0J-75000D01*
G01*
X36575000Y-11255000D01*
G75*
G02*
X36500000Y-11330000I-75000J0D01*
G01*
X35800000Y-11330000D01*
G75*
G02*
X35725000Y-11255000I0J75000D01*
G01*
X35725000Y-11105000D01*
G75*
G02*
X35800000Y-11030000I75000J0D01*
G01*
G37*
G36*
G01*
X35800000Y-11530000D02*
X36500000Y-11530000D01*
G75*
G02*
X36575000Y-11605000I0J-75000D01*
G01*
X36575000Y-11755000D01*
G75*
G02*
X36500000Y-11830000I-75000J0D01*
G01*
X35800000Y-11830000D01*
G75*
G02*
X35725000Y-11755000I0J75000D01*
G01*
X35725000Y-11605000D01*
G75*
G02*
X35800000Y-11530000I75000J0D01*
G01*
G37*
G36*
G01*
X35800000Y-12030000D02*
X36500000Y-12030000D01*
G75*
G02*
X36575000Y-12105000I0J-75000D01*
G01*
X36575000Y-12255000D01*
G75*
G02*
X36500000Y-12330000I-75000J0D01*
G01*
X35800000Y-12330000D01*
G75*
G02*
X35725000Y-12255000I0J75000D01*
G01*
X35725000Y-12105000D01*
G75*
G02*
X35800000Y-12030000I75000J0D01*
G01*
G37*
G36*
G01*
X35800000Y-12530000D02*
X36500000Y-12530000D01*
G75*
G02*
X36575000Y-12605000I0J-75000D01*
G01*
X36575000Y-12755000D01*
G75*
G02*
X36500000Y-12830000I-75000J0D01*
G01*
X35800000Y-12830000D01*
G75*
G02*
X35725000Y-12755000I0J75000D01*
G01*
X35725000Y-12605000D01*
G75*
G02*
X35800000Y-12530000I75000J0D01*
G01*
G37*
G36*
G01*
X36775000Y-12955000D02*
X36925000Y-12955000D01*
G75*
G02*
X37000000Y-13030000I0J-75000D01*
G01*
X37000000Y-13730000D01*
G75*
G02*
X36925000Y-13805000I-75000J0D01*
G01*
X36775000Y-13805000D01*
G75*
G02*
X36700000Y-13730000I0J75000D01*
G01*
X36700000Y-13030000D01*
G75*
G02*
X36775000Y-12955000I75000J0D01*
G01*
G37*
G36*
G01*
X37275000Y-12955000D02*
X37425000Y-12955000D01*
G75*
G02*
X37500000Y-13030000I0J-75000D01*
G01*
X37500000Y-13730000D01*
G75*
G02*
X37425000Y-13805000I-75000J0D01*
G01*
X37275000Y-13805000D01*
G75*
G02*
X37200000Y-13730000I0J75000D01*
G01*
X37200000Y-13030000D01*
G75*
G02*
X37275000Y-12955000I75000J0D01*
G01*
G37*
G36*
G01*
X37775000Y-12955000D02*
X37925000Y-12955000D01*
G75*
G02*
X38000000Y-13030000I0J-75000D01*
G01*
X38000000Y-13730000D01*
G75*
G02*
X37925000Y-13805000I-75000J0D01*
G01*
X37775000Y-13805000D01*
G75*
G02*
X37700000Y-13730000I0J75000D01*
G01*
X37700000Y-13030000D01*
G75*
G02*
X37775000Y-12955000I75000J0D01*
G01*
G37*
G36*
G01*
X38275000Y-12955000D02*
X38425000Y-12955000D01*
G75*
G02*
X38500000Y-13030000I0J-75000D01*
G01*
X38500000Y-13730000D01*
G75*
G02*
X38425000Y-13805000I-75000J0D01*
G01*
X38275000Y-13805000D01*
G75*
G02*
X38200000Y-13730000I0J75000D01*
G01*
X38200000Y-13030000D01*
G75*
G02*
X38275000Y-12955000I75000J0D01*
G01*
G37*
G36*
G01*
X38775000Y-12955000D02*
X38925000Y-12955000D01*
G75*
G02*
X39000000Y-13030000I0J-75000D01*
G01*
X39000000Y-13730000D01*
G75*
G02*
X38925000Y-13805000I-75000J0D01*
G01*
X38775000Y-13805000D01*
G75*
G02*
X38700000Y-13730000I0J75000D01*
G01*
X38700000Y-13030000D01*
G75*
G02*
X38775000Y-12955000I75000J0D01*
G01*
G37*
G36*
G01*
X39275000Y-12955000D02*
X39425000Y-12955000D01*
G75*
G02*
X39500000Y-13030000I0J-75000D01*
G01*
X39500000Y-13730000D01*
G75*
G02*
X39425000Y-13805000I-75000J0D01*
G01*
X39275000Y-13805000D01*
G75*
G02*
X39200000Y-13730000I0J75000D01*
G01*
X39200000Y-13030000D01*
G75*
G02*
X39275000Y-12955000I75000J0D01*
G01*
G37*
G36*
G01*
X39700000Y-12530000D02*
X40400000Y-12530000D01*
G75*
G02*
X40475000Y-12605000I0J-75000D01*
G01*
X40475000Y-12755000D01*
G75*
G02*
X40400000Y-12830000I-75000J0D01*
G01*
X39700000Y-12830000D01*
G75*
G02*
X39625000Y-12755000I0J75000D01*
G01*
X39625000Y-12605000D01*
G75*
G02*
X39700000Y-12530000I75000J0D01*
G01*
G37*
G36*
G01*
X39700000Y-12030000D02*
X40400000Y-12030000D01*
G75*
G02*
X40475000Y-12105000I0J-75000D01*
G01*
X40475000Y-12255000D01*
G75*
G02*
X40400000Y-12330000I-75000J0D01*
G01*
X39700000Y-12330000D01*
G75*
G02*
X39625000Y-12255000I0J75000D01*
G01*
X39625000Y-12105000D01*
G75*
G02*
X39700000Y-12030000I75000J0D01*
G01*
G37*
G36*
G01*
X39700000Y-11530000D02*
X40400000Y-11530000D01*
G75*
G02*
X40475000Y-11605000I0J-75000D01*
G01*
X40475000Y-11755000D01*
G75*
G02*
X40400000Y-11830000I-75000J0D01*
G01*
X39700000Y-11830000D01*
G75*
G02*
X39625000Y-11755000I0J75000D01*
G01*
X39625000Y-11605000D01*
G75*
G02*
X39700000Y-11530000I75000J0D01*
G01*
G37*
G36*
G01*
X39700000Y-11030000D02*
X40400000Y-11030000D01*
G75*
G02*
X40475000Y-11105000I0J-75000D01*
G01*
X40475000Y-11255000D01*
G75*
G02*
X40400000Y-11330000I-75000J0D01*
G01*
X39700000Y-11330000D01*
G75*
G02*
X39625000Y-11255000I0J75000D01*
G01*
X39625000Y-11105000D01*
G75*
G02*
X39700000Y-11030000I75000J0D01*
G01*
G37*
G36*
G01*
X39700000Y-10530000D02*
X40400000Y-10530000D01*
G75*
G02*
X40475000Y-10605000I0J-75000D01*
G01*
X40475000Y-10755000D01*
G75*
G02*
X40400000Y-10830000I-75000J0D01*
G01*
X39700000Y-10830000D01*
G75*
G02*
X39625000Y-10755000I0J75000D01*
G01*
X39625000Y-10605000D01*
G75*
G02*
X39700000Y-10530000I75000J0D01*
G01*
G37*
G36*
G01*
X39700000Y-10030000D02*
X40400000Y-10030000D01*
G75*
G02*
X40475000Y-10105000I0J-75000D01*
G01*
X40475000Y-10255000D01*
G75*
G02*
X40400000Y-10330000I-75000J0D01*
G01*
X39700000Y-10330000D01*
G75*
G02*
X39625000Y-10255000I0J75000D01*
G01*
X39625000Y-10105000D01*
G75*
G02*
X39700000Y-10030000I75000J0D01*
G01*
G37*
G36*
G01*
X39275000Y-9055000D02*
X39425000Y-9055000D01*
G75*
G02*
X39500000Y-9130000I0J-75000D01*
G01*
X39500000Y-9830000D01*
G75*
G02*
X39425000Y-9905000I-75000J0D01*
G01*
X39275000Y-9905000D01*
G75*
G02*
X39200000Y-9830000I0J75000D01*
G01*
X39200000Y-9130000D01*
G75*
G02*
X39275000Y-9055000I75000J0D01*
G01*
G37*
G36*
G01*
X38775000Y-9055000D02*
X38925000Y-9055000D01*
G75*
G02*
X39000000Y-9130000I0J-75000D01*
G01*
X39000000Y-9830000D01*
G75*
G02*
X38925000Y-9905000I-75000J0D01*
G01*
X38775000Y-9905000D01*
G75*
G02*
X38700000Y-9830000I0J75000D01*
G01*
X38700000Y-9130000D01*
G75*
G02*
X38775000Y-9055000I75000J0D01*
G01*
G37*
G36*
G01*
X38275000Y-9055000D02*
X38425000Y-9055000D01*
G75*
G02*
X38500000Y-9130000I0J-75000D01*
G01*
X38500000Y-9830000D01*
G75*
G02*
X38425000Y-9905000I-75000J0D01*
G01*
X38275000Y-9905000D01*
G75*
G02*
X38200000Y-9830000I0J75000D01*
G01*
X38200000Y-9130000D01*
G75*
G02*
X38275000Y-9055000I75000J0D01*
G01*
G37*
G36*
G01*
X37775000Y-9055000D02*
X37925000Y-9055000D01*
G75*
G02*
X38000000Y-9130000I0J-75000D01*
G01*
X38000000Y-9830000D01*
G75*
G02*
X37925000Y-9905000I-75000J0D01*
G01*
X37775000Y-9905000D01*
G75*
G02*
X37700000Y-9830000I0J75000D01*
G01*
X37700000Y-9130000D01*
G75*
G02*
X37775000Y-9055000I75000J0D01*
G01*
G37*
G36*
G01*
X37275000Y-9055000D02*
X37425000Y-9055000D01*
G75*
G02*
X37500000Y-9130000I0J-75000D01*
G01*
X37500000Y-9830000D01*
G75*
G02*
X37425000Y-9905000I-75000J0D01*
G01*
X37275000Y-9905000D01*
G75*
G02*
X37200000Y-9830000I0J75000D01*
G01*
X37200000Y-9130000D01*
G75*
G02*
X37275000Y-9055000I75000J0D01*
G01*
G37*
G36*
G01*
X36775000Y-9055000D02*
X36925000Y-9055000D01*
G75*
G02*
X37000000Y-9130000I0J-75000D01*
G01*
X37000000Y-9830000D01*
G75*
G02*
X36925000Y-9905000I-75000J0D01*
G01*
X36775000Y-9905000D01*
G75*
G02*
X36700000Y-9830000I0J75000D01*
G01*
X36700000Y-9130000D01*
G75*
G02*
X36775000Y-9055000I75000J0D01*
G01*
G37*
%TD*%
%TO.C,TH1*%
G36*
G01*
X205924998Y-36595000D02*
X206825002Y-36595000D01*
G75*
G02*
X207075000Y-36844998I0J-249998D01*
G01*
X207075000Y-37370002D01*
G75*
G02*
X206825002Y-37620000I-249998J0D01*
G01*
X205924998Y-37620000D01*
G75*
G02*
X205675000Y-37370002I0J249998D01*
G01*
X205675000Y-36844998D01*
G75*
G02*
X205924998Y-36595000I249998J0D01*
G01*
G37*
G36*
G01*
X205924998Y-34770000D02*
X206825002Y-34770000D01*
G75*
G02*
X207075000Y-35019998I0J-249998D01*
G01*
X207075000Y-35545002D01*
G75*
G02*
X206825002Y-35795000I-249998J0D01*
G01*
X205924998Y-35795000D01*
G75*
G02*
X205675000Y-35545002I0J249998D01*
G01*
X205675000Y-35019998D01*
G75*
G02*
X205924998Y-34770000I249998J0D01*
G01*
G37*
%TD*%
%TO.C,R9*%
G36*
G01*
X51250002Y-24365000D02*
X50349998Y-24365000D01*
G75*
G02*
X50100000Y-24115002I0J249998D01*
G01*
X50100000Y-23589998D01*
G75*
G02*
X50349998Y-23340000I249998J0D01*
G01*
X51250002Y-23340000D01*
G75*
G02*
X51500000Y-23589998I0J-249998D01*
G01*
X51500000Y-24115002D01*
G75*
G02*
X51250002Y-24365000I-249998J0D01*
G01*
G37*
G36*
G01*
X51250002Y-26190000D02*
X50349998Y-26190000D01*
G75*
G02*
X50100000Y-25940002I0J249998D01*
G01*
X50100000Y-25414998D01*
G75*
G02*
X50349998Y-25165000I249998J0D01*
G01*
X51250002Y-25165000D01*
G75*
G02*
X51500000Y-25414998I0J-249998D01*
G01*
X51500000Y-25940002D01*
G75*
G02*
X51250002Y-26190000I-249998J0D01*
G01*
G37*
%TD*%
%TO.C,R8*%
G36*
G01*
X44215000Y-14420002D02*
X44215000Y-13519998D01*
G75*
G02*
X44464998Y-13270000I249998J0D01*
G01*
X44990002Y-13270000D01*
G75*
G02*
X45240000Y-13519998I0J-249998D01*
G01*
X45240000Y-14420002D01*
G75*
G02*
X44990002Y-14670000I-249998J0D01*
G01*
X44464998Y-14670000D01*
G75*
G02*
X44215000Y-14420002I0J249998D01*
G01*
G37*
G36*
G01*
X42390000Y-14420002D02*
X42390000Y-13519998D01*
G75*
G02*
X42639998Y-13270000I249998J0D01*
G01*
X43165002Y-13270000D01*
G75*
G02*
X43415000Y-13519998I0J-249998D01*
G01*
X43415000Y-14420002D01*
G75*
G02*
X43165002Y-14670000I-249998J0D01*
G01*
X42639998Y-14670000D01*
G75*
G02*
X42390000Y-14420002I0J249998D01*
G01*
G37*
%TD*%
%TO.C,R7*%
G36*
G01*
X43415000Y-11614998D02*
X43415000Y-12515002D01*
G75*
G02*
X43165002Y-12765000I-249998J0D01*
G01*
X42639998Y-12765000D01*
G75*
G02*
X42390000Y-12515002I0J249998D01*
G01*
X42390000Y-11614998D01*
G75*
G02*
X42639998Y-11365000I249998J0D01*
G01*
X43165002Y-11365000D01*
G75*
G02*
X43415000Y-11614998I0J-249998D01*
G01*
G37*
G36*
G01*
X45240000Y-11614998D02*
X45240000Y-12515002D01*
G75*
G02*
X44990002Y-12765000I-249998J0D01*
G01*
X44464998Y-12765000D01*
G75*
G02*
X44215000Y-12515002I0J249998D01*
G01*
X44215000Y-11614998D01*
G75*
G02*
X44464998Y-11365000I249998J0D01*
G01*
X44990002Y-11365000D01*
G75*
G02*
X45240000Y-11614998I0J-249998D01*
G01*
G37*
%TD*%
%TO.C,R6*%
G36*
G01*
X29445000Y-1454998D02*
X29445000Y-2355002D01*
G75*
G02*
X29195002Y-2605000I-249998J0D01*
G01*
X28669998Y-2605000D01*
G75*
G02*
X28420000Y-2355002I0J249998D01*
G01*
X28420000Y-1454998D01*
G75*
G02*
X28669998Y-1205000I249998J0D01*
G01*
X29195002Y-1205000D01*
G75*
G02*
X29445000Y-1454998I0J-249998D01*
G01*
G37*
G36*
G01*
X31270000Y-1454998D02*
X31270000Y-2355002D01*
G75*
G02*
X31020002Y-2605000I-249998J0D01*
G01*
X30494998Y-2605000D01*
G75*
G02*
X30245000Y-2355002I0J249998D01*
G01*
X30245000Y-1454998D01*
G75*
G02*
X30494998Y-1205000I249998J0D01*
G01*
X31020002Y-1205000D01*
G75*
G02*
X31270000Y-1454998I0J-249998D01*
G01*
G37*
%TD*%
%TO.C,R5*%
G36*
G01*
X14370000Y-13785002D02*
X14370000Y-12884998D01*
G75*
G02*
X14619998Y-12635000I249998J0D01*
G01*
X15145002Y-12635000D01*
G75*
G02*
X15395000Y-12884998I0J-249998D01*
G01*
X15395000Y-13785002D01*
G75*
G02*
X15145002Y-14035000I-249998J0D01*
G01*
X14619998Y-14035000D01*
G75*
G02*
X14370000Y-13785002I0J249998D01*
G01*
G37*
G36*
G01*
X12545000Y-13785002D02*
X12545000Y-12884998D01*
G75*
G02*
X12794998Y-12635000I249998J0D01*
G01*
X13320002Y-12635000D01*
G75*
G02*
X13570000Y-12884998I0J-249998D01*
G01*
X13570000Y-13785002D01*
G75*
G02*
X13320002Y-14035000I-249998J0D01*
G01*
X12794998Y-14035000D01*
G75*
G02*
X12545000Y-13785002I0J249998D01*
G01*
G37*
%TD*%
%TO.C,R3*%
G36*
G01*
X94850000Y-68764998D02*
X94850000Y-69665002D01*
G75*
G02*
X94600002Y-69915000I-249998J0D01*
G01*
X94074998Y-69915000D01*
G75*
G02*
X93825000Y-69665002I0J249998D01*
G01*
X93825000Y-68764998D01*
G75*
G02*
X94074998Y-68515000I249998J0D01*
G01*
X94600002Y-68515000D01*
G75*
G02*
X94850000Y-68764998I0J-249998D01*
G01*
G37*
G36*
G01*
X96675000Y-68764998D02*
X96675000Y-69665002D01*
G75*
G02*
X96425002Y-69915000I-249998J0D01*
G01*
X95899998Y-69915000D01*
G75*
G02*
X95650000Y-69665002I0J249998D01*
G01*
X95650000Y-68764998D01*
G75*
G02*
X95899998Y-68515000I249998J0D01*
G01*
X96425002Y-68515000D01*
G75*
G02*
X96675000Y-68764998I0J-249998D01*
G01*
G37*
%TD*%
D11*
%TO.C,Q2*%
X36860000Y-33020000D03*
X36860000Y-33970000D03*
X36860000Y-32070000D03*
X34260000Y-32070000D03*
X34260000Y-33020000D03*
X34260000Y-33970000D03*
%TD*%
%TO.C,LED1*%
G36*
G01*
X25585000Y-1448750D02*
X25585000Y-2361250D01*
G75*
G02*
X25341250Y-2605000I-243750J0D01*
G01*
X24853750Y-2605000D01*
G75*
G02*
X24610000Y-2361250I0J243750D01*
G01*
X24610000Y-1448750D01*
G75*
G02*
X24853750Y-1205000I243750J0D01*
G01*
X25341250Y-1205000D01*
G75*
G02*
X25585000Y-1448750I0J-243750D01*
G01*
G37*
G36*
G01*
X27460000Y-1448750D02*
X27460000Y-2361250D01*
G75*
G02*
X27216250Y-2605000I-243750J0D01*
G01*
X26728750Y-2605000D01*
G75*
G02*
X26485000Y-2361250I0J243750D01*
G01*
X26485000Y-1448750D01*
G75*
G02*
X26728750Y-1205000I243750J0D01*
G01*
X27216250Y-1205000D01*
G75*
G02*
X27460000Y-1448750I0J-243750D01*
G01*
G37*
%TD*%
D12*
%TO.C,L1*%
X32385000Y-15495000D03*
X32385000Y-12445000D03*
%TD*%
%TO.C,J6*%
G36*
G01*
X210704999Y-38320000D02*
X213205001Y-38320000D01*
G75*
G02*
X213455000Y-38569999I0J-249999D01*
G01*
X213455000Y-40170001D01*
G75*
G02*
X213205001Y-40420000I-249999J0D01*
G01*
X210704999Y-40420000D01*
G75*
G02*
X210455000Y-40170001I0J249999D01*
G01*
X210455000Y-38569999D01*
G75*
G02*
X210704999Y-38320000I249999J0D01*
G01*
G37*
G36*
G01*
X210704999Y-31970000D02*
X213205001Y-31970000D01*
G75*
G02*
X213455000Y-32219999I0J-249999D01*
G01*
X213455000Y-33820001D01*
G75*
G02*
X213205001Y-34070000I-249999J0D01*
G01*
X210704999Y-34070000D01*
G75*
G02*
X210455000Y-33820001I0J249999D01*
G01*
X210455000Y-32219999D01*
G75*
G02*
X210704999Y-31970000I249999J0D01*
G01*
G37*
G36*
G01*
X208455000Y-36420000D02*
X209655000Y-36420000D01*
G75*
G02*
X209855000Y-36620000I0J-200000D01*
G01*
X209855000Y-37020000D01*
G75*
G02*
X209655000Y-37220000I-200000J0D01*
G01*
X208455000Y-37220000D01*
G75*
G02*
X208255000Y-37020000I0J200000D01*
G01*
X208255000Y-36620000D01*
G75*
G02*
X208455000Y-36420000I200000J0D01*
G01*
G37*
G36*
G01*
X208455000Y-35170000D02*
X209655000Y-35170000D01*
G75*
G02*
X209855000Y-35370000I0J-200000D01*
G01*
X209855000Y-35770000D01*
G75*
G02*
X209655000Y-35970000I-200000J0D01*
G01*
X208455000Y-35970000D01*
G75*
G02*
X208255000Y-35770000I0J200000D01*
G01*
X208255000Y-35370000D01*
G75*
G02*
X208455000Y-35170000I200000J0D01*
G01*
G37*
%TD*%
D13*
%TO.C,F1*%
X123825000Y-31760000D03*
X123825000Y-25390000D03*
%TD*%
D14*
%TO.C,D34*%
X31750000Y-31370000D03*
X31750000Y-34670000D03*
%TD*%
D15*
%TO.C,D31*%
X209550000Y-82280000D03*
X210500000Y-80280000D03*
X208600000Y-80280000D03*
%TD*%
%TO.C,C13*%
G36*
G01*
X43020000Y-51620000D02*
X42070000Y-51620000D01*
G75*
G02*
X41820000Y-51370000I0J250000D01*
G01*
X41820000Y-50870000D01*
G75*
G02*
X42070000Y-50620000I250000J0D01*
G01*
X43020000Y-50620000D01*
G75*
G02*
X43270000Y-50870000I0J-250000D01*
G01*
X43270000Y-51370000D01*
G75*
G02*
X43020000Y-51620000I-250000J0D01*
G01*
G37*
G36*
G01*
X43020000Y-53520000D02*
X42070000Y-53520000D01*
G75*
G02*
X41820000Y-53270000I0J250000D01*
G01*
X41820000Y-52770000D01*
G75*
G02*
X42070000Y-52520000I250000J0D01*
G01*
X43020000Y-52520000D01*
G75*
G02*
X43270000Y-52770000I0J-250000D01*
G01*
X43270000Y-53270000D01*
G75*
G02*
X43020000Y-53520000I-250000J0D01*
G01*
G37*
%TD*%
%TO.C,C12*%
G36*
G01*
X35400000Y-53520000D02*
X34450000Y-53520000D01*
G75*
G02*
X34200000Y-53270000I0J250000D01*
G01*
X34200000Y-52770000D01*
G75*
G02*
X34450000Y-52520000I250000J0D01*
G01*
X35400000Y-52520000D01*
G75*
G02*
X35650000Y-52770000I0J-250000D01*
G01*
X35650000Y-53270000D01*
G75*
G02*
X35400000Y-53520000I-250000J0D01*
G01*
G37*
G36*
G01*
X35400000Y-51620000D02*
X34450000Y-51620000D01*
G75*
G02*
X34200000Y-51370000I0J250000D01*
G01*
X34200000Y-50870000D01*
G75*
G02*
X34450000Y-50620000I250000J0D01*
G01*
X35400000Y-50620000D01*
G75*
G02*
X35650000Y-50870000I0J-250000D01*
G01*
X35650000Y-51370000D01*
G75*
G02*
X35400000Y-51620000I-250000J0D01*
G01*
G37*
%TD*%
%TO.C,C11*%
G36*
G01*
X43340000Y-23310000D02*
X44290000Y-23310000D01*
G75*
G02*
X44540000Y-23560000I0J-250000D01*
G01*
X44540000Y-24060000D01*
G75*
G02*
X44290000Y-24310000I-250000J0D01*
G01*
X43340000Y-24310000D01*
G75*
G02*
X43090000Y-24060000I0J250000D01*
G01*
X43090000Y-23560000D01*
G75*
G02*
X43340000Y-23310000I250000J0D01*
G01*
G37*
G36*
G01*
X43340000Y-21410000D02*
X44290000Y-21410000D01*
G75*
G02*
X44540000Y-21660000I0J-250000D01*
G01*
X44540000Y-22160000D01*
G75*
G02*
X44290000Y-22410000I-250000J0D01*
G01*
X43340000Y-22410000D01*
G75*
G02*
X43090000Y-22160000I0J250000D01*
G01*
X43090000Y-21660000D01*
G75*
G02*
X43340000Y-21410000I250000J0D01*
G01*
G37*
%TD*%
%TO.C,C8*%
G36*
G01*
X23970000Y-11742000D02*
X23020000Y-11742000D01*
G75*
G02*
X22770000Y-11492000I0J250000D01*
G01*
X22770000Y-10992000D01*
G75*
G02*
X23020000Y-10742000I250000J0D01*
G01*
X23970000Y-10742000D01*
G75*
G02*
X24220000Y-10992000I0J-250000D01*
G01*
X24220000Y-11492000D01*
G75*
G02*
X23970000Y-11742000I-250000J0D01*
G01*
G37*
G36*
G01*
X23970000Y-13642000D02*
X23020000Y-13642000D01*
G75*
G02*
X22770000Y-13392000I0J250000D01*
G01*
X22770000Y-12892000D01*
G75*
G02*
X23020000Y-12642000I250000J0D01*
G01*
X23970000Y-12642000D01*
G75*
G02*
X24220000Y-12892000I0J-250000D01*
G01*
X24220000Y-13392000D01*
G75*
G02*
X23970000Y-13642000I-250000J0D01*
G01*
G37*
%TD*%
%TO.C,C7*%
G36*
G01*
X27490000Y-12225000D02*
X27490000Y-13175000D01*
G75*
G02*
X27240000Y-13425000I-250000J0D01*
G01*
X26740000Y-13425000D01*
G75*
G02*
X26490000Y-13175000I0J250000D01*
G01*
X26490000Y-12225000D01*
G75*
G02*
X26740000Y-11975000I250000J0D01*
G01*
X27240000Y-11975000D01*
G75*
G02*
X27490000Y-12225000I0J-250000D01*
G01*
G37*
G36*
G01*
X29390000Y-12225000D02*
X29390000Y-13175000D01*
G75*
G02*
X29140000Y-13425000I-250000J0D01*
G01*
X28640000Y-13425000D01*
G75*
G02*
X28390000Y-13175000I0J250000D01*
G01*
X28390000Y-12225000D01*
G75*
G02*
X28640000Y-11975000I250000J0D01*
G01*
X29140000Y-11975000D01*
G75*
G02*
X29390000Y-12225000I0J-250000D01*
G01*
G37*
%TD*%
%TO.C,C5*%
G36*
G01*
X28390000Y-15715000D02*
X28390000Y-14765000D01*
G75*
G02*
X28640000Y-14515000I250000J0D01*
G01*
X29140000Y-14515000D01*
G75*
G02*
X29390000Y-14765000I0J-250000D01*
G01*
X29390000Y-15715000D01*
G75*
G02*
X29140000Y-15965000I-250000J0D01*
G01*
X28640000Y-15965000D01*
G75*
G02*
X28390000Y-15715000I0J250000D01*
G01*
G37*
G36*
G01*
X26490000Y-15715000D02*
X26490000Y-14765000D01*
G75*
G02*
X26740000Y-14515000I250000J0D01*
G01*
X27240000Y-14515000D01*
G75*
G02*
X27490000Y-14765000I0J-250000D01*
G01*
X27490000Y-15715000D01*
G75*
G02*
X27240000Y-15965000I-250000J0D01*
G01*
X26740000Y-15965000D01*
G75*
G02*
X26490000Y-15715000I0J250000D01*
G01*
G37*
%TD*%
D16*
%TO.C,J3*%
X21665000Y-6585000D03*
X20865000Y-6585000D03*
X15965000Y-6585000D03*
X15165000Y-6585000D03*
X15165000Y-6585000D03*
X15965000Y-6585000D03*
X20865000Y-6585000D03*
X21665000Y-6585000D03*
D17*
X16665000Y-6585000D03*
X17165000Y-6585000D03*
X17665000Y-6585000D03*
X18665000Y-6585000D03*
X19165000Y-6585000D03*
X19665000Y-6585000D03*
X20165000Y-6585000D03*
X18165000Y-6585000D03*
%TD*%
D15*
%TO.C,Q1*%
X95250000Y-65040000D03*
X94300000Y-67040000D03*
X96200000Y-67040000D03*
%TD*%
%TO.C,J5*%
G36*
G01*
X172604999Y-38320000D02*
X175105001Y-38320000D01*
G75*
G02*
X175355000Y-38569999I0J-249999D01*
G01*
X175355000Y-40170001D01*
G75*
G02*
X175105001Y-40420000I-249999J0D01*
G01*
X172604999Y-40420000D01*
G75*
G02*
X172355000Y-40170001I0J249999D01*
G01*
X172355000Y-38569999D01*
G75*
G02*
X172604999Y-38320000I249999J0D01*
G01*
G37*
G36*
G01*
X172604999Y-31970000D02*
X175105001Y-31970000D01*
G75*
G02*
X175355000Y-32219999I0J-249999D01*
G01*
X175355000Y-33820001D01*
G75*
G02*
X175105001Y-34070000I-249999J0D01*
G01*
X172604999Y-34070000D01*
G75*
G02*
X172355000Y-33820001I0J249999D01*
G01*
X172355000Y-32219999D01*
G75*
G02*
X172604999Y-31970000I249999J0D01*
G01*
G37*
G36*
G01*
X170355000Y-36420000D02*
X171555000Y-36420000D01*
G75*
G02*
X171755000Y-36620000I0J-200000D01*
G01*
X171755000Y-37020000D01*
G75*
G02*
X171555000Y-37220000I-200000J0D01*
G01*
X170355000Y-37220000D01*
G75*
G02*
X170155000Y-37020000I0J200000D01*
G01*
X170155000Y-36620000D01*
G75*
G02*
X170355000Y-36420000I200000J0D01*
G01*
G37*
G36*
G01*
X170355000Y-35170000D02*
X171555000Y-35170000D01*
G75*
G02*
X171755000Y-35370000I0J-200000D01*
G01*
X171755000Y-35770000D01*
G75*
G02*
X171555000Y-35970000I-200000J0D01*
G01*
X170355000Y-35970000D01*
G75*
G02*
X170155000Y-35770000I0J200000D01*
G01*
X170155000Y-35370000D01*
G75*
G02*
X170355000Y-35170000I200000J0D01*
G01*
G37*
%TD*%
%TO.C,J4*%
G36*
G01*
X137975000Y-38795000D02*
X140875000Y-38795000D01*
G75*
G02*
X141125000Y-39045000I0J-250000D01*
G01*
X141125000Y-40045000D01*
G75*
G02*
X140875000Y-40295000I-250000J0D01*
G01*
X137975000Y-40295000D01*
G75*
G02*
X137725000Y-40045000I0J250000D01*
G01*
X137725000Y-39045000D01*
G75*
G02*
X137975000Y-38795000I250000J0D01*
G01*
G37*
G36*
G01*
X137975000Y-32095000D02*
X140875000Y-32095000D01*
G75*
G02*
X141125000Y-32345000I0J-250000D01*
G01*
X141125000Y-33345000D01*
G75*
G02*
X140875000Y-33595000I-250000J0D01*
G01*
X137975000Y-33595000D01*
G75*
G02*
X137725000Y-33345000I0J250000D01*
G01*
X137725000Y-32345000D01*
G75*
G02*
X137975000Y-32095000I250000J0D01*
G01*
G37*
G36*
G01*
X132175000Y-36695000D02*
X135175000Y-36695000D01*
G75*
G02*
X135425000Y-36945000I0J-250000D01*
G01*
X135425000Y-37445000D01*
G75*
G02*
X135175000Y-37695000I-250000J0D01*
G01*
X132175000Y-37695000D01*
G75*
G02*
X131925000Y-37445000I0J250000D01*
G01*
X131925000Y-36945000D01*
G75*
G02*
X132175000Y-36695000I250000J0D01*
G01*
G37*
G36*
G01*
X132175000Y-34695000D02*
X135175000Y-34695000D01*
G75*
G02*
X135425000Y-34945000I0J-250000D01*
G01*
X135425000Y-35445000D01*
G75*
G02*
X135175000Y-35695000I-250000J0D01*
G01*
X132175000Y-35695000D01*
G75*
G02*
X131925000Y-35445000I0J250000D01*
G01*
X131925000Y-34945000D01*
G75*
G02*
X132175000Y-34695000I250000J0D01*
G01*
G37*
%TD*%
D18*
%TO.C,Y1*%
X107930000Y-71120000D03*
X105430000Y-71120000D03*
%TD*%
%TO.C,R2*%
G36*
G01*
X93529998Y-62630000D02*
X94430002Y-62630000D01*
G75*
G02*
X94680000Y-62879998I0J-249998D01*
G01*
X94680000Y-63405002D01*
G75*
G02*
X94430002Y-63655000I-249998J0D01*
G01*
X93529998Y-63655000D01*
G75*
G02*
X93280000Y-63405002I0J249998D01*
G01*
X93280000Y-62879998D01*
G75*
G02*
X93529998Y-62630000I249998J0D01*
G01*
G37*
G36*
G01*
X93529998Y-60805000D02*
X94430002Y-60805000D01*
G75*
G02*
X94680000Y-61054998I0J-249998D01*
G01*
X94680000Y-61580002D01*
G75*
G02*
X94430002Y-61830000I-249998J0D01*
G01*
X93529998Y-61830000D01*
G75*
G02*
X93280000Y-61580002I0J249998D01*
G01*
X93280000Y-61054998D01*
G75*
G02*
X93529998Y-60805000I249998J0D01*
G01*
G37*
%TD*%
%TO.C,R1*%
G36*
G01*
X96970002Y-61830000D02*
X96069998Y-61830000D01*
G75*
G02*
X95820000Y-61580002I0J249998D01*
G01*
X95820000Y-61054998D01*
G75*
G02*
X96069998Y-60805000I249998J0D01*
G01*
X96970002Y-60805000D01*
G75*
G02*
X97220000Y-61054998I0J-249998D01*
G01*
X97220000Y-61580002D01*
G75*
G02*
X96970002Y-61830000I-249998J0D01*
G01*
G37*
G36*
G01*
X96970002Y-63655000D02*
X96069998Y-63655000D01*
G75*
G02*
X95820000Y-63405002I0J249998D01*
G01*
X95820000Y-62879998D01*
G75*
G02*
X96069998Y-62630000I249998J0D01*
G01*
X96970002Y-62630000D01*
G75*
G02*
X97220000Y-62879998I0J-249998D01*
G01*
X97220000Y-63405002D01*
G75*
G02*
X96970002Y-63655000I-249998J0D01*
G01*
G37*
%TD*%
%TO.C,R4*%
G36*
G01*
X9760000Y-12884998D02*
X9760000Y-13785002D01*
G75*
G02*
X9510002Y-14035000I-249998J0D01*
G01*
X8984998Y-14035000D01*
G75*
G02*
X8735000Y-13785002I0J249998D01*
G01*
X8735000Y-12884998D01*
G75*
G02*
X8984998Y-12635000I249998J0D01*
G01*
X9510002Y-12635000D01*
G75*
G02*
X9760000Y-12884998I0J-249998D01*
G01*
G37*
G36*
G01*
X11585000Y-12884998D02*
X11585000Y-13785002D01*
G75*
G02*
X11335002Y-14035000I-249998J0D01*
G01*
X10809998Y-14035000D01*
G75*
G02*
X10560000Y-13785002I0J249998D01*
G01*
X10560000Y-12884998D01*
G75*
G02*
X10809998Y-12635000I249998J0D01*
G01*
X11335002Y-12635000D01*
G75*
G02*
X11585000Y-12884998I0J-249998D01*
G01*
G37*
%TD*%
%TO.C,C4*%
G36*
G01*
X118585000Y-71305000D02*
X117635000Y-71305000D01*
G75*
G02*
X117385000Y-71055000I0J250000D01*
G01*
X117385000Y-70555000D01*
G75*
G02*
X117635000Y-70305000I250000J0D01*
G01*
X118585000Y-70305000D01*
G75*
G02*
X118835000Y-70555000I0J-250000D01*
G01*
X118835000Y-71055000D01*
G75*
G02*
X118585000Y-71305000I-250000J0D01*
G01*
G37*
G36*
G01*
X118585000Y-73205000D02*
X117635000Y-73205000D01*
G75*
G02*
X117385000Y-72955000I0J250000D01*
G01*
X117385000Y-72455000D01*
G75*
G02*
X117635000Y-72205000I250000J0D01*
G01*
X118585000Y-72205000D01*
G75*
G02*
X118835000Y-72455000I0J-250000D01*
G01*
X118835000Y-72955000D01*
G75*
G02*
X118585000Y-73205000I-250000J0D01*
G01*
G37*
%TD*%
%TO.C,C3*%
G36*
G01*
X121125000Y-71305000D02*
X120175000Y-71305000D01*
G75*
G02*
X119925000Y-71055000I0J250000D01*
G01*
X119925000Y-70555000D01*
G75*
G02*
X120175000Y-70305000I250000J0D01*
G01*
X121125000Y-70305000D01*
G75*
G02*
X121375000Y-70555000I0J-250000D01*
G01*
X121375000Y-71055000D01*
G75*
G02*
X121125000Y-71305000I-250000J0D01*
G01*
G37*
G36*
G01*
X121125000Y-73205000D02*
X120175000Y-73205000D01*
G75*
G02*
X119925000Y-72955000I0J250000D01*
G01*
X119925000Y-72455000D01*
G75*
G02*
X120175000Y-72205000I250000J0D01*
G01*
X121125000Y-72205000D01*
G75*
G02*
X121375000Y-72455000I0J-250000D01*
G01*
X121375000Y-72955000D01*
G75*
G02*
X121125000Y-73205000I-250000J0D01*
G01*
G37*
%TD*%
%TO.C,C2*%
G36*
G01*
X109380000Y-71570000D02*
X110330000Y-71570000D01*
G75*
G02*
X110580000Y-71820000I0J-250000D01*
G01*
X110580000Y-72320000D01*
G75*
G02*
X110330000Y-72570000I-250000J0D01*
G01*
X109380000Y-72570000D01*
G75*
G02*
X109130000Y-72320000I0J250000D01*
G01*
X109130000Y-71820000D01*
G75*
G02*
X109380000Y-71570000I250000J0D01*
G01*
G37*
G36*
G01*
X109380000Y-69670000D02*
X110330000Y-69670000D01*
G75*
G02*
X110580000Y-69920000I0J-250000D01*
G01*
X110580000Y-70420000D01*
G75*
G02*
X110330000Y-70670000I-250000J0D01*
G01*
X109380000Y-70670000D01*
G75*
G02*
X109130000Y-70420000I0J250000D01*
G01*
X109130000Y-69920000D01*
G75*
G02*
X109380000Y-69670000I250000J0D01*
G01*
G37*
%TD*%
%TO.C,C1*%
G36*
G01*
X103980000Y-70670000D02*
X103030000Y-70670000D01*
G75*
G02*
X102780000Y-70420000I0J250000D01*
G01*
X102780000Y-69920000D01*
G75*
G02*
X103030000Y-69670000I250000J0D01*
G01*
X103980000Y-69670000D01*
G75*
G02*
X104230000Y-69920000I0J-250000D01*
G01*
X104230000Y-70420000D01*
G75*
G02*
X103980000Y-70670000I-250000J0D01*
G01*
G37*
G36*
G01*
X103980000Y-72570000D02*
X103030000Y-72570000D01*
G75*
G02*
X102780000Y-72320000I0J250000D01*
G01*
X102780000Y-71820000D01*
G75*
G02*
X103030000Y-71570000I250000J0D01*
G01*
X103980000Y-71570000D01*
G75*
G02*
X104230000Y-71820000I0J-250000D01*
G01*
X104230000Y-72320000D01*
G75*
G02*
X103980000Y-72570000I-250000J0D01*
G01*
G37*
%TD*%
D15*
%TO.C,D1*%
X27940000Y-6080000D03*
X28890000Y-4080000D03*
X26990000Y-4080000D03*
%TD*%
D19*
%TO.C,U1*%
X120755000Y-88910000D03*
X120755000Y-88110000D03*
X119955000Y-88110000D03*
X120755000Y-87310000D03*
X119955000Y-87310000D03*
X120755000Y-86510000D03*
X119955000Y-86510000D03*
X120755000Y-85710000D03*
X119955000Y-85710000D03*
X120755000Y-84910000D03*
X119955000Y-84910000D03*
X120755000Y-84110000D03*
X119955000Y-84110000D03*
X120755000Y-83310000D03*
X119955000Y-83310000D03*
X120755000Y-82510000D03*
X119955000Y-82510000D03*
X120755000Y-81710000D03*
X119955000Y-81710000D03*
X120755000Y-80910000D03*
X119955000Y-80910000D03*
X120755000Y-80110000D03*
X119955000Y-80110000D03*
X120605000Y-79310000D03*
X119805000Y-79310000D03*
X119005000Y-79310000D03*
X119005000Y-80110000D03*
X118205000Y-79310000D03*
X118205000Y-80110000D03*
X117405000Y-79310000D03*
X117405000Y-80110000D03*
X116605000Y-79310000D03*
X116605000Y-80110000D03*
X115805000Y-79310000D03*
X115805000Y-80110000D03*
X115005000Y-79310000D03*
X115005000Y-80110000D03*
X114205000Y-79310000D03*
X114205000Y-80110000D03*
X113405000Y-79310000D03*
X113405000Y-80110000D03*
X112605000Y-79310000D03*
X111805000Y-79310000D03*
X111655000Y-80110000D03*
X112455000Y-80110000D03*
X111655000Y-80910000D03*
X112455000Y-80910000D03*
X111655000Y-81710000D03*
X112455000Y-81710000D03*
X111655000Y-82510000D03*
X112455000Y-82510000D03*
X111655000Y-83310000D03*
X112455000Y-83310000D03*
X111655000Y-84110000D03*
X112455000Y-84110000D03*
X111655000Y-84910000D03*
X112455000Y-84910000D03*
X111655000Y-85710000D03*
X112455000Y-85710000D03*
X111655000Y-86510000D03*
X112455000Y-86510000D03*
X111655000Y-87310000D03*
X112455000Y-87310000D03*
X111655000Y-88110000D03*
X112455000Y-88110000D03*
X111655000Y-88910000D03*
X120755000Y-90210000D03*
X120755000Y-91510000D03*
X120755000Y-92810000D03*
X114330000Y-88110000D03*
X116205000Y-88110000D03*
X118080000Y-88110000D03*
X119955000Y-89560000D03*
%TD*%
D15*
%TO.C,D33*%
X266715000Y-82645000D03*
X267665000Y-80645000D03*
X265765000Y-80645000D03*
%TD*%
%TO.C,D32*%
X228615000Y-82645000D03*
X229565000Y-80645000D03*
X227665000Y-80645000D03*
%TD*%
%TO.C,D30*%
X69071250Y-82645000D03*
X70021250Y-80645000D03*
X68121250Y-80645000D03*
%TD*%
%TO.C,D29*%
X21446250Y-82645000D03*
X22396250Y-80645000D03*
X20496250Y-80645000D03*
%TD*%
%TO.C,D28*%
X266715000Y-63595000D03*
X267665000Y-61595000D03*
X265765000Y-61595000D03*
%TD*%
%TO.C,D27*%
X228615000Y-63595000D03*
X229565000Y-61595000D03*
X227665000Y-61595000D03*
%TD*%
%TO.C,D26*%
X190515000Y-63595000D03*
X191465000Y-61595000D03*
X189565000Y-61595000D03*
%TD*%
%TO.C,D25*%
X152415000Y-63595000D03*
X153365000Y-61595000D03*
X151465000Y-61595000D03*
%TD*%
%TO.C,D24*%
X114315000Y-63595000D03*
X115265000Y-61595000D03*
X113365000Y-61595000D03*
%TD*%
%TO.C,D23*%
X76215000Y-63595000D03*
X77165000Y-61595000D03*
X75265000Y-61595000D03*
%TD*%
%TO.C,D22*%
X38100000Y-63595000D03*
X39050000Y-61595000D03*
X37150000Y-61595000D03*
%TD*%
%TO.C,D21*%
X245110000Y-44545000D03*
X246060000Y-42545000D03*
X244160000Y-42545000D03*
%TD*%
%TO.C,D20*%
X223852500Y-44545000D03*
X224802500Y-42545000D03*
X222902500Y-42545000D03*
%TD*%
%TO.C,D19*%
X185752500Y-44545000D03*
X186702500Y-42545000D03*
X184802500Y-42545000D03*
%TD*%
%TO.C,D18*%
X147652500Y-44545000D03*
X148602500Y-42545000D03*
X146702500Y-42545000D03*
%TD*%
%TO.C,D17*%
X109552500Y-44545000D03*
X110502500Y-42545000D03*
X108602500Y-42545000D03*
%TD*%
%TO.C,D16*%
X71452500Y-44545000D03*
X72402500Y-42545000D03*
X70502500Y-42545000D03*
%TD*%
%TO.C,D15*%
X34290000Y-44545000D03*
X35240000Y-42545000D03*
X33340000Y-42545000D03*
%TD*%
%TO.C,D14*%
X254000000Y-25495000D03*
X254950000Y-23495000D03*
X253050000Y-23495000D03*
%TD*%
%TO.C,D13*%
X219090000Y-25495000D03*
X220040000Y-23495000D03*
X218140000Y-23495000D03*
%TD*%
%TO.C,D12*%
X180990000Y-25495000D03*
X181940000Y-23495000D03*
X180040000Y-23495000D03*
%TD*%
%TO.C,D11*%
X142890000Y-25495000D03*
X143840000Y-23495000D03*
X141940000Y-23495000D03*
%TD*%
%TO.C,D10*%
X104790000Y-25495000D03*
X105740000Y-23495000D03*
X103840000Y-23495000D03*
%TD*%
%TO.C,D9*%
X66690000Y-25495000D03*
X67640000Y-23495000D03*
X65740000Y-23495000D03*
%TD*%
%TO.C,D8*%
X30480000Y-25495000D03*
X31430000Y-23495000D03*
X29530000Y-23495000D03*
%TD*%
%TO.C,D7*%
X247665000Y-6445000D03*
X248615000Y-4445000D03*
X246715000Y-4445000D03*
%TD*%
%TO.C,D6*%
X209565000Y-6445000D03*
X210515000Y-4445000D03*
X208615000Y-4445000D03*
%TD*%
%TO.C,D5*%
X171465000Y-6445000D03*
X172415000Y-4445000D03*
X170515000Y-4445000D03*
%TD*%
%TO.C,D4*%
X133365000Y-6445000D03*
X134315000Y-4445000D03*
X132415000Y-4445000D03*
%TD*%
%TO.C,D3*%
X95265000Y-6445000D03*
X96215000Y-4445000D03*
X94315000Y-4445000D03*
%TD*%
%TO.C,D2*%
X57165000Y-6445000D03*
X58115000Y-4445000D03*
X56215000Y-4445000D03*
%TD*%
M02*
