%TF.GenerationSoftware,KiCad,Pcbnew,5.1.9*%
%TF.CreationDate,2021-02-24T13:07:44+00:00*%
%TF.ProjectId,keyboard,6b657962-6f61-4726-942e-6b696361645f,A*%
%TF.SameCoordinates,PX3072580PY3072580*%
%TF.FileFunction,Paste,Top*%
%TF.FilePolarity,Positive*%
%FSLAX46Y46*%
G04 Gerber Fmt 4.6, Leading zero omitted, Abs format (unit mm)*
G04 Created by KiCad (PCBNEW 5.1.9) date 2021-02-24 13:07:44*
%MOMM*%
%LPD*%
G01*
G04 APERTURE LIST*
%ADD10R,0.740000X2.400000*%
G04 APERTURE END LIST*
D10*
%TO.C,J2*%
X154940000Y-85770000D03*
X154940000Y-81870000D03*
X156210000Y-85770000D03*
X156210000Y-81870000D03*
X157480000Y-85770000D03*
X157480000Y-81870000D03*
X158750000Y-85770000D03*
X158750000Y-81870000D03*
X160020000Y-85770000D03*
X160020000Y-81870000D03*
X161290000Y-85770000D03*
X161290000Y-81870000D03*
X162560000Y-85770000D03*
X162560000Y-81870000D03*
X163830000Y-85770000D03*
X163830000Y-81870000D03*
X165100000Y-85770000D03*
X165100000Y-81870000D03*
X166370000Y-85770000D03*
X166370000Y-81870000D03*
%TD*%
%TO.C,LED2*%
G36*
G01*
X3631250Y-47175000D02*
X2718750Y-47175000D01*
G75*
G02*
X2475000Y-46931250I0J243750D01*
G01*
X2475000Y-46443750D01*
G75*
G02*
X2718750Y-46200000I243750J0D01*
G01*
X3631250Y-46200000D01*
G75*
G02*
X3875000Y-46443750I0J-243750D01*
G01*
X3875000Y-46931250D01*
G75*
G02*
X3631250Y-47175000I-243750J0D01*
G01*
G37*
G36*
G01*
X3631250Y-49050000D02*
X2718750Y-49050000D01*
G75*
G02*
X2475000Y-48806250I0J243750D01*
G01*
X2475000Y-48318750D01*
G75*
G02*
X2718750Y-48075000I243750J0D01*
G01*
X3631250Y-48075000D01*
G75*
G02*
X3875000Y-48318750I0J-243750D01*
G01*
X3875000Y-48806250D01*
G75*
G02*
X3631250Y-49050000I-243750J0D01*
G01*
G37*
%TD*%
%TO.C,J1*%
X143510000Y-85770000D03*
X143510000Y-81870000D03*
X144780000Y-85770000D03*
X144780000Y-81870000D03*
X146050000Y-85770000D03*
X146050000Y-81870000D03*
X147320000Y-85770000D03*
X147320000Y-81870000D03*
X148590000Y-85770000D03*
X148590000Y-81870000D03*
%TD*%
M02*
