M48
; DRILL file {KiCad 5.1.9} date Wed Feb 24 13:07:46 2021
; FORMAT={-:-/ absolute / metric / decimal}
; #@! TF.CreationDate,2021-02-24T13:07:46+00:00
; #@! TF.GenerationSoftware,Kicad,Pcbnew,5.1.9
; #@! TF.FileFunction,NonPlated,1,2,NPTH
FMAT,2
METRIC
T1C0.650
T2C1.500
T3C1.700
T4C3.050
T5C4.000
%
G90
G05
T1
X15.525Y-5.14
X21.305Y-5.14
T2
X29.21Y-44.795
X29.21Y-52.995
T3
X4.445Y-9.525
X6.826Y-85.725
X9.207Y-28.575
X11.589Y-47.625
X13.97Y-66.675
X14.605Y-9.525
X16.986Y-85.725
X19.367Y-28.575
X21.749Y-47.625
X23.495Y-9.525
X24.13Y-66.675
X30.639Y-85.725
X33.02Y-28.575
X33.655Y-9.525
X37.782Y-47.625
X40.799Y-85.725
X42.545Y-9.525
X42.545Y-66.675
X43.18Y-28.575
X47.942Y-47.625
X52.07Y-28.575
X52.705Y-9.525
X52.705Y-66.675
X54.451Y-85.725
X56.832Y-47.625
X61.595Y-9.525
X61.595Y-66.675
X62.23Y-28.575
X64.611Y-85.725
X66.992Y-47.625
X71.12Y-28.575
X71.755Y-9.525
X71.755Y-66.675
X75.882Y-47.625
X80.645Y-9.525
X80.645Y-66.675
X81.28Y-28.575
X86.042Y-47.625
X90.17Y-28.575
X90.805Y-9.525
X90.805Y-66.675
X94.932Y-47.625
X99.695Y-9.525
X99.695Y-66.675
X100.33Y-28.575
X105.093Y-47.625
X109.22Y-28.575
X109.855Y-9.525
X109.855Y-66.675
X113.983Y-47.625
X118.745Y-9.525
X118.745Y-66.675
X119.38Y-28.575
X124.142Y-47.625
X125.889Y-85.725
X128.27Y-28.575
X128.905Y-9.525
X128.905Y-66.675
X133.032Y-47.625
X136.049Y-85.725
X137.795Y-9.525
X137.795Y-66.675
X138.43Y-28.575
X143.192Y-47.625
X147.32Y-28.575
X147.955Y-9.525
X147.955Y-66.675
X152.082Y-47.625
X156.845Y-9.525
X156.845Y-66.675
X157.48Y-28.575
X162.243Y-47.625
X166.37Y-28.575
X167.005Y-9.525
X167.005Y-66.675
X171.132Y-47.625
X175.895Y-9.525
X175.895Y-66.675
X176.53Y-28.575
X181.292Y-47.625
X185.42Y-28.575
X186.055Y-9.525
X186.055Y-66.675
X190.183Y-47.625
X194.945Y-9.525
X194.945Y-66.675
X194.945Y-85.725
X195.58Y-28.575
X200.343Y-47.625
X204.47Y-28.575
X205.105Y-9.525
X205.105Y-66.675
X205.105Y-85.725
X209.232Y-47.625
X213.995Y-9.525
X213.995Y-66.675
X213.995Y-85.725
X214.63Y-28.575
X219.392Y-47.625
X223.52Y-28.575
X224.155Y-9.525
X224.155Y-66.675
X224.155Y-85.725
X228.282Y-47.625
X233.045Y-9.525
X233.045Y-66.675
X233.045Y-85.725
X233.68Y-28.575
X238.442Y-47.625
X242.57Y-28.575
X243.205Y-9.525
X243.205Y-66.675
X243.205Y-85.725
X252.095Y-66.675
X252.095Y-85.725
X252.73Y-28.575
X259.239Y-47.625
X261.62Y-9.525
X262.255Y-66.675
X262.255Y-85.725
X266.382Y-28.575
X269.399Y-47.625
X271.145Y-66.675
X271.145Y-85.725
X271.78Y-9.525
X276.542Y-28.575
X281.305Y-66.675
X281.305Y-85.725
T4
X7.15Y-59.675
X30.95Y-59.675
X80.969Y-92.725
X180.969Y-92.725
X252.419Y-40.625
X254.8Y-2.525
X276.219Y-40.625
X278.6Y-2.525
T5
X7.15Y-74.915
X9.525Y-9.525
X11.906Y-85.725
X14.287Y-28.575
X16.669Y-47.625
X19.05Y-66.675
X28.575Y-9.525
X30.95Y-74.915
X35.719Y-85.725
X38.1Y-28.575
X42.862Y-47.625
X47.625Y-9.525
X47.625Y-66.675
X57.15Y-28.575
X59.531Y-85.725
X61.912Y-47.625
X66.675Y-9.525
X66.675Y-66.675
X76.2Y-28.575
X80.962Y-47.625
X80.969Y-77.485
X85.725Y-9.525
X85.725Y-66.675
X95.25Y-28.575
X100.012Y-47.625
X104.775Y-9.525
X104.775Y-66.675
X114.3Y-28.575
X119.062Y-47.625
X123.825Y-9.525
X123.825Y-66.675
X130.969Y-85.725
X133.35Y-28.575
X138.112Y-47.625
X142.875Y-9.525
X142.875Y-66.675
X152.4Y-28.575
X157.162Y-47.625
X161.925Y-9.525
X161.925Y-66.675
X171.45Y-28.575
X176.213Y-47.625
X180.969Y-77.485
X180.975Y-9.525
X180.975Y-66.675
X190.5Y-28.575
X195.262Y-47.625
X200.025Y-9.525
X200.025Y-66.675
X200.025Y-85.725
X209.55Y-28.575
X214.312Y-47.625
X219.075Y-9.525
X219.075Y-66.675
X219.075Y-85.725
X228.6Y-28.575
X233.362Y-47.625
X238.125Y-9.525
X238.125Y-66.675
X238.125Y-85.725
X247.65Y-28.575
X252.419Y-55.865
X254.8Y-17.765
X257.175Y-66.675
X257.175Y-85.725
X264.319Y-47.625
X266.7Y-9.525
X271.462Y-28.575
X276.219Y-55.865
X276.225Y-66.675
X276.225Y-85.725
X278.6Y-17.765
T0
M30
