%TF.GenerationSoftware,KiCad,Pcbnew,5.1.9*%
%TF.CreationDate,2021-02-05T17:27:01+00:00*%
%TF.ProjectId,keyboard,6b657962-6f61-4726-942e-6b696361645f,A*%
%TF.SameCoordinates,PX3072580PY3072580*%
%TF.FileFunction,Soldermask,Top*%
%TF.FilePolarity,Negative*%
%FSLAX46Y46*%
G04 Gerber Fmt 4.6, Leading zero omitted, Abs format (unit mm)*
G04 Created by KiCad (PCBNEW 5.1.9) date 2021-02-05 17:27:01*
%MOMM*%
%LPD*%
G01*
G04 APERTURE LIST*
%ADD10C,1.800000*%
%ADD11R,1.800000X1.800000*%
%ADD12R,0.740000X2.400000*%
%ADD13C,1.700000*%
%ADD14C,4.000000*%
%ADD15C,2.200000*%
%ADD16O,1.700000X1.700000*%
%ADD17R,1.700000X1.700000*%
%ADD18C,3.050000*%
%ADD19R,1.308000X1.308000*%
%ADD20C,1.308000*%
%ADD21C,1.500000*%
%ADD22O,1.000000X2.100000*%
%ADD23C,0.650000*%
%ADD24O,1.000000X1.600000*%
%ADD25C,7.000000*%
%ADD26O,10.000000X7.000000*%
G04 APERTURE END LIST*
D10*
%TO.C,LED3*%
X6985000Y-46355000D03*
D11*
X6985000Y-48895000D03*
%TD*%
D12*
%TO.C,J2*%
X154940000Y-85770000D03*
X154940000Y-81870000D03*
X156210000Y-85770000D03*
X156210000Y-81870000D03*
X157480000Y-85770000D03*
X157480000Y-81870000D03*
X158750000Y-85770000D03*
X158750000Y-81870000D03*
X160020000Y-85770000D03*
X160020000Y-81870000D03*
X161290000Y-85770000D03*
X161290000Y-81870000D03*
X162560000Y-85770000D03*
X162560000Y-81870000D03*
X163830000Y-85770000D03*
X163830000Y-81870000D03*
X165100000Y-85770000D03*
X165100000Y-81870000D03*
X166370000Y-85770000D03*
X166370000Y-81870000D03*
%TD*%
D13*
%TO.C,S5*%
X90805000Y-9525000D03*
X80645000Y-9525000D03*
D14*
X85725000Y-9525000D03*
D15*
X81915000Y-6985000D03*
X88265000Y-4445000D03*
%TD*%
%TO.C,LED2*%
G36*
G01*
X3631250Y-47175000D02*
X2718750Y-47175000D01*
G75*
G02*
X2475000Y-46931250I0J243750D01*
G01*
X2475000Y-46443750D01*
G75*
G02*
X2718750Y-46200000I243750J0D01*
G01*
X3631250Y-46200000D01*
G75*
G02*
X3875000Y-46443750I0J-243750D01*
G01*
X3875000Y-46931250D01*
G75*
G02*
X3631250Y-47175000I-243750J0D01*
G01*
G37*
G36*
G01*
X3631250Y-49050000D02*
X2718750Y-49050000D01*
G75*
G02*
X2475000Y-48806250I0J243750D01*
G01*
X2475000Y-48318750D01*
G75*
G02*
X2718750Y-48075000I243750J0D01*
G01*
X3631250Y-48075000D01*
G75*
G02*
X3875000Y-48318750I0J-243750D01*
G01*
X3875000Y-48806250D01*
G75*
G02*
X3631250Y-49050000I-243750J0D01*
G01*
G37*
%TD*%
D16*
%TO.C,J7*%
X174625000Y-92075000D03*
X172085000Y-92075000D03*
X169545000Y-92075000D03*
X167005000Y-92075000D03*
X164465000Y-92075000D03*
X161925000Y-92075000D03*
X159385000Y-92075000D03*
X156845000Y-92075000D03*
X154305000Y-92075000D03*
X151765000Y-92075000D03*
X149225000Y-92075000D03*
X146685000Y-92075000D03*
X144145000Y-92075000D03*
D17*
X141605000Y-92075000D03*
%TD*%
D13*
%TO.C,S15*%
X19367500Y-28575000D03*
X9207500Y-28575000D03*
D14*
X14287500Y-28575000D03*
D15*
X10477500Y-26035000D03*
X16827500Y-23495000D03*
%TD*%
D18*
%TO.C,S59*%
X80968750Y-92725000D03*
X180968750Y-92725000D03*
D14*
X180968750Y-77485000D03*
X80968750Y-77485000D03*
D13*
X125888750Y-85725000D03*
X136048750Y-85725000D03*
D14*
X130968750Y-85725000D03*
D15*
X134778750Y-88265000D03*
X128428750Y-90805000D03*
%TD*%
D19*
%TO.C,SW1*%
X29210000Y-46895000D03*
D20*
X29210000Y-48895000D03*
X29210000Y-50895000D03*
D21*
X29210000Y-44795000D03*
X29210000Y-52995000D03*
%TD*%
D22*
%TO.C,J3*%
X22735000Y-5670000D03*
X14095000Y-5670000D03*
D23*
X15525000Y-5140000D03*
D24*
X14095000Y-1490000D03*
D23*
X21305000Y-5140000D03*
D24*
X22735000Y-1490000D03*
%TD*%
D12*
%TO.C,J1*%
X143510000Y-85770000D03*
X143510000Y-81870000D03*
X144780000Y-85770000D03*
X144780000Y-81870000D03*
X146050000Y-85770000D03*
X146050000Y-81870000D03*
X147320000Y-85770000D03*
X147320000Y-81870000D03*
X148590000Y-85770000D03*
X148590000Y-81870000D03*
%TD*%
D25*
%TO.C,MK6*%
X190500000Y-85725000D03*
%TD*%
D26*
%TO.C,MK5*%
X283845000Y-57150000D03*
%TD*%
D25*
%TO.C,MK2*%
X260350000Y-28575000D03*
%TD*%
%TO.C,MK3*%
X128587500Y-47625000D03*
%TD*%
D26*
%TO.C,MK4*%
X635000Y-57150000D03*
%TD*%
D25*
%TO.C,MK1*%
X25400000Y-28575000D03*
%TD*%
D13*
%TO.C,S58*%
X64611250Y-85725000D03*
X54451250Y-85725000D03*
D14*
X59531250Y-85725000D03*
D15*
X55721250Y-83185000D03*
X62071250Y-80645000D03*
%TD*%
D13*
%TO.C,S57*%
X40798750Y-85725000D03*
X30638750Y-85725000D03*
D14*
X35718750Y-85725000D03*
D15*
X31908750Y-83185000D03*
X38258750Y-80645000D03*
%TD*%
D13*
%TO.C,S56*%
X16986250Y-85725000D03*
X6826250Y-85725000D03*
D14*
X11906250Y-85725000D03*
D15*
X8096250Y-83185000D03*
X14446250Y-80645000D03*
%TD*%
D18*
%TO.C,S41*%
X276218750Y-40625000D03*
X252418750Y-40625000D03*
D14*
X252418750Y-55865000D03*
X276218750Y-55865000D03*
D13*
X269398750Y-47625000D03*
X259238750Y-47625000D03*
D14*
X264318750Y-47625000D03*
D15*
X260508750Y-45085000D03*
X266858750Y-42545000D03*
%TD*%
D18*
%TO.C,S42*%
X30950000Y-59675000D03*
X7150000Y-59675000D03*
D14*
X7150000Y-74915000D03*
X30950000Y-74915000D03*
D13*
X24130000Y-66675000D03*
X13970000Y-66675000D03*
D14*
X19050000Y-66675000D03*
D15*
X15240000Y-64135000D03*
X21590000Y-61595000D03*
%TD*%
D13*
%TO.C,S29*%
X21748750Y-47625000D03*
X11588750Y-47625000D03*
D14*
X16668750Y-47625000D03*
D15*
X12858750Y-45085000D03*
X19208750Y-42545000D03*
%TD*%
D13*
%TO.C,S28*%
X276542500Y-28575000D03*
X266382500Y-28575000D03*
D14*
X271462500Y-28575000D03*
D15*
X267652500Y-26035000D03*
X274002500Y-23495000D03*
%TD*%
D18*
%TO.C,S14*%
X278600000Y-2525000D03*
X254800000Y-2525000D03*
D14*
X254800000Y-17765000D03*
X278600000Y-17765000D03*
D13*
X271780000Y-9525000D03*
X261620000Y-9525000D03*
D14*
X266700000Y-9525000D03*
D15*
X262890000Y-6985000D03*
X269240000Y-4445000D03*
%TD*%
D13*
%TO.C,S64*%
X281305000Y-85725000D03*
X271145000Y-85725000D03*
D14*
X276225000Y-85725000D03*
D15*
X272415000Y-83185000D03*
X278765000Y-80645000D03*
%TD*%
D13*
%TO.C,S63*%
X262255000Y-85725000D03*
X252095000Y-85725000D03*
D14*
X257175000Y-85725000D03*
D15*
X253365000Y-83185000D03*
X259715000Y-80645000D03*
%TD*%
D13*
%TO.C,S62*%
X243205000Y-85725000D03*
X233045000Y-85725000D03*
D14*
X238125000Y-85725000D03*
D15*
X234315000Y-83185000D03*
X240665000Y-80645000D03*
%TD*%
D13*
%TO.C,S61*%
X224155000Y-85725000D03*
X213995000Y-85725000D03*
D14*
X219075000Y-85725000D03*
D15*
X215265000Y-83185000D03*
X221615000Y-80645000D03*
%TD*%
D13*
%TO.C,S60*%
X205105000Y-85725000D03*
X194945000Y-85725000D03*
D14*
X200025000Y-85725000D03*
D15*
X196215000Y-83185000D03*
X202565000Y-80645000D03*
%TD*%
D13*
%TO.C,S55*%
X281305000Y-66675000D03*
X271145000Y-66675000D03*
D14*
X276225000Y-66675000D03*
D15*
X272415000Y-64135000D03*
X278765000Y-61595000D03*
%TD*%
D13*
%TO.C,S54*%
X262255000Y-66675000D03*
X252095000Y-66675000D03*
D14*
X257175000Y-66675000D03*
D15*
X253365000Y-64135000D03*
X259715000Y-61595000D03*
%TD*%
D13*
%TO.C,S53*%
X243205000Y-66675000D03*
X233045000Y-66675000D03*
D14*
X238125000Y-66675000D03*
D15*
X234315000Y-64135000D03*
X240665000Y-61595000D03*
%TD*%
D13*
%TO.C,S52*%
X224155000Y-66675000D03*
X213995000Y-66675000D03*
D14*
X219075000Y-66675000D03*
D15*
X215265000Y-64135000D03*
X221615000Y-61595000D03*
%TD*%
D13*
%TO.C,S51*%
X205105000Y-66675000D03*
X194945000Y-66675000D03*
D14*
X200025000Y-66675000D03*
D15*
X196215000Y-64135000D03*
X202565000Y-61595000D03*
%TD*%
D13*
%TO.C,S50*%
X186055000Y-66675000D03*
X175895000Y-66675000D03*
D14*
X180975000Y-66675000D03*
D15*
X177165000Y-64135000D03*
X183515000Y-61595000D03*
%TD*%
D13*
%TO.C,S49*%
X167005000Y-66675000D03*
X156845000Y-66675000D03*
D14*
X161925000Y-66675000D03*
D15*
X158115000Y-64135000D03*
X164465000Y-61595000D03*
%TD*%
D13*
%TO.C,S48*%
X147955000Y-66675000D03*
X137795000Y-66675000D03*
D14*
X142875000Y-66675000D03*
D15*
X139065000Y-64135000D03*
X145415000Y-61595000D03*
%TD*%
D13*
%TO.C,S47*%
X128905000Y-66675000D03*
X118745000Y-66675000D03*
D14*
X123825000Y-66675000D03*
D15*
X120015000Y-64135000D03*
X126365000Y-61595000D03*
%TD*%
D13*
%TO.C,S46*%
X109855000Y-66675000D03*
X99695000Y-66675000D03*
D14*
X104775000Y-66675000D03*
D15*
X100965000Y-64135000D03*
X107315000Y-61595000D03*
%TD*%
D13*
%TO.C,S45*%
X90805000Y-66675000D03*
X80645000Y-66675000D03*
D14*
X85725000Y-66675000D03*
D15*
X81915000Y-64135000D03*
X88265000Y-61595000D03*
%TD*%
D13*
%TO.C,S44*%
X71755000Y-66675000D03*
X61595000Y-66675000D03*
D14*
X66675000Y-66675000D03*
D15*
X62865000Y-64135000D03*
X69215000Y-61595000D03*
%TD*%
D13*
%TO.C,S43*%
X52705000Y-66675000D03*
X42545000Y-66675000D03*
D14*
X47625000Y-66675000D03*
D15*
X43815000Y-64135000D03*
X50165000Y-61595000D03*
%TD*%
D13*
%TO.C,S40*%
X238442500Y-47625000D03*
X228282500Y-47625000D03*
D14*
X233362500Y-47625000D03*
D15*
X229552500Y-45085000D03*
X235902500Y-42545000D03*
%TD*%
D13*
%TO.C,S39*%
X219392500Y-47625000D03*
X209232500Y-47625000D03*
D14*
X214312500Y-47625000D03*
D15*
X210502500Y-45085000D03*
X216852500Y-42545000D03*
%TD*%
D13*
%TO.C,S38*%
X200342500Y-47625000D03*
X190182500Y-47625000D03*
D14*
X195262500Y-47625000D03*
D15*
X191452500Y-45085000D03*
X197802500Y-42545000D03*
%TD*%
D13*
%TO.C,S37*%
X181292500Y-47625000D03*
X171132500Y-47625000D03*
D14*
X176212500Y-47625000D03*
D15*
X172402500Y-45085000D03*
X178752500Y-42545000D03*
%TD*%
D13*
%TO.C,S36*%
X162242500Y-47625000D03*
X152082500Y-47625000D03*
D14*
X157162500Y-47625000D03*
D15*
X153352500Y-45085000D03*
X159702500Y-42545000D03*
%TD*%
D13*
%TO.C,S35*%
X143192500Y-47625000D03*
X133032500Y-47625000D03*
D14*
X138112500Y-47625000D03*
D15*
X134302500Y-45085000D03*
X140652500Y-42545000D03*
%TD*%
D13*
%TO.C,S34*%
X124142500Y-47625000D03*
X113982500Y-47625000D03*
D14*
X119062500Y-47625000D03*
D15*
X115252500Y-45085000D03*
X121602500Y-42545000D03*
%TD*%
D13*
%TO.C,S33*%
X105092500Y-47625000D03*
X94932500Y-47625000D03*
D14*
X100012500Y-47625000D03*
D15*
X96202500Y-45085000D03*
X102552500Y-42545000D03*
%TD*%
D13*
%TO.C,S32*%
X86042500Y-47625000D03*
X75882500Y-47625000D03*
D14*
X80962500Y-47625000D03*
D15*
X77152500Y-45085000D03*
X83502500Y-42545000D03*
%TD*%
D13*
%TO.C,S31*%
X66992500Y-47625000D03*
X56832500Y-47625000D03*
D14*
X61912500Y-47625000D03*
D15*
X58102500Y-45085000D03*
X64452500Y-42545000D03*
%TD*%
D13*
%TO.C,S30*%
X47942500Y-47625000D03*
X37782500Y-47625000D03*
D14*
X42862500Y-47625000D03*
D15*
X39052500Y-45085000D03*
X45402500Y-42545000D03*
%TD*%
D13*
%TO.C,S27*%
X252730000Y-28575000D03*
X242570000Y-28575000D03*
D14*
X247650000Y-28575000D03*
D15*
X243840000Y-26035000D03*
X250190000Y-23495000D03*
%TD*%
D13*
%TO.C,S26*%
X233680000Y-28575000D03*
X223520000Y-28575000D03*
D14*
X228600000Y-28575000D03*
D15*
X224790000Y-26035000D03*
X231140000Y-23495000D03*
%TD*%
D13*
%TO.C,S25*%
X214630000Y-28575000D03*
X204470000Y-28575000D03*
D14*
X209550000Y-28575000D03*
D15*
X205740000Y-26035000D03*
X212090000Y-23495000D03*
%TD*%
D13*
%TO.C,S24*%
X195580000Y-28575000D03*
X185420000Y-28575000D03*
D14*
X190500000Y-28575000D03*
D15*
X186690000Y-26035000D03*
X193040000Y-23495000D03*
%TD*%
D13*
%TO.C,S23*%
X176530000Y-28575000D03*
X166370000Y-28575000D03*
D14*
X171450000Y-28575000D03*
D15*
X167640000Y-26035000D03*
X173990000Y-23495000D03*
%TD*%
D13*
%TO.C,S22*%
X157480000Y-28575000D03*
X147320000Y-28575000D03*
D14*
X152400000Y-28575000D03*
D15*
X148590000Y-26035000D03*
X154940000Y-23495000D03*
%TD*%
D13*
%TO.C,S21*%
X138430000Y-28575000D03*
X128270000Y-28575000D03*
D14*
X133350000Y-28575000D03*
D15*
X129540000Y-26035000D03*
X135890000Y-23495000D03*
%TD*%
D13*
%TO.C,S20*%
X119380000Y-28575000D03*
X109220000Y-28575000D03*
D14*
X114300000Y-28575000D03*
D15*
X110490000Y-26035000D03*
X116840000Y-23495000D03*
%TD*%
D13*
%TO.C,S19*%
X100330000Y-28575000D03*
X90170000Y-28575000D03*
D14*
X95250000Y-28575000D03*
D15*
X91440000Y-26035000D03*
X97790000Y-23495000D03*
%TD*%
D13*
%TO.C,S18*%
X81280000Y-28575000D03*
X71120000Y-28575000D03*
D14*
X76200000Y-28575000D03*
D15*
X72390000Y-26035000D03*
X78740000Y-23495000D03*
%TD*%
D13*
%TO.C,S17*%
X62230000Y-28575000D03*
X52070000Y-28575000D03*
D14*
X57150000Y-28575000D03*
D15*
X53340000Y-26035000D03*
X59690000Y-23495000D03*
%TD*%
D13*
%TO.C,S16*%
X43180000Y-28575000D03*
X33020000Y-28575000D03*
D14*
X38100000Y-28575000D03*
D15*
X34290000Y-26035000D03*
X40640000Y-23495000D03*
%TD*%
D13*
%TO.C,S13*%
X243205000Y-9525000D03*
X233045000Y-9525000D03*
D14*
X238125000Y-9525000D03*
D15*
X234315000Y-6985000D03*
X240665000Y-4445000D03*
%TD*%
D13*
%TO.C,S12*%
X224155000Y-9525000D03*
X213995000Y-9525000D03*
D14*
X219075000Y-9525000D03*
D15*
X215265000Y-6985000D03*
X221615000Y-4445000D03*
%TD*%
D13*
%TO.C,S11*%
X205105000Y-9525000D03*
X194945000Y-9525000D03*
D14*
X200025000Y-9525000D03*
D15*
X196215000Y-6985000D03*
X202565000Y-4445000D03*
%TD*%
D13*
%TO.C,S10*%
X186055000Y-9525000D03*
X175895000Y-9525000D03*
D14*
X180975000Y-9525000D03*
D15*
X177165000Y-6985000D03*
X183515000Y-4445000D03*
%TD*%
D13*
%TO.C,S9*%
X167005000Y-9525000D03*
X156845000Y-9525000D03*
D14*
X161925000Y-9525000D03*
D15*
X158115000Y-6985000D03*
X164465000Y-4445000D03*
%TD*%
D13*
%TO.C,S8*%
X147955000Y-9525000D03*
X137795000Y-9525000D03*
D14*
X142875000Y-9525000D03*
D15*
X139065000Y-6985000D03*
X145415000Y-4445000D03*
%TD*%
D13*
%TO.C,S7*%
X128905000Y-9525000D03*
X118745000Y-9525000D03*
D14*
X123825000Y-9525000D03*
D15*
X120015000Y-6985000D03*
X126365000Y-4445000D03*
%TD*%
D13*
%TO.C,S6*%
X109855000Y-9525000D03*
X99695000Y-9525000D03*
D14*
X104775000Y-9525000D03*
D15*
X100965000Y-6985000D03*
X107315000Y-4445000D03*
%TD*%
D13*
%TO.C,S4*%
X71755000Y-9525000D03*
X61595000Y-9525000D03*
D14*
X66675000Y-9525000D03*
D15*
X62865000Y-6985000D03*
X69215000Y-4445000D03*
%TD*%
D13*
%TO.C,S3*%
X52705000Y-9525000D03*
X42545000Y-9525000D03*
D14*
X47625000Y-9525000D03*
D15*
X43815000Y-6985000D03*
X50165000Y-4445000D03*
%TD*%
D13*
%TO.C,S2*%
X33655000Y-9525000D03*
X23495000Y-9525000D03*
D14*
X28575000Y-9525000D03*
D15*
X24765000Y-6985000D03*
X31115000Y-4445000D03*
%TD*%
D13*
%TO.C,S1*%
X14605000Y-9525000D03*
X4445000Y-9525000D03*
D14*
X9525000Y-9525000D03*
D15*
X5715000Y-6985000D03*
X12065000Y-4445000D03*
%TD*%
M02*
